<svg width="24" height="24" viewBox="0 0 24 24" fill="none" xmlns="http://www.w3.org/2000/svg">
<path d="M18.4084 8.39992H12.9284L18.0084 0.399902H11.6084L5.6084 12.3999H10.3284L5.6084 23.5999L18.4084 8.39992Z" fill="#FFDD09"/>
<path d="M13.2084 0.399902H11.6084L5.6084 12.3999H7.20838L13.2084 0.399902Z" fill="white"/>
<path d="M16.409 8.3999L6.80897 19.7999L5.20898 23.5999L18.009 8.3999H16.409Z" fill="#FD9808"/>
<path d="M5.60849 24C5.52847 24 5.4485 24 5.40847 23.96C5.24849 23.84 5.16847 23.64 5.24849 23.48L9.72847 12.8H5.60849C5.48849 12.8 5.3285 12.72 5.24849 12.6C5.16847 12.48 5.16847 12.32 5.24849 12.2L11.2485 0.200016C11.3285 0.0800156 11.4485 0 11.6085 0H18.0085C18.1685 0 18.2885 0.0800156 18.3685 0.200016C18.4485 0.320016 18.4485 0.48 18.3685 0.6L13.6885 8.00002H18.4085C18.5684 8.00002 18.6884 8.08003 18.7685 8.24002C18.8485 8.4 18.8084 8.56003 18.7285 8.68003L5.92846 23.88C5.84849 23.96 5.72849 24 5.60849 24ZM6.24847 12H10.3285C10.4485 12 10.5685 12.08 10.6485 12.16C10.7285 12.28 10.7285 12.4 10.6885 12.52L7.00846 21.32L17.5685 8.79998H12.9284C12.7685 8.79998 12.6485 8.71997 12.5684 8.59997C12.4884 8.47997 12.4884 8.31998 12.5684 8.19998L17.2885 0.800016H11.8485L6.24847 12Z" fill="black"/>
</svg>
