<svg width="32" height="32" viewBox="0 0 32 32" fill="none" xmlns="http://www.w3.org/2000/svg">
<path d="M8.5332 5.86653V16.5332H23.4665V5.86653C23.4665 5.27984 22.9865 4.79984 22.3998 4.79984H21.3331V3.73315H18.6665V4.79984H13.3331V3.73315H10.6665V4.79984H9.59989C9.0132 4.79984 8.5332 5.27984 8.5332 5.86653Z" fill="#FD9808"/>
<path d="M20.7998 4.7998C21.3865 4.7998 21.8665 5.2798 21.8665 5.86649V16.5332H23.4665V5.86649C23.4665 5.2798 22.9865 4.7998 22.3998 4.7998H21.3331H20.7998Z" fill="#FD9808"/>
<path d="M11.1999 4.7998C10.6132 4.7998 10.1332 5.2798 10.1332 5.86649V16.5332H8.5332V5.86649C8.5332 5.2798 9.0132 4.7998 9.59989 4.7998H10.6666H11.1999Z" fill="white"/>
<path d="M5.86658 16.5332V15.4666H3.19989V16.5332H1.8132C1.11989 16.5332 0.533203 17.2266 0.533203 17.9732V27.1999C0.533203 27.8932 0.906516 28.2666 1.59989 28.2666H3.19989V27.1999H5.86658V28.2666H10.6666V27.1999H13.3333V28.2666H14.9333C15.6266 28.2666 16 27.8933 16 27.1999V17.5999C16 16.9066 15.6266 16.5332 14.9333 16.5332H5.86658Z" fill="#1CD759"/>
<path d="M17.28 16.5332C16.5867 16.5332 16 16.9066 16 17.5999V27.1999C16 27.8932 16.3733 28.2666 17.0667 28.2666H18.6667V27.1999H21.3334V28.2666H26.1334V27.1999H28.8V28.2666H30.1867C30.88 28.2666 31.4667 27.6799 31.4667 26.9866V17.9732C31.4667 17.2799 30.88 16.5332 30.1867 16.5332H28.8V15.4666H26.1333V16.5332H17.28Z" fill="#FFDD09"/>
<path d="M28.5869 16.5332C29.2802 16.5332 29.8669 17.2265 29.8669 17.9732V26.9865C29.8669 27.6265 29.3869 28.1598 28.8002 28.2665H30.1869C30.8802 28.2665 31.4669 27.6798 31.4669 26.9865V17.9732C31.4669 17.2799 30.8802 16.5332 30.1869 16.5332H28.8002H28.5869Z" fill="#FD9808"/>
<path d="M3.4132 16.5332C2.71989 16.5332 2.1332 17.2265 2.1332 17.9732V26.9865C2.1332 27.6265 2.6132 28.1598 3.19989 28.2665H1.8132C1.11989 28.2665 0.533203 27.6798 0.533203 26.9865V17.9732C0.533203 17.2265 1.11989 16.5332 1.8132 16.5332H3.19989H3.4132Z" fill="white"/>
<path d="M14.9333 28.8H13.3333C13.0133 28.8 12.8 28.5867 12.8 28.2667V27.7333H11.2V28.2667C11.2 28.5867 10.9867 28.8 10.6667 28.8H5.86669C5.54669 28.8 5.33337 28.5867 5.33337 28.2667V27.7333H3.73338V28.2667C3.73338 28.5867 3.52006 28.8 3.20006 28.8H1.6C0.586688 28.8 0 28.2133 0 27.2V17.9733C0 16.9067 0.853313 16 1.81331 16H2.66663V15.4667C2.66663 15.1467 2.87994 14.9333 3.19994 14.9333H5.86662C6.18662 14.9333 6.39994 15.1467 6.39994 15.4667V16H14.9333C15.9466 16 16.5333 16.5867 16.5333 17.6V27.2C16.5333 28.2133 15.9467 28.8 14.9333 28.8ZM13.8667 27.7333H14.9334C15.3601 27.7333 15.4667 27.6266 15.4667 27.2V17.6C15.4667 17.1733 15.36 17.0667 14.9334 17.0667H5.86669C5.54669 17.0667 5.33337 16.8533 5.33337 16.5333V16H3.73338V16.5333C3.73338 16.8533 3.52006 17.0666 3.20006 17.0666H1.81331C1.44 17.0666 1.06662 17.4933 1.06662 17.9733V27.2C1.06662 27.6267 1.17331 27.7333 1.59994 27.7333H2.66663V27.2C2.66663 26.88 2.87994 26.6667 3.19994 26.6667H5.86662C6.18662 26.6667 6.39994 26.88 6.39994 27.2V27.7333H10.1333V27.2C10.1333 26.88 10.3466 26.6667 10.6666 26.6667H13.3333C13.6533 26.6667 13.8666 26.88 13.8666 27.2V27.7333H13.8667Z" fill="black"/>
<path d="M30.1867 28.8H28.8C28.48 28.8 28.2667 28.5867 28.2667 28.2667V27.7333H26.6667V28.2667C26.6667 28.5867 26.4534 28.8 26.1334 28.8H21.3334C21.0134 28.8 20.8001 28.5867 20.8001 28.2667V27.7333H19.2001V28.2667C19.2001 28.5867 18.9868 28.8 18.6668 28.8H17.0668C16.0535 28.8 15.4668 28.2133 15.4668 27.2V17.6C15.4668 16.64 16.2135 16 17.2801 16H25.6V15.4667C25.6 15.1467 25.8134 14.9333 26.1334 14.9333H28.8C29.12 14.9333 29.3334 15.1467 29.3334 15.4667V16H30.1867C31.1467 16 32 16.9067 32 17.9733V26.9866C32 28 31.2 28.8 30.1867 28.8ZM29.3334 27.7333H30.1867C30.6134 27.7333 30.9334 27.4133 30.9334 26.9866V17.9733C30.9334 17.5466 30.56 17.0666 30.1867 17.0666H28.8C28.48 17.0666 28.2667 16.8533 28.2667 16.5333V16H26.6667V16.5333C26.6667 16.8533 26.4534 17.0666 26.1334 17.0666H17.28C17.0134 17.0666 16.5334 17.1199 16.5334 17.5999V27.1999C16.5334 27.6266 16.64 27.7332 17.0667 27.7332H18.1334V27.2C18.1334 26.88 18.3467 26.6667 18.6667 26.6667H21.3334C21.6534 26.6667 21.8667 26.88 21.8667 27.2V27.7333H25.6V27.2C25.6 26.88 25.8134 26.6667 26.1334 26.6667H28.8C29.12 26.6667 29.3334 26.88 29.3334 27.2V27.7333Z" fill="black"/>
<path d="M23.4667 17.0666H8.53331C8.21331 17.0666 8 16.8533 8 16.5333V5.86658C8 4.95989 8.69331 4.26658 9.6 4.26658H10.1333V3.73326C10.1333 3.41326 10.3466 3.19995 10.6666 3.19995H13.3333C13.6533 3.19995 13.8666 3.41326 13.8666 3.73326V4.26658H18.1333V3.73326C18.1333 3.41326 18.3466 3.19995 18.6666 3.19995H21.3333C21.6533 3.19995 21.8666 3.41326 21.8666 3.73326V4.26658H22.3999C23.3066 4.26658 23.9999 4.95989 23.9999 5.86658V16.5333C24 16.8532 23.7867 17.0666 23.4667 17.0666ZM9.06669 15.9999H22.9334V5.86658C22.9334 5.54658 22.7201 5.33326 22.4001 5.33326H21.3334C21.0134 5.33326 20.8001 5.11995 20.8001 4.79995V4.26664H19.2001V4.79989C19.2001 5.11989 18.9867 5.3332 18.6667 5.3332H13.3334C13.0134 5.3332 12.8001 5.11989 12.8001 4.79989V4.26658H11.2001V4.79989C11.2001 5.11989 10.9868 5.3332 10.6668 5.3332H9.6C9.28 5.3332 9.06669 5.54651 9.06669 5.86651V15.9999Z" fill="black"/>
<path d="M3.2 25.5998H0.533312C0.213313 25.5998 0 25.3865 0 25.0665C0 24.7465 0.213313 24.5332 0.533312 24.5332H3.2C3.52 24.5332 3.73331 24.7465 3.73331 25.0665C3.73331 25.3865 3.52 25.5998 3.2 25.5998Z" fill="black"/>
<path d="M2.13331 23.4665H0.533312C0.213313 23.4665 0 23.2532 0 22.9332C0 22.6132 0.213313 22.3999 0.533312 22.3999H2.13331C2.45331 22.3999 2.66663 22.6132 2.66663 22.9332C2.66663 23.2532 2.45331 23.4665 2.13331 23.4665Z" fill="black"/>
</svg>
