<svg width="32" height="32" viewBox="0 0 32 32" fill="none" xmlns="http://www.w3.org/2000/svg">
<g clip-path="url(#clip0_104_2732)">
<path d="M18.9095 25.4545C25.7378 25.4545 31.2731 19.9192 31.2731 13.0909C31.2731 6.26268 25.7378 0.727295 18.9095 0.727295C12.0813 0.727295 6.5459 6.26268 6.5459 13.0909C6.5459 19.9192 12.0813 25.4545 18.9095 25.4545Z" fill="#FFDD09"/>
<path d="M19.5 26C12.6076 26 7 20.3924 7 13.5C7 6.60762 12.6076 1 19.5 1C26.3924 1 32 6.60762 32 13.5C32 20.3924 26.3924 26 19.5 26ZM19.5 2.38887C13.3736 2.38887 8.38887 7.37357 8.38887 13.5C8.38887 19.6264 13.3736 24.6111 19.5 24.6111C25.6264 24.6111 30.6111 19.6264 30.6111 13.5C30.6111 7.37363 25.6264 2.38887 19.5 2.38887Z" fill="white"/>
<path d="M18.9093 26.1818C11.6911 26.1818 5.81836 20.3091 5.81836 13.0909C5.81836 5.87271 11.6911 0 18.9093 0C26.1275 0 32.0002 5.87271 32.0002 13.0909C32.0002 20.3091 26.1275 26.1818 18.9093 26.1818ZM18.9093 1.45452C12.4933 1.45452 7.27288 6.67487 7.27288 13.0909C7.27288 19.507 12.4932 24.7273 18.9093 24.7273C25.3253 24.7273 30.5457 19.5069 30.5457 13.0909C30.5457 6.67494 25.3253 1.45452 18.9093 1.45452Z" fill="black"/>
<path d="M18.9092 21.0908C23.3274 21.0908 26.9091 17.5091 26.9091 13.0908C26.9091 8.67253 23.3274 5.09082 18.9092 5.09082C14.4909 5.09082 10.9092 8.67253 10.9092 13.0908C10.9092 17.5091 14.4909 21.0908 18.9092 21.0908Z" fill="#FD9808"/>
<path d="M18.9089 21.8181C14.0966 21.8181 10.1816 17.9031 10.1816 13.0908C10.1816 8.27846 14.0966 4.36353 18.9089 4.36353C23.7213 4.36353 27.6362 8.27846 27.6362 13.0908C27.6362 17.9031 23.7213 21.8181 18.9089 21.8181ZM18.9089 5.81805C14.8987 5.81805 11.6362 9.08062 11.6362 13.0908C11.6362 17.101 14.8987 20.3636 18.9089 20.3636C22.9191 20.3636 26.1817 17.101 26.1817 13.0908C26.1817 9.08062 22.9191 5.81805 18.9089 5.81805Z" fill="black"/>
<path d="M16.7275 31.2728H2.18206C1.3784 31.2728 0.727539 30.6219 0.727539 29.8183V27.6365C0.727539 26.8328 1.3784 26.1819 2.18206 26.1819H16.7275C17.5312 26.1819 18.182 26.8328 18.182 27.6364V29.8182C18.1821 30.6219 17.5312 31.2728 16.7275 31.2728Z" fill="#FFDD09"/>
<path d="M18.9091 26.1819H4.3637C3.56004 26.1819 2.90918 25.531 2.90918 24.7274V22.5456C2.90918 21.7419 3.56011 21.0911 4.3637 21.0911H18.9091C19.7128 21.0911 20.3637 21.742 20.3637 22.5456V24.7274C20.3637 25.531 19.7128 26.1819 18.9091 26.1819Z" fill="#FFDD09"/>
<path d="M18.9091 20.3638H4.36364C3.16071 20.3638 2.18182 21.3427 2.18182 22.5456V24.7274C2.18182 24.9834 2.23418 25.2263 2.31566 25.4547H2.18182C0.978887 25.4547 0 26.4336 0 27.6365V29.8183C0 31.0213 0.978887 32.0002 2.18182 32.0002H16.7273C17.9302 32.0002 18.9091 31.0213 18.9091 29.8183V27.6365C18.9091 27.3805 18.8567 27.1376 18.7752 26.9092H18.9091C20.112 26.9092 21.0909 25.9303 21.0909 24.7274V22.5456C21.0909 21.3427 20.112 20.3638 18.9091 20.3638ZM17.4546 27.6365V29.8183C17.4546 30.219 17.128 30.5456 16.7273 30.5456H2.18182C1.78112 30.5456 1.45452 30.2191 1.45452 29.8183V27.6365C1.45452 27.2358 1.78105 26.9092 2.18182 26.9092H2.90912V28.3638C2.90912 28.7652 3.23496 29.091 3.63641 29.091C4.03787 29.091 4.36364 28.7652 4.36364 28.3638V26.9092H5.81816V27.6365C5.81816 28.0379 6.144 28.3638 6.54546 28.3638C6.94691 28.3638 7.27276 28.0379 7.27276 27.6365V26.9092H8.72728V28.3638C8.72728 28.7652 9.05312 29.091 9.45458 29.091C9.85603 29.091 10.1819 28.7652 10.1819 28.3638V26.9092H11.6364V27.6365C11.6364 28.038 11.9622 28.3638 12.3637 28.3638C12.7651 28.3638 13.0909 28.0379 13.0909 27.6365V26.9092H14.5454V28.3638C14.5454 28.7652 14.8713 29.091 15.2727 29.091C15.6742 29.091 16 28.7652 16 28.3638V26.9092H16.7273C17.128 26.9092 17.4546 27.2358 17.4546 27.6365ZM19.6364 24.7274C19.6364 25.1281 19.3099 25.4547 18.9091 25.4547H16.7273H4.36364C3.96293 25.4547 3.63634 25.1282 3.63634 24.7274V22.5456C3.63634 22.1448 3.96293 21.8183 4.36364 21.8183H5.09094V23.2728C5.09094 23.6743 5.41678 24.0001 5.81823 24.0001C6.21969 24.0001 6.54546 23.6743 6.54546 23.2728V21.8183H7.99998V22.5456C7.99998 22.947 8.32582 23.2729 8.72728 23.2729C9.12873 23.2729 9.45458 22.947 9.45458 22.5456V21.8183H10.9091V23.2728C10.9091 23.6743 11.2349 24.0001 11.6364 24.0001C12.0379 24.0001 12.3637 23.6743 12.3637 23.2728V21.8183H13.8182V22.5456C13.8182 22.947 14.1441 23.2729 14.5455 23.2729C14.947 23.2729 15.2727 22.947 15.2727 22.5456V21.8183H16.7273V23.2728C16.7273 23.6743 17.0531 24.0001 17.4546 24.0001C17.856 24.0001 18.1819 23.6743 18.1819 23.2728V21.8183H18.9092C19.3099 21.8183 19.6364 22.1448 19.6364 22.5456V24.7274H19.6364Z" fill="black"/>
<path d="M31.2731 29.0911H30.5458V28.3638C30.5458 27.9623 30.22 27.6365 29.8185 27.6365C29.4171 27.6365 29.0912 27.9623 29.0912 28.3638V29.0911H28.364C27.9626 29.0911 27.6367 29.4169 27.6367 29.8184C27.6367 30.2198 27.9626 30.5456 28.364 30.5456H29.0913V31.2729C29.0913 31.6743 29.4172 32.0002 29.8186 32.0002C30.2201 32.0002 30.5458 31.6743 30.5458 31.2729V30.5456H31.2731C31.6746 30.5456 32.0004 30.2197 32.0004 29.8183C32.0004 29.4168 31.6746 29.0911 31.2731 29.0911Z" fill="black"/>
<path d="M3.63634 1.45452H2.90912V0.727296C2.90912 0.325841 2.58327 0 2.18182 0C1.78036 0 1.45452 0.325841 1.45452 0.727296V1.45459H0.727296C0.325841 1.45452 0 1.78036 0 2.18182C0 2.58327 0.325841 2.90912 0.727296 2.90912H1.45459V3.63641C1.45452 4.0378 1.78036 4.36364 2.18182 4.36364C2.58327 4.36364 2.90912 4.0378 2.90912 3.63634V2.90912H3.63641C4.0378 2.90912 4.36364 2.58327 4.36364 2.18182C4.36364 1.78036 4.0378 1.45452 3.63634 1.45452Z" fill="black"/>
<path d="M13.8181 13.8181C14.2198 13.8181 14.5454 13.4925 14.5454 13.0908C14.5454 12.6891 14.2198 12.3635 13.8181 12.3635C13.4164 12.3635 13.0908 12.6891 13.0908 13.0908C13.0908 13.4925 13.4164 13.8181 13.8181 13.8181Z" fill="black"/>
<path d="M23.9998 13.8181C24.4014 13.8181 24.7271 13.4925 24.7271 13.0908C24.7271 12.6891 24.4014 12.3635 23.9998 12.3635C23.5981 12.3635 23.2725 12.6891 23.2725 13.0908C23.2725 13.4925 23.5981 13.8181 23.9998 13.8181Z" fill="black"/>
</g>
<defs>
<clipPath id="clip0_104_2732">
<rect width="32" height="32" fill="white"/>
</clipPath>
</defs>
</svg>
