<svg width="32" height="32" viewBox="0 0 32 32" fill="none" xmlns="http://www.w3.org/2000/svg">
<path d="M31.4286 10.2858H21.1429C20.5143 10.2858 20 9.77149 20 9.1429V8.00004C20 7.37145 20.5143 6.85718 21.1429 6.85718H30.2857C30.9143 6.85718 31.4286 7.37145 31.4286 8.00004V10.2858Z" fill="#FD9808"/>
<path d="M0.571289 27.4285V10.2856H31.4284V27.4285C31.4284 28.0571 30.9142 28.5714 30.2856 28.5714H1.71415C1.08562 28.5714 0.571289 28.0571 0.571289 27.4285Z" fill="#FFDD09"/>
<path d="M1.71415 28.5714H30.2856C30.9142 28.5714 31.4284 28.0572 31.4284 27.4286V24H0.571289V27.4286C0.571289 28.0572 1.08562 28.5714 1.71415 28.5714Z" fill="#FD9808"/>
<path d="M28.5713 6.85718H30.2856C30.9141 6.85718 31.4284 7.37145 31.4284 8.00004V27.6C31.4284 28.1714 30.9713 28.5714 30.457 28.5714H29.7142V8.00004C29.7142 7.37151 29.1999 6.85718 28.5713 6.85718Z" fill="#FD9808"/>
<path d="M31.4287 10.857H21.143C20.1716 10.857 19.4287 10.1142 19.4287 9.14277V7.9999C19.4287 7.02849 20.1716 6.28564 21.143 6.28564H30.2858C31.2572 6.28564 32.0001 7.02849 32.0001 7.9999V10.2856C32.0001 10.6285 31.7716 10.857 31.4287 10.857ZM21.143 7.42844C20.8001 7.42844 20.5716 7.65701 20.5716 7.99984V9.1427C20.5716 9.48553 20.8001 9.7141 21.143 9.7141H30.8573V7.99984C30.8573 7.65701 30.6287 7.42844 30.2859 7.42844H21.143Z" fill="black"/>
<path d="M10.857 10.2858H0.571289V8.00004C0.571289 7.37145 1.08556 6.85718 1.71415 6.85718H10.857C11.4856 6.85718 11.9998 7.37145 11.9998 8.00004V9.1429C11.9999 9.77149 11.4856 10.2858 10.857 10.2858Z" fill="#FD9808"/>
<path d="M3.42848 6.85718H1.71415C1.08556 6.85718 0.571289 7.37145 0.571289 8.00004V27.6C0.571289 28.1714 1.02843 28.5714 1.54271 28.5714H2.28561V8.00004C2.28561 7.37151 2.79989 6.85718 3.42848 6.85718Z" fill="white"/>
<path d="M8.57145 6.85699H4V4.57133C4 3.94274 4.51427 3.42847 5.14286 3.42847H7.42859C8.05718 3.42847 8.57145 3.94274 8.57145 4.57133V6.85699Z" fill="#FD9808"/>
<path d="M28.0002 6.85699H23.4287V4.57133C23.4287 3.94274 23.943 3.42847 24.5716 3.42847H26.8573C27.4859 3.42847 28.0002 3.94274 28.0002 4.57133V6.85699Z" fill="#FD9808"/>
<path d="M26.8567 3.42847H25.7139C26.3425 3.42847 26.8567 3.94274 26.8567 4.57133V6.85705H27.9996V4.57133C28.0568 3.94274 27.4853 3.42847 26.8567 3.42847Z" fill="#FFDD09"/>
<path d="M5.19999 3.42847H6.34285C5.65713 3.42847 5.14286 3.94274 5.14286 4.57133V6.85705H4V4.57133C4 3.94274 4.51427 3.42847 5.19999 3.42847Z" fill="white"/>
<path d="M20.5713 18.2857H28.5713V16H20.5713V18.2857Z" fill="#54C9FD"/>
<path d="M11.4287 15.9999H8.57156V13.1428H6.28583V15.9999H3.42871V18.2857H6.28583V21.1428H8.57156V18.2857H11.4287V15.9999Z" fill="#1CD759"/>
<path d="M30.2857 29.1429H1.71426C0.742844 29.1429 0 28.4 0 27.4286V10.2858C0 9.94293 0.228572 9.71436 0.571399 9.71436H31.4285C31.7714 9.71436 31.9999 9.94293 31.9999 10.2858V27.4286C32 28.4 31.2571 29.1429 30.2857 29.1429ZM1.14286 10.8572V27.4286C1.14286 27.7714 1.37143 28 1.71426 28H30.2857C30.6285 28 30.8571 27.7714 30.8571 27.4286V10.8572H1.14286Z" fill="black"/>
<path d="M10.8572 10.857H0.571399C0.228572 10.857 0 10.6285 0 10.2856V7.9999C0 7.02849 0.742844 6.28564 1.71426 6.28564H10.8571C11.8285 6.28564 12.5714 7.02849 12.5714 7.9999V9.14277C12.5714 10.1141 11.8286 10.857 10.8572 10.857ZM1.14286 9.71417H10.8572C11.2 9.71417 11.4286 9.48559 11.4286 9.14277V7.9999C11.4286 7.65708 11.2 7.42851 10.8572 7.42851H1.71426C1.42856 7.42851 1.14286 7.71421 1.14286 7.9999V9.71417Z" fill="black"/>
<path d="M8.57156 7.42856H4.00011C3.71441 7.42856 3.42871 7.19999 3.42871 6.85716V4.57144C3.42871 3.60002 4.22868 2.85718 5.14297 2.85718H7.4287C8.40011 2.85718 9.14296 3.65715 9.14296 4.57144V6.85716C9.14296 7.19999 8.91438 7.42856 8.57156 7.42856ZM4.57157 6.2857H8.00016V4.57144C8.00016 4.22861 7.71446 4.00004 7.42876 4.00004H5.2001C4.85727 4.00004 4.57151 4.28574 4.57151 4.57144L4.57157 6.2857Z" fill="black"/>
<path d="M28.0003 7.42856H23.4288C23.086 7.42856 22.8574 7.19999 22.8574 6.85716V4.57144C22.8574 3.60002 23.6574 2.85718 24.5717 2.85718H26.8574C27.8288 2.85718 28.5717 3.65715 28.5717 4.57144V6.85716C28.5717 7.19999 28.3432 7.42856 28.0003 7.42856ZM24.0003 6.2857H27.4289V4.57144C27.4289 4.22861 27.1432 4.00004 26.8575 4.00004H24.6289C24.286 4.00004 24.0575 4.28574 24.0575 4.57144V6.2857H24.0003Z" fill="black"/>
<path d="M28.5714 18.8572H20.5714C20.2286 18.8572 20 18.6287 20 18.2858V16.0001C20 15.6573 20.2286 15.4287 20.5714 15.4287H28.5714C28.9142 15.4287 29.1428 15.6573 29.1428 16.0001V18.2858C29.1428 18.6287 28.9143 18.8572 28.5714 18.8572ZM21.1429 17.7144H28V16.5715H21.1429V17.7144Z" fill="black"/>
<path d="M8.57167 21.7143H6.28594C5.94312 21.7143 5.71454 21.4857 5.71454 21.1429V18.8572H3.42882C3.08599 18.8572 2.85742 18.6286 2.85742 18.2858V16.0001C2.85742 15.6572 3.08599 15.4287 3.42882 15.4287H5.71454V13.1429C5.71454 12.8001 5.94312 12.5715 6.28594 12.5715H8.57167C8.91449 12.5715 9.14307 12.8001 9.14307 13.1429V15.4287H11.4288C11.7716 15.4287 12.0002 15.6572 12.0002 16.0001V18.2858C12.0002 18.6286 11.7716 18.8572 11.4288 18.8572H9.14307V21.1429C9.14307 21.4857 8.91449 21.7143 8.57167 21.7143ZM6.85734 20.5714H8.0002V18.2857C8.0002 17.9429 8.22878 17.7143 8.5716 17.7143H10.8573V16.5715H8.5716C8.22878 16.5715 8.0002 16.3429 8.0002 16.0001V13.7143H6.85734V16.0001C6.85734 16.3429 6.62877 16.5715 6.28594 16.5715H4.00022V17.7143H6.28594C6.62877 17.7143 6.85734 17.9429 6.85734 18.2857V20.5714Z" fill="black"/>
<path d="M30.2857 29.1427H1.71426C0.742844 29.1427 0 28.3999 0 27.4284V23.9999C0 23.657 0.228572 23.4285 0.571399 23.4285H31.4285C31.7714 23.4285 31.9999 23.657 31.9999 23.9999V27.4284C32 28.3999 31.2571 29.1427 30.2857 29.1427ZM1.14286 24.5713V27.4284C1.14286 27.7713 1.37143 27.9999 1.71426 27.9999H30.2857C30.6285 27.9999 30.8571 27.7713 30.8571 27.4284V24.5713H1.14286Z" fill="black"/>
</svg>
