<svg width="32" height="32" viewBox="0 0 32 32" fill="none" xmlns="http://www.w3.org/2000/svg">
<path d="M18.4309 0.519043H13.5684C12.8198 0.519043 12.2129 1.12592 12.2129 1.87454V30.1254C12.2129 30.874 12.8198 31.4809 13.5684 31.4809H18.4309C19.1795 31.4809 19.7864 30.874 19.7864 30.1254V1.87454C19.7864 1.12592 19.1795 0.519043 18.4309 0.519043Z" fill="#54C9FD"/>
<path d="M8.40739 16H3.54495C2.79633 16 2.18945 16.6069 2.18945 17.3555V30.1255C2.18945 30.8741 2.79633 31.481 3.54495 31.481H8.40739C9.15602 31.481 9.76289 30.8741 9.76289 30.1255V17.3555C9.76283 16.6069 9.15602 16 8.40739 16Z" fill="#FD9808"/>
<path d="M4.01385 29.6866V17.3134C4.01385 16.588 4.45534 16 4.99995 16H2.9861C2.44149 16 2 16.588 2 17.3134V29.6866C2 30.412 2.44149 31 2.9861 31H5C4.45539 31 4.01385 30.412 4.01385 29.6866Z" fill="white"/>
<path d="M28.4552 10.3198H23.5928C22.8442 10.3198 22.2373 10.9267 22.2373 11.6753V30.1254C22.2373 30.874 22.8442 31.4809 23.5928 31.4809H28.4552C29.2039 31.4809 29.8107 30.874 29.8107 30.1254V11.6753C29.8107 10.9267 29.2039 10.3198 28.4552 10.3198Z" fill="#FFDD09"/>
<path d="M27.9861 29.6548V11.3452C27.9861 10.6023 27.5446 10 27 10H29.0139C29.5585 10 30 10.6023 30 11.3452V29.6548C30 30.3977 29.5585 31 29.0139 31H27C27.5446 31 27.9861 30.3977 27.9861 29.6548Z" fill="#FD9808"/>
<path d="M18.4313 32H13.5689C12.5352 32 11.6943 31.1591 11.6943 30.1254V6.4045C11.6943 6.11781 11.9266 5.88544 12.2134 5.88544C12.5001 5.88544 12.7325 6.11781 12.7325 6.4045V30.1255C12.7325 30.5867 13.1077 30.9619 13.5689 30.9619H18.4313C18.8925 30.9619 19.2677 30.5867 19.2677 30.1255V1.87456C19.2677 1.41337 18.8925 1.03813 18.4313 1.03813H13.5689C13.1077 1.03813 12.7325 1.41337 12.7325 1.87456V14.3282C12.7325 14.6149 12.5001 14.8473 12.2134 14.8473C11.9266 14.8473 11.6943 14.6149 11.6943 14.3282V1.87456C11.6943 0.840937 12.5352 0 13.5688 0H18.4313C19.4649 0 20.3058 0.840937 20.3058 1.87456V30.1254C20.3057 31.1591 19.4649 32 18.4313 32Z" fill="black"/>
<path d="M8.40784 32H3.54546C2.51177 32 1.6709 31.1591 1.6709 30.1255V21.7361C1.6709 21.4494 1.90321 21.217 2.18996 21.217C2.47671 21.217 2.70902 21.4494 2.70902 21.7361V30.1255C2.70902 30.5866 3.08427 30.9619 3.54546 30.9619H8.4079C8.86909 30.9619 9.24434 30.5866 9.24434 30.1255V17.3555C9.24434 16.8943 8.86909 16.519 8.4079 16.519H3.54546C3.08427 16.519 2.70902 16.8943 2.70902 17.3555V29.6599C2.70902 29.9466 2.47671 30.179 2.18996 30.179C1.90321 30.179 1.6709 29.9466 1.6709 29.6599V17.3555C1.6709 16.3219 2.51177 15.481 3.54546 15.481H8.4079C9.44159 15.481 10.2825 16.3219 10.2825 17.3555V30.1255C10.2824 31.1591 9.44152 32 8.40784 32Z" fill="black"/>
<path d="M28.4548 31.9999H23.5923C22.5586 31.9999 21.7178 31.159 21.7178 30.1253V11.6753C21.7178 10.6417 22.5586 9.80078 23.5923 9.80078H28.4548C29.4885 9.80078 30.3293 10.6417 30.3293 11.6753V23.8962C30.3293 24.1829 30.097 24.4153 29.8103 24.4153C29.5235 24.4153 29.2912 24.1829 29.2912 23.8962V11.6753C29.2912 11.2142 28.916 10.8389 28.4548 10.8389H23.5923C23.1311 10.8389 22.7559 11.2142 22.7559 11.6753V30.1253C22.7559 30.5865 23.1311 30.9618 23.5923 30.9618H28.4548C28.916 30.9618 29.2912 30.5865 29.2912 30.1253V15.9724C29.2912 15.6857 29.5235 15.4533 29.8103 15.4533C30.097 15.4533 30.3293 15.6857 30.3293 15.9724V30.1253C30.3293 31.159 29.4885 31.9999 28.4548 31.9999Z" fill="black"/>
</svg>
