<svg width="390" height="21" viewBox="0 0 390 21" fill="none" xmlns="http://www.w3.org/2000/svg">
<path d="M193.611 7.63952C193.548 7.57609 193.514 7.48615 193.522 7.39649L194.04 1.90689C194.071 1.57457 193.618 1.4472 193.472 1.74719L191.861 5.04755C191.764 5.24617 191.494 5.27518 191.361 5.09873C191.339 5.07053 191.318 5.04229 191.297 5.01403C191.111 4.76508 190.716 4.90982 190.768 5.216C190.842 5.65232 190.94 6.08504 191.06 6.51246C191.08 6.58434 191.074 6.66123 191.041 6.72835L189.856 9.15703C189.769 9.33589 189.535 9.3818 189.388 9.24785C189.187 9.06542 188.99 8.8821 188.796 8.69771C188.729 8.63416 188.696 8.54315 188.704 8.45123C188.803 7.3406 188.753 6.2244 188.557 5.12879C188.5 4.80695 188.044 4.83052 187.972 5.14946C187.848 5.70077 187.687 6.24462 187.492 6.77785C187.417 6.98289 187.153 7.03222 187.006 6.87097C186.476 6.29045 185.97 5.69056 185.49 5.07273C185.286 4.81068 184.875 5.00693 184.977 5.32262C185.36 6.50263 185.851 7.64969 186.446 8.75052C186.495 8.84098 186.496 8.95017 186.445 9.03992C186.289 9.3194 186.126 9.59754 185.949 9.87317C185.387 10.7426 184.757 11.5711 184.064 12.3515C183.995 12.4296 183.867 12.3666 183.877 12.2627V12.2627C184.033 11.111 184.051 9.94656 183.93 8.79117C183.812 7.63442 183.562 6.49305 183.185 5.38673C182.938 4.63167 182.605 3.90557 182.192 3.22089C182.027 2.94589 181.6 3.12533 181.619 3.4458C181.658 4.10587 181.614 4.7696 181.486 5.42288C181.291 6.53599 180.974 7.62672 180.538 8.67712C180.191 9.51202 179.781 10.3218 179.31 11.1001C179.183 11.3103 178.876 11.2767 178.801 11.0426C178.381 9.72136 178.218 8.34032 178.319 6.96686C178.341 6.66006 177.946 6.48819 177.766 6.73726C177.33 7.3385 176.938 7.96718 176.592 8.61898C176.474 8.8414 176.15 8.83966 176.047 8.60966C175.98 8.45873 175.915 8.30744 175.853 8.15571C175.811 8.05394 175.83 7.93773 175.9 7.85254C175.995 7.73574 176.088 7.61856 176.176 7.50075C176.591 6.97324 176.938 6.4041 177.213 5.80514C177.354 5.49656 176.95 5.30408 176.733 5.56451C176.424 5.93298 176.092 6.2833 175.737 6.6133C175.58 6.75897 175.329 6.68896 175.268 6.48391C175.057 5.77535 174.894 5.055 174.78 4.3273C174.733 4.02207 174.312 3.95858 174.203 4.24754C173.689 5.60624 173.348 7.01888 173.187 8.45588C173.177 8.54577 173.127 8.62685 173.051 8.67579C172.558 8.99328 172.04 9.30018 171.5 9.59617C171.357 9.67475 171.177 9.62228 171.098 9.47933C170.959 9.22815 170.822 8.97647 170.69 8.72407C170.122 7.63851 169.609 6.54337 169.163 5.43995C168.863 4.72337 168.608 3.99128 168.398 3.24742C168.313 2.94773 167.885 2.94131 167.818 3.2453C167.653 3.98826 167.536 4.74021 167.466 5.49714C167.351 6.63725 167.301 7.78231 167.315 8.92748C167.318 9.1569 167.324 9.38648 167.333 9.6162C167.34 9.81807 167.12 9.94646 166.95 9.83683V9.83683C166.874 9.78768 166.831 9.70148 166.837 9.6111L166.999 7.07426C167.019 6.76765 166.62 6.63318 166.45 6.8892L165.272 8.66448C165.269 8.67003 165.261 8.67136 165.256 8.66739V8.66739C165.252 8.66493 165.251 8.66089 165.251 8.65678C165.496 6.42524 165.072 4.18466 164.046 2.18393C163.895 1.88838 163.449 2.06135 163.477 2.39237C163.583 3.6907 163.44 4.99993 163.049 6.25542C162.985 6.46211 162.727 6.52335 162.574 6.37031C162.346 6.14188 162.124 5.90765 161.909 5.66791C161.686 5.41876 161.29 5.63532 161.426 5.94106C161.69 6.53431 162.002 7.10816 162.36 7.65735C162.417 7.74518 162.426 7.85638 162.381 7.95097C162.209 8.31024 162.02 8.66666 161.811 9.01913C161.744 9.13063 161.676 9.24175 161.606 9.35251C161.454 9.59173 161.092 9.49065 161.066 9.20838C160.917 7.53751 160.599 5.8841 160.117 4.27055C160.029 3.97513 159.607 4.00201 159.539 4.30263C159.121 6.14017 158.505 7.93331 157.7 9.65385C157.653 9.7549 157.514 9.77756 157.441 9.6937V9.6937C156.329 8.49635 155.514 7.08678 155.047 5.56748C154.954 5.26597 154.525 5.25999 154.478 5.57195C154.253 7.0721 154.427 8.60859 154.994 10.04V10.04C155.084 10.2734 154.747 10.5141 154.568 10.3399L154.172 9.95537C154.113 9.89806 154.08 9.81898 154.081 9.7367C154.089 7.6923 153.737 5.66373 153.043 3.73321C152.934 3.43037 152.491 3.51041 152.461 3.8309C152.36 4.93189 152.15 6.02216 151.833 7.08727C151.769 7.29965 151.504 7.3652 151.345 7.21084L149.764 5.67595C149.735 5.64745 149.712 5.61322 149.696 5.57549C149.579 5.29827 149.452 5.02542 149.314 4.75752C149.166 4.4708 148.729 4.62214 148.734 4.94468C148.754 6.31687 148.462 7.68106 147.873 8.94342C147.78 9.14243 147.512 9.16414 147.385 8.9845C146.913 8.31201 146.503 7.60245 146.161 6.864C146.025 6.56932 145.586 6.64104 145.599 6.96547C145.659 8.37277 145.988 9.76223 146.575 11.0656C146.583 11.0838 146.581 11.1049 146.569 11.1209V11.1209C146.549 11.1472 146.511 11.1506 146.487 11.1283C146.416 11.0618 146.344 10.9954 146.275 10.9278C145.192 9.89954 144.348 8.66962 143.798 7.317C143.777 7.26455 143.703 7.26243 143.68 7.31402V7.31402C143.652 7.3752 143.56 7.36041 143.553 7.29367C143.377 5.67119 143.018 4.07216 142.484 2.52351C142.378 2.21687 141.93 2.29168 141.902 2.61487C141.722 4.70426 141.235 6.75951 140.456 8.72158C140.332 9.03403 139.858 8.91377 139.859 8.5776C139.864 7.54358 139.77 6.5108 139.579 5.49183C139.523 5.19438 139.112 5.1769 139.007 5.46071C138.62 6.50534 138.142 7.51827 137.579 8.4891C137.452 8.70619 137.137 8.67151 137.065 8.43102C136.747 7.3714 136.578 6.27821 136.56 5.17924C136.555 4.85822 136.12 4.73377 135.984 5.02484C135.538 5.9836 135.205 6.98621 134.992 8.01436C134.93 8.3173 134.485 8.37181 134.368 8.08565L133.798 6.69791C133.7 6.46004 133.368 6.44733 133.252 6.67704L131.409 10.3397C131.332 10.4923 130.977 10.3618 131.004 10.193V10.193C131.24 8.64179 131.13 7.06655 130.687 5.56683C130.596 5.25508 130.148 5.33034 130.107 5.65286C129.917 7.17578 129.406 8.65261 128.6 9.99494C128.596 10.0009 128.593 10.0069 128.589 10.0128C128.558 10.0641 128.484 10.0672 128.447 10.0197V10.0197C128.43 9.99754 128.425 9.96839 128.434 9.94189C128.782 8.88686 128.958 7.78793 128.956 6.68281C128.932 5.01376 128.521 3.3741 127.755 1.8783C127.62 1.61363 127.227 1.71106 127.192 2.00629C127.022 3.42472 126.561 4.80032 125.831 6.05476C125.728 6.23096 125.483 6.24662 125.35 6.09247C125.229 5.95285 125.106 5.8149 124.981 5.67868C124.772 5.4513 124.4 5.66642 124.462 5.96861C124.566 6.46492 124.641 6.96638 124.687 7.47083C124.692 7.51138 124.695 7.55202 124.699 7.59266C124.707 7.67026 124.685 7.74808 124.636 7.80915C124.502 7.9785 124.362 8.14637 124.218 8.31281C124.043 8.51495 123.713 8.39292 123.693 8.1262C123.588 6.76036 123.297 5.41402 122.827 4.12057C122.716 3.81394 122.265 3.90787 122.243 4.23339C122.216 4.65462 122.169 5.07456 122.103 5.49205C122.053 5.80551 121.612 5.81101 121.517 5.5083C121.05 4.02431 120.331 2.62237 119.388 1.35728C119.189 1.09069 118.766 1.33246 118.843 1.65603C119.292 3.5561 119.203 5.54463 118.57 7.41742C118.486 7.6716 118.393 7.92313 118.291 8.17165C118.187 8.42875 117.818 8.39999 117.726 8.1383C117.446 7.34832 117.071 6.59231 116.608 5.88512C116.426 5.60802 115.99 5.83182 116.039 6.15933C116.153 6.92424 116.154 7.70088 116.039 8.46616C115.992 8.78293 115.569 8.74924 115.511 8.4343V8.4343C115.459 8.15153 115.073 8.12752 114.96 8.39203C114.467 9.54717 113.831 10.6438 113.063 11.6586C112.979 11.7703 112.827 11.8066 112.701 11.7449C112.661 11.7249 112.62 11.7047 112.579 11.6843C112.444 11.6162 112.384 11.4561 112.438 11.3143L114.924 4.7973C115.037 4.50056 114.672 4.25439 114.44 4.47065L109.539 9.0268C109.417 9.14064 109.224 9.13289 109.119 9.00319C108.621 8.3912 108.262 7.68901 108.064 6.94047C108.034 6.82607 107.882 6.79599 107.819 6.89561V6.89561C107.744 7.01127 107.557 6.9655 107.553 6.82816C107.517 5.41659 107.634 4.00604 107.9 2.61832C107.962 2.2996 107.546 2.1004 107.357 2.3638C105.636 4.75344 104.335 7.3924 103.505 10.1795C103.501 10.1919 103.483 10.1927 103.478 10.1805V10.1805C102.95 8.67185 102.749 7.08437 102.878 5.51142C102.906 5.17683 102.446 5.00582 102.297 5.30632C102.041 5.81987 101.817 6.3474 101.626 6.88621C101.536 7.14098 101.182 7.17137 101.068 6.92619C100.578 5.86953 100.202 4.7693 99.945 3.64211C99.8785 3.35025 99.4739 3.3072 99.3719 3.58861C98.9946 4.62909 98.7253 5.70186 98.5679 6.79176C98.5271 7.07453 98.1477 7.16516 97.9931 6.92489L96.8401 5.13293C96.679 4.8825 96.2909 4.99446 96.2879 5.29224L96.2355 10.4999C96.2336 10.6822 96.0264 10.787 95.8769 10.6826V10.6826C95.8314 10.6507 95.7987 10.603 95.7861 10.5489L94.7966 6.30795C94.7239 5.99628 94.2789 5.99985 94.2112 6.31264L93.5929 9.16894C93.5851 9.20518 93.5445 9.22349 93.5122 9.20519V9.20519C93.4628 9.17714 93.4086 9.23339 93.4376 9.28227C93.4636 9.32612 93.4893 9.36999 93.5147 9.41385C93.5265 9.43424 93.5303 9.4583 93.5253 9.48133L93.2193 10.895C93.167 11.1364 92.8626 11.2141 92.7041 11.0247C92.4844 10.7622 92.2705 10.4977 92.0624 10.2312C91.9913 10.1401 91.98 10.0163 92.0308 9.91247C92.1568 9.65525 92.2731 9.39758 92.3786 9.13963C93.1488 7.31371 93.3883 5.33404 93.0835 3.40355C93.0353 3.09815 92.6151 3.08943 92.5135 3.38146C92.0405 4.74142 91.3358 6.0214 90.4258 7.17039C90.2984 7.33127 90.0513 7.31192 89.948 7.13458C89.8866 7.02911 89.8261 6.92347 89.7666 6.81767C89.3986 6.19617 89.0943 5.54379 88.8572 4.86945C88.7585 4.58859 88.3607 4.58289 88.298 4.87394C88.2946 4.88985 88.2912 4.90577 88.2879 4.92169C88.2324 5.18765 87.8774 5.28088 87.7142 5.06366L86.4529 3.38493C86.2539 3.12001 85.8355 3.32582 85.924 3.64518L86.8317 6.92397C86.8552 7.00916 86.732 7.05979 86.6867 6.9839V6.9839C86.342 6.38139 85.9251 5.82023 85.4452 5.31105C85.2212 5.07338 84.8124 5.37436 84.8852 5.69272C84.9902 6.15169 85.0303 6.62397 85.0025 7.09716C84.9965 7.43596 84.9721 7.77573 84.9407 8.11764C84.9179 8.36585 84.6195 8.47446 84.4459 8.29559C84.1626 8.00373 83.8914 7.70159 83.6327 7.38983C82.5313 6.11095 81.752 4.61747 81.3476 3.0222C81.2758 2.73899 80.8864 2.69014 80.7834 2.96355C80.2073 4.49254 80.0439 6.13844 80.3156 7.75088V7.75088C80.3384 7.88417 80.1614 7.96688 80.0783 7.86019L77.9972 5.18759C77.7951 4.92804 77.3829 5.13602 77.4716 5.4528L78.1576 7.90236C78.2476 8.22393 77.8239 8.42992 77.6266 8.16049L72.9967 1.83805C72.8051 1.57639 72.3923 1.76269 72.4617 2.0795L73.9278 8.77223L73.7595 8.28952C73.6846 8.07491 73.3793 8.08028 73.312 8.29739V8.29739C73.2627 8.45653 73.0684 8.51558 72.9398 8.40967C72.582 8.115 72.2334 7.81717 71.8967 7.51542C71.8475 7.47128 71.8144 7.41194 71.8025 7.34689L71.5862 6.16476C71.5326 5.87193 71.1216 5.84907 71.0359 6.13416V6.13416C70.9747 6.3376 70.72 6.40367 70.5703 6.25298C69.7635 5.4411 69.0184 4.57677 68.3405 3.66648C68.1996 3.4772 67.9047 3.60966 67.9701 3.83643C68.0267 4.03284 68.0873 4.2282 68.1519 4.42239C68.2069 4.58778 67.9094 4.76151 67.7918 4.63286V4.63286C67.6951 4.52709 67.5185 4.61343 67.5337 4.75593C67.6798 6.12811 67.4089 7.51483 66.7476 8.7517V8.7517C66.708 8.82876 66.5913 8.81484 66.5652 8.73225C66.418 8.26665 66.2428 7.80955 66.0404 7.36315C65.9249 7.10841 65.5557 7.15482 65.4788 7.42373C65.2504 8.22244 64.9375 8.99774 64.5448 9.73791C64.4895 9.84207 64.3376 9.7933 64.3455 9.67565V9.67565C64.4463 8.12921 64.2623 6.58144 63.8052 5.10038C63.7105 4.79368 63.2685 4.86034 63.2244 5.17829C63.0159 6.68305 62.5416 8.1475 61.8181 9.50975V9.50975C61.7555 9.6306 61.5881 9.64842 61.4975 9.54682C61.0775 9.07579 60.6795 8.59828 60.3035 8.11429C60.2357 8.02709 60.2222 7.90955 60.2676 7.80889L62.6199 2.5927C62.7593 2.28373 62.3596 2.01693 62.1277 2.26412L59.0159 5.58112C58.8804 5.7256 58.6445 5.70137 58.5441 5.53059C58.423 5.32463 58.3057 5.11785 58.1924 4.91024C58.0531 4.65518 57.6689 4.71576 57.6354 5.00443C57.5567 5.68233 57.5201 6.36423 57.5258 7.04663C57.5265 7.12451 57.4975 7.1998 57.4442 7.2566L56.1685 8.61646C56.0051 8.79062 55.7137 8.71334 55.6583 8.48103C55.533 7.95511 55.4086 7.42877 55.2852 6.90202L54.3368 2.94716C54.1186 2.07976 53.8954 1.21178 53.6459 0.346322C53.5562 0.0352257 53.1048 0.0770113 53.059 0.397518C52.9366 1.25287 52.7889 2.10672 52.6365 2.96091L52.1335 5.60681C52.0786 5.89551 51.6754 5.94531 51.5419 5.68352C51.423 5.45044 51.2991 5.21975 51.1701 4.99159C50.9987 4.6884 50.5192 4.91208 50.587 5.25371C50.825 6.45473 50.8985 7.68151 50.8042 8.90362C50.7821 9.18947 50.4147 9.26128 50.2744 9.01125L49.1623 7.02891C49.0205 6.77621 48.6384 6.8514 48.6029 7.13897L48.5297 7.73257C48.4918 8.03984 48.0855 8.08911 47.9877 7.79537C47.4912 6.30414 47.1897 4.7613 47.0899 3.20129C47.0697 2.88512 46.6389 2.79105 46.5143 3.08231C45.6996 4.98588 45.1931 6.99699 45.014 9.04793C44.9127 10.2913 44.9412 11.5408 45.0987 12.7784C45.1223 12.9641 44.9752 13.1288 44.7881 13.1212C44.7294 13.1188 44.6706 13.1164 44.6119 13.1139C44.4282 13.1061 44.2949 12.9364 44.3255 12.7551C44.7357 10.3267 44.4433 7.84482 43.4886 5.56976C43.3645 5.2738 42.9272 5.38244 42.911 5.70299C42.8697 6.52283 42.7444 7.33804 42.5364 8.13712C42.5468 8.0509 42.5587 7.96458 42.5669 7.87839C42.7409 5.8084 42.2899 3.74325 41.2797 1.91782C41.126 1.64015 40.7083 1.79354 40.7183 2.11074C40.779 4.03728 40.26 5.95034 39.2077 7.62233V7.62233C39.0826 7.83208 38.7707 7.76626 38.73 7.52542L38.3622 5.34968C38.3108 5.04561 37.8892 5.00764 37.7843 5.29765L37.3522 6.49246C37.2721 6.71402 36.9803 6.76036 36.84 6.57103C36.0138 5.45551 35.3151 4.2613 34.755 3.00848C34.6256 2.71919 34.1968 2.78279 34.1895 3.0996C34.1417 5.16461 34.5277 7.22255 35.3303 9.1531C35.4981 9.56623 35.6848 9.97858 35.8905 10.3901C35.9097 10.4287 35.9125 10.4734 35.8978 10.514V10.514C35.8481 10.6514 35.6525 10.6524 35.5991 10.5164C35.1103 9.27343 34.4909 8.08019 33.7504 6.95452C33.593 6.71535 33.223 6.82359 33.1971 7.10871C33.1549 7.57457 33.0905 8.0383 33.004 8.49849C32.9436 8.82016 32.4874 8.79655 32.4198 8.47631C32.165 7.27007 31.7669 6.09455 31.2329 4.97218C31.096 4.6844 30.6656 4.8038 30.6595 5.12242C30.6326 6.52902 30.3919 7.92626 29.9434 9.271C29.8766 9.47143 29.6272 9.53416 29.4705 9.39244C28.8839 8.86189 28.3191 8.32407 27.776 7.77901C27.7134 7.71611 27.6821 7.62854 27.6904 7.54013L28.0718 3.47029C28.1007 3.1627 27.7019 3.01761 27.5263 3.27181L26.07 5.38038C25.9587 5.54155 25.7253 5.55457 25.5984 5.40531C24.5423 4.16249 23.5815 2.85058 22.7231 1.4796C22.5541 1.20968 22.1384 1.34295 22.178 1.65895C22.4 3.43418 22.8277 5.18114 23.4533 6.86842C23.5632 7.16496 23.1967 7.43358 22.9542 7.23066L19.8857 4.66375C19.6474 4.46447 19.3005 4.71415 19.4139 5.00333L21.9141 11.3825C21.9165 11.3886 21.9157 11.3955 21.9119 11.4009V11.4009C21.9054 11.4104 21.8921 11.4123 21.8832 11.405C20.2466 10.0617 18.9771 8.36844 18.179 6.46899C18.1249 6.3404 17.9392 6.35059 17.9077 6.48646V6.48646C17.8729 6.63639 17.648 6.64992 17.6023 6.50295L16.2232 2.06491C16.1324 1.7727 15.7137 1.788 15.6445 2.08605L14.1337 8.58991C14.078 8.82974 13.7742 8.90307 13.6199 8.71119C12.7186 7.59026 11.9433 6.38326 11.3069 5.1097C11.2742 5.04436 11.2796 4.96654 11.3205 4.90603C11.368 4.83577 11.4156 4.76553 11.4634 4.6953C11.569 4.54007 11.376 4.35712 11.2279 4.47255V4.47255C11.1442 4.53778 11.0218 4.50742 10.9792 4.41025C10.911 4.25474 10.8454 4.09824 10.7824 3.94081C10.6654 3.64831 10.2349 3.68794 10.2093 4.00193C10.1783 4.38323 10.1634 4.7657 10.1649 5.14842C10.1653 5.24168 10.1234 5.33025 10.0503 5.38822C9.47256 5.84665 8.90299 6.3081 8.3416 6.77255C8.19249 6.89592 7.96701 6.84875 7.88661 6.67272C7.72151 6.31125 7.57671 5.94199 7.45276 5.56647C7.35801 5.2794 6.94716 5.26888 6.87895 5.56338C6.68898 6.38356 6.60333 7.22332 6.62465 8.0648C6.62697 8.15654 6.5887 8.24481 6.51928 8.30483C6.37964 8.42557 6.24145 8.54681 6.10343 8.66813C5.9494 8.80352 5.7083 8.74744 5.63376 8.55639C4.79448 6.40541 4.37086 4.1323 4.38015 1.8451C4.38146 1.52359 3.94699 1.40265 3.80813 1.69263C2.86363 3.66492 2.24476 5.76513 1.97573 7.92006C1.92787 8.32235 1.89341 8.72561 1.87237 9.12984C1.85902 9.38615 1.55531 9.5166 1.37271 9.33622C0.468438 8.44295 -0.286898 7.42568 -0.867834 6.31939C-1.0003 6.06712 -1.37431 6.10515 -1.41577 6.38704C-1.47803 6.81034 -1.50587 7.23762 -1.49901 7.66513C-1.49487 7.92278 -1.78914 8.0908 -1.99905 7.94133L-2.42557 7.63764C-2.47022 7.60584 -2.5054 7.56245 -2.52673 7.51196C-2.92491 6.56974 -3.18873 5.58382 -3.31296 4.58007C-3.35281 4.25808 -3.80135 4.18103 -3.89631 4.49127C-4.36849 6.03384 -4.50074 7.6568 -4.27839 9.25887V9.25887C-4.23968 9.52529 -4.6129 9.69318 -4.76953 9.47422C-6.1212 7.58466 -7.37106 5.63195 -8.51436 3.62354C-8.67204 3.34655 -9.09472 3.4684 -9.07083 3.78622C-8.92296 5.75309 -8.65241 7.71007 -8.26057 9.64698C-8.19963 9.94822 -8.56864 10.1365 -8.7646 9.89971C-9.69923 8.77044 -10.5088 7.55385 -11.1807 6.26904C-11.3271 5.98915 -11.7468 6.07911 -11.7342 6.39471C-11.69 7.50168 -11.5177 8.60204 -11.2196 9.67603C-11.2735 9.53109 -11.3207 9.38413 -11.3613 9.23556C-11.4269 8.99526 -11.734 8.90225 -11.8912 9.09546C-12.422 9.74761 -12.8313 10.4808 -13.1012 11.2635C-13.1701 11.4633 -13.4146 11.547 -13.5794 11.4147C-13.6987 11.319 -13.8143 11.2218 -13.9249 11.1225C-14.8981 10.2514 -15.5705 9.26387 -15.8233 8.21542C-15.8884 7.94532 -16.2482 7.84194 -16.3852 8.08367C-16.6162 8.49147 -16.7857 8.92923 -16.8876 9.38429C-17.0474 10.0983 -17.0367 10.8369 -16.8562 11.5465C-16.4917 12.9835 -15.4363 14.4236 -13.7797 15.7338C-13.7787 15.7346 -13.7774 15.7348 -13.7762 15.7343V15.7343C-13.7739 15.7333 -13.7713 15.735 -13.7713 15.7376V19.7C-13.7713 19.8657 -13.637 20 -13.4713 20H198.7C198.866 20 199 19.8657 199 19.7V12.0852C199 11.9753 198.938 11.8732 198.842 11.8203C195.89 10.2003 195.636 9.64857 193.611 7.63952ZM193.099 11.8826C193.126 11.6011 193.496 11.5061 193.662 11.7354C193.945 12.1281 194.242 12.5121 194.552 12.8866C194.637 12.9888 194.583 13.1448 194.453 13.1702V13.1702C194.407 13.1792 194.359 13.1693 194.321 13.1427C193.942 12.8812 193.568 12.6176 193.202 12.3509C193.117 12.2888 193.071 12.1863 193.081 12.0814L193.099 11.8826ZM187.92 11.9091C187.993 11.7077 188.267 11.6671 188.393 11.8404V11.8404C188.449 11.918 188.459 12.0212 188.417 12.1075V12.1075C188.241 12.4678 188.072 12.816 187.881 13.14C187.76 13.3505 187.625 13.5534 187.476 13.7474C187.447 13.7857 187.402 13.8081 187.353 13.8092V13.8092C187.231 13.8118 187.151 13.6822 187.205 13.5726C187.476 13.0308 187.714 12.4754 187.92 11.9091ZM172.86 10.6984V10.6984C172.956 10.627 173.092 10.6915 173.097 10.811C173.108 11.1247 173.129 11.438 173.159 11.7505C173.189 12.0692 172.763 12.2377 172.588 11.9698C172.582 11.9604 172.576 11.951 172.57 11.9416C172.468 11.7846 172.368 11.6271 172.269 11.4692C172.184 11.3336 172.222 11.1554 172.353 11.0636C172.525 10.9428 172.695 10.8213 172.86 10.6984ZM167.765 13.733C167.768 13.7466 167.757 13.7592 167.743 13.7592L167.741 13.7592C167.717 13.7591 167.711 13.727 167.733 13.717V13.717C167.746 13.7109 167.762 13.7188 167.765 13.733V13.733ZM150.435 10.0585C150.438 10.0219 150.441 9.98537 150.444 9.94882C150.453 9.81182 150.667 9.77947 150.71 9.90994V9.90994C150.719 9.93936 150.718 9.97169 150.705 9.99979C150.704 10.0023 150.703 10.0047 150.701 10.0072C150.683 10.0457 150.664 10.0842 150.644 10.1226C150.592 10.2275 150.426 10.1755 150.435 10.0585V10.0585ZM143.522 13.4889C143.553 13.5649 143.498 13.6502 143.416 13.6499C143.409 13.6498 143.402 13.6498 143.394 13.6498C143.322 13.6494 143.269 13.5829 143.283 13.5122V13.5122C143.306 13.3964 143.477 13.3795 143.522 13.4889V13.4889ZM133.59 13.5367C133.62 13.537 133.635 13.5737 133.613 13.5954V13.5954C133.607 13.602 133.598 13.6058 133.588 13.6057L131.346 13.5956C131.334 13.5956 131.323 13.5906 131.315 13.5821V13.5821C131.291 13.5555 131.31 13.5135 131.346 13.5139L133.59 13.5367ZM70.2507 8.66496C70.2611 8.68085 70.2642 8.70074 70.2587 8.71895L70.2214 8.84305C70.209 8.88418 70.1538 8.88107 70.1439 8.83929V8.83929C70.1348 8.80161 70.1254 8.76397 70.1157 8.72638C70.0969 8.6531 70.2091 8.60174 70.2507 8.66496V8.66496ZM58.6133 12.8552C58.6883 13.0541 58.5422 13.2684 58.3296 13.2675L58.2692 13.2672C58.052 13.2662 57.9078 13.0419 57.9971 12.8439L58.0205 12.7918C58.1336 12.5412 58.5027 12.5598 58.5991 12.8172C58.6038 12.8299 58.6086 12.8425 58.6133 12.8552ZM9.78892 7.27175C9.93783 7.03087 10.312 7.11436 10.3587 7.39368C10.5255 8.39221 10.7894 9.37362 11.1467 10.3255C11.2627 10.6344 10.8781 10.9063 10.6511 10.6668C10.376 10.3767 10.1105 10.0785 9.85499 9.77259C9.5815 9.4424 9.32756 9.10704 9.09051 8.76769C9.02418 8.67275 9.02005 8.54788 9.07884 8.44809C9.3101 8.05554 9.54679 7.66343 9.78892 7.27175ZM7.24828 11.7833C7.28197 11.7174 7.37827 11.7228 7.40544 11.7916C7.55818 12.1787 7.72978 12.559 7.91971 12.9313C7.68481 12.5785 7.46303 12.223 7.25089 11.8654C7.23599 11.8403 7.23499 11.8093 7.24828 11.7833V11.7833Z" fill="black"/>
<path d="M402.611 7.63952C402.548 7.57609 402.514 7.48615 402.522 7.39649L403.04 1.9069C403.071 1.57458 402.618 1.44721 402.472 1.7472L400.861 5.04755C400.765 5.24617 400.494 5.27518 400.361 5.09873C400.339 5.07052 400.318 5.04229 400.297 5.01403C400.111 4.76508 399.716 4.90982 399.768 5.216C399.842 5.65232 399.939 6.08504 400.06 6.51246C400.08 6.58434 400.074 6.66123 400.041 6.72835L398.856 9.15703C398.769 9.33589 398.535 9.3818 398.388 9.24785C398.187 9.06542 397.99 8.8821 397.796 8.69771C397.729 8.63416 397.696 8.54315 397.704 8.45123C397.803 7.3406 397.753 6.2244 397.557 5.12879C397.5 4.80695 397.044 4.83052 396.972 5.14946C396.848 5.70077 396.687 6.24462 396.492 6.77785C396.417 6.98289 396.153 7.03222 396.006 6.87097C395.476 6.29045 394.97 5.69056 394.49 5.07273C394.286 4.81068 393.875 5.00693 393.977 5.32262C394.36 6.50263 394.851 7.64969 395.446 8.75052C395.495 8.84098 395.496 8.95017 395.445 9.03992C395.289 9.3194 395.126 9.59754 394.949 9.87317C394.387 10.7426 393.757 11.571 393.064 12.3515C392.995 12.4296 392.867 12.3666 392.877 12.2627V12.2627C393.033 11.111 393.051 9.94656 392.93 8.79117C392.812 7.63442 392.562 6.49305 392.185 5.38673C391.938 4.63167 391.605 3.90557 391.192 3.22089C391.027 2.94589 390.6 3.12533 390.619 3.4458C390.658 4.10587 390.614 4.7696 390.486 5.42288C390.291 6.53599 389.974 7.62672 389.538 8.67712C389.191 9.51202 388.781 10.3218 388.31 11.1001C388.183 11.3103 387.876 11.2767 387.801 11.0426C387.381 9.72136 387.218 8.34032 387.319 6.96686C387.341 6.66005 386.946 6.48819 386.766 6.73725C386.33 7.33849 385.938 7.96718 385.592 8.61898C385.474 8.8414 385.15 8.83966 385.047 8.60966C384.98 8.45873 384.915 8.30744 384.853 8.15571C384.811 8.05394 384.83 7.93773 384.9 7.85254C384.995 7.73574 385.088 7.61856 385.176 7.50075C385.591 6.97324 385.938 6.4041 386.213 5.80514C386.354 5.49656 385.95 5.30409 385.733 5.56451C385.424 5.93298 385.092 6.2833 384.737 6.6133C384.58 6.75897 384.329 6.68896 384.268 6.48391C384.057 5.77535 383.894 5.055 383.78 4.3273C383.733 4.02207 383.312 3.95858 383.203 4.24754C382.689 5.60624 382.348 7.01888 382.187 8.45588C382.177 8.54577 382.127 8.62685 382.051 8.67579C381.558 8.99328 381.04 9.30018 380.5 9.59617C380.357 9.67475 380.177 9.62228 380.098 9.47933C379.959 9.22815 379.822 8.97647 379.69 8.72407C379.122 7.63851 378.609 6.54337 378.163 5.43995C377.863 4.72337 377.608 3.99128 377.398 3.24742C377.313 2.94773 376.885 2.94131 376.818 3.2453C376.653 3.98826 376.536 4.74021 376.466 5.49714C376.351 6.63725 376.301 7.78231 376.315 8.92748C376.318 9.1569 376.324 9.38648 376.333 9.6162C376.34 9.81807 376.12 9.94646 375.95 9.83683V9.83683C375.874 9.78768 375.831 9.70148 375.837 9.6111L376 7.07427C376.019 6.76766 375.62 6.63318 375.45 6.88921L374.272 8.66448C374.269 8.67003 374.261 8.67136 374.256 8.6674V8.6674C374.252 8.66493 374.251 8.66088 374.251 8.65676C374.496 6.42523 374.072 4.18465 373.046 2.18393C372.895 1.88838 372.449 2.06135 372.477 2.39237C372.583 3.6907 372.44 4.99993 372.049 6.25542C371.985 6.46211 371.727 6.52335 371.574 6.37031C371.346 6.14188 371.124 5.90765 370.909 5.66791C370.686 5.41876 370.29 5.63532 370.426 5.94105C370.69 6.53431 371.002 7.10816 371.36 7.65735C371.417 7.74518 371.426 7.85638 371.381 7.95097C371.209 8.31024 371.02 8.66666 370.811 9.01913C370.745 9.13063 370.676 9.24175 370.606 9.35251C370.454 9.59173 370.092 9.49065 370.066 9.20838C369.917 7.53751 369.599 5.8841 369.117 4.27055C369.029 3.97513 368.607 4.00201 368.539 4.30263C368.121 6.14017 367.505 7.93331 366.7 9.65385C366.653 9.7549 366.514 9.77756 366.441 9.6937V9.6937C365.329 8.49635 364.514 7.08678 364.047 5.56748C363.954 5.26597 363.525 5.25999 363.478 5.57195C363.253 7.0721 363.427 8.60859 363.994 10.04V10.04C364.084 10.2734 363.747 10.5141 363.568 10.3399L363.172 9.95537C363.113 9.89805 363.08 9.81898 363.081 9.7367C363.089 7.69231 362.737 5.66373 362.043 3.73321C361.934 3.43037 361.491 3.51041 361.461 3.8309C361.36 4.93189 361.15 6.02216 360.833 7.08727C360.769 7.29965 360.504 7.3652 360.345 7.21084L358.764 5.67595C358.735 5.64745 358.712 5.61322 358.696 5.57549C358.579 5.29827 358.452 5.02542 358.314 4.75752C358.166 4.4708 357.729 4.62214 357.734 4.94468C357.754 6.31687 357.462 7.68106 356.873 8.94342C356.78 9.14243 356.512 9.16414 356.385 8.9845C355.913 8.31201 355.503 7.60245 355.161 6.86399C355.025 6.56932 354.586 6.64104 354.599 6.96547C354.659 8.37277 354.988 9.76223 355.575 11.0656C355.583 11.0838 355.581 11.1049 355.569 11.1209V11.1209C355.549 11.1472 355.511 11.1506 355.487 11.1283C355.416 11.0618 355.344 10.9954 355.275 10.9278C354.192 9.89954 353.348 8.66962 352.798 7.317C352.777 7.26456 352.703 7.26243 352.68 7.31402V7.31402C352.652 7.3752 352.56 7.36041 352.553 7.29366C352.377 5.67119 352.018 4.07216 351.484 2.52351C351.378 2.21687 350.93 2.29168 350.902 2.61487C350.722 4.70426 350.235 6.75951 349.456 8.72158C349.332 9.03403 348.858 8.91377 348.859 8.57759C348.864 7.54358 348.77 6.5108 348.579 5.49183C348.523 5.19438 348.112 5.1769 348.007 5.46071C347.62 6.50534 347.142 7.51827 346.579 8.4891C346.452 8.70619 346.137 8.67151 346.065 8.43102C345.747 7.3714 345.578 6.27821 345.56 5.17924C345.555 4.85822 345.12 4.73377 344.984 5.02484C344.538 5.9836 344.205 6.98621 343.992 8.01436C343.93 8.3173 343.485 8.37181 343.368 8.08565L342.798 6.69791C342.7 6.46004 342.368 6.44733 342.252 6.67704L340.409 10.3397C340.332 10.4923 339.977 10.3618 340.004 10.193V10.193C340.24 8.64179 340.13 7.06655 339.687 5.56683C339.596 5.25508 339.148 5.33034 339.107 5.65286C338.917 7.17578 338.406 8.65261 337.6 9.99494C337.596 10.0009 337.593 10.0069 337.589 10.0129C337.558 10.0641 337.484 10.0673 337.447 10.0197V10.0197C337.43 9.99754 337.425 9.96839 337.434 9.94189C337.782 8.88686 337.958 7.78794 337.956 6.68281C337.932 5.01376 337.521 3.3741 336.755 1.8783C336.62 1.61363 336.227 1.71106 336.192 2.00629C336.022 3.42472 335.561 4.80032 334.831 6.05476C334.728 6.23096 334.483 6.24662 334.35 6.09247C334.229 5.95284 334.106 5.8149 333.981 5.67867C333.772 5.45129 333.399 5.66642 333.462 5.96861C333.566 6.46492 333.641 6.96638 333.687 7.47083C333.692 7.51138 333.695 7.55202 333.699 7.59266C333.707 7.67026 333.685 7.74808 333.636 7.80915C333.502 7.9785 333.362 8.14637 333.218 8.31282C333.043 8.51496 332.713 8.39292 332.693 8.1262C332.588 6.76036 332.297 5.41402 331.827 4.12057C331.716 3.81394 331.265 3.90787 331.243 4.23339C331.216 4.65462 331.169 5.07456 331.103 5.49205C331.053 5.80551 330.612 5.81101 330.517 5.5083C330.05 4.02431 329.331 2.62237 328.388 1.35728C328.189 1.09069 327.766 1.33246 327.843 1.65603C328.292 3.5561 328.203 5.54463 327.57 7.41742C327.486 7.6716 327.393 7.92313 327.291 8.17165C327.187 8.42875 326.818 8.39999 326.726 8.1383C326.446 7.34832 326.071 6.59231 325.608 5.88512C325.426 5.60802 324.99 5.83182 325.039 6.15933C325.154 6.92424 325.154 7.70088 325.039 8.46616C324.992 8.78293 324.569 8.74924 324.511 8.4343V8.4343C324.459 8.15153 324.073 8.12752 323.96 8.39203C323.467 9.54717 322.831 10.6438 322.063 11.6586C321.979 11.7703 321.827 11.8066 321.701 11.7449C321.661 11.7249 321.62 11.7047 321.579 11.6843C321.444 11.6162 321.384 11.4561 321.438 11.3143L323.924 4.7973C324.037 4.50056 323.672 4.25439 323.44 4.47065L318.539 9.0268C318.417 9.14064 318.224 9.13289 318.119 9.00319C317.621 8.3912 317.262 7.68901 317.064 6.94047C317.034 6.82607 316.882 6.79599 316.819 6.89561V6.89561C316.744 7.01127 316.557 6.9655 316.553 6.82815C316.517 5.41658 316.634 4.00604 316.9 2.61832C316.962 2.2996 316.546 2.1004 316.357 2.3638C314.636 4.75345 313.335 7.3924 312.505 10.1795C312.501 10.1919 312.483 10.1927 312.478 10.1805V10.1805C311.95 8.67185 311.749 7.08437 311.878 5.51142C311.906 5.17684 311.446 5.00582 311.297 5.30632C311.041 5.81987 310.817 6.3474 310.626 6.88621C310.536 7.14098 310.182 7.17137 310.068 6.92619C309.578 5.86953 309.202 4.7693 308.945 3.64211C308.879 3.35025 308.474 3.3072 308.372 3.58861C307.995 4.62909 307.725 5.70186 307.568 6.79176C307.527 7.07453 307.148 7.16517 306.993 6.9249L305.84 5.13293C305.679 4.8825 305.291 4.99446 305.288 5.29223L305.236 10.4998C305.234 10.6822 305.026 10.787 304.877 10.6826V10.6826C304.831 10.6507 304.799 10.603 304.786 10.5489L303.797 6.30795C303.724 5.99628 303.279 5.99985 303.211 6.31265L302.593 9.16894C302.585 9.20518 302.544 9.22349 302.512 9.20519V9.20519C302.463 9.17714 302.409 9.23339 302.438 9.28227C302.464 9.32612 302.489 9.36998 302.515 9.41385C302.527 9.43424 302.53 9.4583 302.525 9.48133L302.219 10.895C302.167 11.1364 301.863 11.2141 301.704 11.0247C301.484 10.7622 301.271 10.4977 301.062 10.2312C300.991 10.1401 300.98 10.0163 301.031 9.91248C301.157 9.65525 301.273 9.39758 301.379 9.13963C302.149 7.31371 302.388 5.33404 302.084 3.40355C302.035 3.09815 301.615 3.08943 301.514 3.38146C301.04 4.74142 300.336 6.0214 299.426 7.17039C299.298 7.33127 299.051 7.31191 298.948 7.13457C298.887 7.0291 298.826 6.92347 298.767 6.81767C298.399 6.19617 298.094 5.54379 297.857 4.86945C297.758 4.58859 297.361 4.58289 297.298 4.87394C297.295 4.88985 297.291 4.90577 297.288 4.9217C297.232 5.18765 296.877 5.28088 296.714 5.06367L295.453 3.38492C295.254 3.11999 294.836 3.32581 294.924 3.64517L295.832 6.92397C295.855 7.00916 295.732 7.05979 295.687 6.9839V6.9839C295.342 6.38139 294.925 5.82024 294.445 5.31105C294.221 5.07338 293.812 5.37436 293.885 5.69272C293.99 6.15169 294.03 6.62397 294.003 7.09716C293.996 7.43596 293.972 7.77573 293.941 8.11764C293.918 8.36585 293.62 8.47446 293.446 8.29559C293.163 8.00373 292.891 7.70159 292.633 7.38983C291.531 6.11095 290.752 4.61747 290.348 3.0222C290.276 2.73899 289.886 2.69014 289.783 2.96355C289.207 4.49254 289.044 6.13844 289.316 7.75088V7.75088C289.338 7.88417 289.161 7.96688 289.078 7.86019L286.997 5.18759C286.795 4.92804 286.383 5.13602 286.472 5.4528L287.158 7.90234C287.248 8.22391 286.824 8.42991 286.627 8.16048L281.997 1.83805C281.805 1.57639 281.392 1.76268 281.462 2.07949L282.928 8.77223L282.759 8.28953C282.685 8.07491 282.379 8.08028 282.312 8.29739V8.29739C282.263 8.45654 282.068 8.51558 281.94 8.40967C281.582 8.115 281.233 7.81717 280.897 7.51542C280.847 7.47128 280.814 7.41194 280.803 7.34688L280.586 6.16476C280.533 5.87194 280.122 5.84909 280.036 6.13417V6.13417C279.975 6.3376 279.72 6.40367 279.57 6.25299C278.763 5.44111 278.018 4.57677 277.341 3.66648C277.2 3.4772 276.905 3.60966 276.97 3.83643C277.027 4.03285 277.087 4.2282 277.152 4.4224C277.207 4.58779 276.909 4.76151 276.792 4.63286V4.63286C276.695 4.52709 276.519 4.61343 276.534 4.75593C276.68 6.12811 276.409 7.51483 275.748 8.7517V8.7517C275.708 8.82876 275.591 8.81484 275.565 8.73225C275.418 8.26665 275.243 7.80955 275.04 7.36315C274.925 7.10841 274.556 7.15482 274.479 7.42373C274.25 8.22244 273.938 8.99774 273.545 9.73791C273.49 9.84207 273.338 9.79331 273.346 9.67565V9.67565C273.446 8.12921 273.262 6.58144 272.805 5.10038C272.711 4.79368 272.268 4.86034 272.224 5.17829C272.016 6.68305 271.542 8.1475 270.818 9.50975V9.50975C270.755 9.6306 270.588 9.64842 270.497 9.54682C270.078 9.07579 269.68 8.59828 269.303 8.11429C269.236 8.02709 269.222 7.90955 269.268 7.80889L271.62 2.5927C271.759 2.28373 271.36 2.01693 271.128 2.26411L268.016 5.58112C267.88 5.7256 267.644 5.70137 267.544 5.53059C267.423 5.32463 267.306 5.11785 267.192 4.91025C267.053 4.65518 266.669 4.71576 266.635 5.00443C266.557 5.68233 266.52 6.36423 266.526 7.04663C266.526 7.12451 266.497 7.1998 266.444 7.2566L265.168 8.61646C265.005 8.79062 264.714 8.71334 264.658 8.48103C264.533 7.95511 264.409 7.42877 264.285 6.90202L263.337 2.94716C263.119 2.07976 262.895 1.21178 262.646 0.346321C262.556 0.035225 262.105 0.0770116 262.059 0.397519C261.937 1.25287 261.789 2.10672 261.637 2.96091L261.133 5.6068C261.079 5.89551 260.675 5.94531 260.542 5.68352C260.423 5.45044 260.299 5.21975 260.17 4.99159C259.999 4.6884 259.519 4.91208 259.587 5.25371C259.825 6.45473 259.899 7.68151 259.804 8.90362C259.782 9.18947 259.415 9.26128 259.274 9.01125L258.162 7.0289C258.021 6.77621 257.638 6.8514 257.603 7.13897L257.53 7.73258C257.492 8.03985 257.086 8.08912 256.988 7.79538C256.491 6.30415 256.19 4.76131 256.09 3.20129C256.07 2.88512 255.639 2.79105 255.514 3.08231C254.7 4.98588 254.193 6.99699 254.014 9.04793C253.913 10.2913 253.941 11.5408 254.099 12.7784C254.122 12.9641 253.975 13.1288 253.788 13.1212C253.729 13.1188 253.671 13.1164 253.612 13.1139C253.428 13.1061 253.295 12.9364 253.325 12.7551C253.736 10.3267 253.443 7.84482 252.489 5.56976C252.364 5.2738 251.927 5.38244 251.911 5.70299C251.87 6.52283 251.744 7.33804 251.536 8.13712C251.547 8.0509 251.559 7.96458 251.567 7.87839C251.741 5.8084 251.29 3.74325 250.28 1.91782C250.126 1.64015 249.708 1.79354 249.718 2.11074C249.779 4.03728 249.26 5.95034 248.208 7.62233V7.62233C248.083 7.83208 247.771 7.76626 247.73 7.52542L247.362 5.34969C247.311 5.04562 246.889 5.00765 246.784 5.29766L246.352 6.49246C246.272 6.71402 245.98 6.76036 245.84 6.57103C245.014 5.45551 244.315 4.2613 243.755 3.00848C243.626 2.71919 243.197 2.78279 243.19 3.0996C243.142 5.16461 243.528 7.22255 244.33 9.1531C244.498 9.56623 244.685 9.97858 244.891 10.3901C244.91 10.4287 244.912 10.4734 244.898 10.514V10.514C244.848 10.6514 244.653 10.6524 244.599 10.5164C244.11 9.27343 243.491 8.08019 242.75 6.95452C242.593 6.71535 242.223 6.82359 242.197 7.10871C242.155 7.57457 242.09 8.03831 242.004 8.49849C241.944 8.82016 241.487 8.79655 241.42 8.47631C241.165 7.27007 240.767 6.09455 240.233 4.97218C240.096 4.6844 239.666 4.8038 239.66 5.12242C239.633 6.52902 239.392 7.92626 238.943 9.271C238.877 9.47143 238.627 9.53416 238.471 9.39244C237.884 8.86188 237.319 8.32407 236.776 7.77901C236.713 7.71611 236.682 7.62854 236.69 7.54013L237.072 3.47029C237.101 3.1627 236.702 3.0176 236.526 3.27181L235.07 5.38038C234.959 5.54155 234.725 5.55457 234.598 5.40531C233.542 4.16249 232.581 2.85058 231.723 1.4796C231.554 1.20968 231.138 1.34294 231.178 1.65895C231.4 3.43418 231.828 5.18114 232.453 6.86842C232.563 7.16496 232.197 7.43358 231.954 7.23066L228.886 4.66375C228.647 4.46447 228.301 4.71415 228.414 5.00333L230.914 11.3825C230.916 11.3886 230.916 11.3955 230.912 11.4009V11.4009C230.905 11.4104 230.892 11.4123 230.883 11.405C229.247 10.0617 227.977 8.36844 227.179 6.46899C227.125 6.3404 226.939 6.35059 226.908 6.48646V6.48646C226.873 6.63639 226.648 6.64992 226.602 6.50295L225.223 2.0649C225.132 1.7727 224.714 1.788 224.644 2.08605L223.134 8.58991C223.078 8.82974 222.774 8.90307 222.62 8.71119C221.719 7.59026 220.943 6.38326 220.307 5.1097C220.274 5.04436 220.28 4.96654 220.32 4.90603C220.368 4.83577 220.416 4.76553 220.463 4.6953C220.569 4.54007 220.376 4.35712 220.228 4.47255V4.47255C220.144 4.53778 220.022 4.50742 219.979 4.41025C219.911 4.25474 219.845 4.09824 219.782 3.94081C219.665 3.64831 219.235 3.68794 219.209 4.00193C219.178 4.38323 219.163 4.7657 219.165 5.14842C219.165 5.24168 219.123 5.33025 219.05 5.38822C218.473 5.84665 217.903 6.3081 217.342 6.77255C217.192 6.89592 216.967 6.84875 216.887 6.67272C216.722 6.31125 216.577 5.94199 216.453 5.56647C216.358 5.2794 215.947 5.26888 215.879 5.56338C215.689 6.38356 215.603 7.22332 215.625 8.0648C215.627 8.15654 215.589 8.24481 215.519 8.30483C215.38 8.42557 215.241 8.54681 215.103 8.66813C214.949 8.80352 214.708 8.74744 214.634 8.55639C213.794 6.40541 213.371 4.1323 213.38 1.8451C213.381 1.52359 212.947 1.40265 212.808 1.69263C211.864 3.66492 211.245 5.76513 210.976 7.92006C210.928 8.32235 210.893 8.72561 210.872 9.12984C210.859 9.38615 210.555 9.5166 210.373 9.33622C209.468 8.44295 208.713 7.42568 208.132 6.31939C208 6.06712 207.626 6.10515 207.584 6.38704C207.522 6.81034 207.494 7.23762 207.501 7.66513C207.505 7.92278 207.211 8.0908 207.001 7.94134L206.574 7.63764C206.53 7.60584 206.495 7.56245 206.473 7.51196C206.075 6.56974 205.811 5.58382 205.687 4.58007C205.647 4.25808 205.199 4.18103 205.104 4.49127C204.632 6.03384 204.499 7.6568 204.722 9.25887V9.25887C204.76 9.52529 204.387 9.69318 204.23 9.47422C202.879 7.58466 201.629 5.63195 200.486 3.62354C200.328 3.34655 199.905 3.4684 199.929 3.78622C200.077 5.75309 200.348 7.71007 200.739 9.64698C200.8 9.94822 200.431 10.1365 200.235 9.89971C199.301 8.77044 198.491 7.55385 197.819 6.26904C197.673 5.98915 197.253 6.07911 197.266 6.39471C197.31 7.50168 197.482 8.60204 197.78 9.67603C197.727 9.53109 197.679 9.38413 197.639 9.23556C197.573 8.99526 197.266 8.90225 197.109 9.09546C196.578 9.74761 196.169 10.4808 195.899 11.2635C195.83 11.4633 195.585 11.547 195.421 11.4147C195.301 11.319 195.186 11.2218 195.075 11.1225C194.102 10.2514 193.429 9.26387 193.177 8.21542C193.112 7.94532 192.752 7.84194 192.615 8.08367C192.384 8.49147 192.214 8.92923 192.112 9.38429C191.953 10.0983 191.963 10.8369 192.144 11.5465C192.508 12.9835 193.564 14.4236 195.22 15.7338C195.221 15.7346 195.223 15.7348 195.224 15.7343V15.7343C195.226 15.7333 195.229 15.735 195.229 15.7375V19.7C195.229 19.8657 195.363 20 195.529 20H407.7C407.866 20 408 19.8657 408 19.7V12.0852C408 11.9753 407.938 11.8732 407.842 11.8203C404.89 10.2003 404.636 9.64857 402.611 7.63952ZM402.099 11.8826C402.126 11.6011 402.496 11.5062 402.662 11.7354C402.945 12.1281 403.242 12.5121 403.552 12.8866C403.637 12.9888 403.583 13.1448 403.453 13.1702V13.1702C403.407 13.1792 403.359 13.1693 403.321 13.1427C402.942 12.8812 402.568 12.6176 402.202 12.3509C402.117 12.2888 402.071 12.1863 402.081 12.0814L402.099 11.8826ZM396.92 11.9091C396.993 11.7077 397.267 11.6671 397.393 11.8404V11.8404C397.449 11.918 397.459 12.0212 397.417 12.1075V12.1075C397.241 12.4678 397.072 12.816 396.881 13.14C396.76 13.3505 396.625 13.5534 396.476 13.7474C396.447 13.7857 396.402 13.8081 396.353 13.8092V13.8092C396.231 13.8118 396.151 13.6822 396.205 13.5726C396.476 13.0308 396.714 12.4754 396.92 11.9091ZM381.86 10.6984V10.6984C381.956 10.627 382.092 10.6915 382.097 10.811C382.108 11.1247 382.129 11.438 382.159 11.7505C382.189 12.0692 381.763 12.2377 381.588 11.9698C381.582 11.9604 381.576 11.951 381.57 11.9416C381.468 11.7846 381.368 11.6271 381.269 11.4692C381.184 11.3336 381.222 11.1554 381.353 11.0636C381.525 10.9429 381.695 10.8213 381.86 10.6984ZM376.765 13.733C376.768 13.7466 376.757 13.7592 376.743 13.7592L376.741 13.7592C376.717 13.7591 376.711 13.727 376.733 13.717V13.717C376.746 13.7109 376.762 13.7188 376.765 13.733V13.733ZM359.435 10.0585C359.438 10.0219 359.441 9.98537 359.444 9.94882C359.453 9.81182 359.667 9.77946 359.71 9.90993V9.90993C359.719 9.93936 359.718 9.97168 359.705 9.99978C359.704 10.0023 359.703 10.0047 359.701 10.0072C359.683 10.0457 359.664 10.0842 359.644 10.1226C359.592 10.2275 359.426 10.1755 359.435 10.0585V10.0585ZM352.522 13.4889C352.553 13.5649 352.498 13.6502 352.416 13.6499C352.409 13.6498 352.402 13.6498 352.394 13.6498C352.322 13.6494 352.269 13.5829 352.283 13.5122V13.5122C352.306 13.3964 352.477 13.3795 352.522 13.4889V13.4889ZM342.59 13.5367C342.62 13.537 342.635 13.5737 342.613 13.5954V13.5954C342.607 13.602 342.598 13.6058 342.588 13.6057L340.346 13.5956C340.334 13.5956 340.323 13.5906 340.315 13.5821V13.5821C340.291 13.5555 340.31 13.5135 340.346 13.5139L342.59 13.5367ZM279.251 8.66496C279.261 8.68085 279.264 8.70074 279.259 8.71895L279.221 8.84305C279.209 8.88418 279.154 8.88107 279.144 8.83929V8.83929C279.135 8.80161 279.125 8.76397 279.116 8.72638C279.097 8.6531 279.209 8.60174 279.251 8.66496V8.66496ZM267.613 12.8552C267.688 13.0541 267.542 13.2684 267.33 13.2675L267.269 13.2672C267.052 13.2662 266.908 13.0419 266.997 12.8439L267.021 12.7918C267.134 12.5412 267.503 12.5598 267.599 12.8172C267.604 12.8299 267.609 12.8425 267.613 12.8552ZM218.789 7.27175C218.938 7.03087 219.312 7.11436 219.359 7.39368C219.525 8.39221 219.789 9.37362 220.147 10.3255C220.263 10.6344 219.878 10.9063 219.651 10.6668C219.376 10.3767 219.111 10.0785 218.855 9.77259C218.581 9.4424 218.328 9.10704 218.09 8.76769C218.024 8.67275 218.02 8.54788 218.079 8.44809C218.31 8.05554 218.547 7.66343 218.789 7.27175ZM216.248 11.7833C216.282 11.7174 216.378 11.7228 216.405 11.7916C216.558 12.1787 216.73 12.559 216.92 12.9313C216.685 12.5785 216.463 12.223 216.251 11.8654C216.236 11.8403 216.235 11.8093 216.248 11.7833V11.7833Z" fill="black"/>
<path d="M193.611 8.63952C193.548 8.57609 193.514 8.48615 193.522 8.39649L194.04 2.90689C194.071 2.57457 193.618 2.4472 193.472 2.74719L191.861 6.04755C191.764 6.24617 191.494 6.27518 191.361 6.09873C191.339 6.07053 191.318 6.04229 191.297 6.01403C191.111 5.76508 190.716 5.90982 190.768 6.216C190.842 6.65232 190.94 7.08504 191.06 7.51246C191.08 7.58434 191.074 7.66123 191.041 7.72835L189.856 10.157C189.769 10.3359 189.535 10.3818 189.388 10.2478C189.187 10.0654 188.99 9.8821 188.796 9.69771C188.729 9.63416 188.696 9.54315 188.704 9.45123C188.803 8.3406 188.753 7.2244 188.557 6.12879C188.5 5.80695 188.044 5.83052 187.972 6.14946C187.848 6.70077 187.687 7.24462 187.492 7.77785C187.417 7.98289 187.153 8.03222 187.006 7.87097C186.476 7.29045 185.97 6.69056 185.49 6.07273C185.286 5.81068 184.875 6.00693 184.977 6.32262C185.36 7.50263 185.851 8.64969 186.446 9.75052C186.495 9.84098 186.496 9.95017 186.445 10.0399C186.289 10.3194 186.126 10.5975 185.949 10.8732C185.387 11.7426 184.757 12.5711 184.064 13.3515C183.995 13.4296 183.867 13.3666 183.877 13.2627V13.2627C184.033 12.111 184.051 10.9466 183.93 9.79117C183.812 8.63442 183.562 7.49305 183.185 6.38673C182.938 5.63167 182.605 4.90557 182.192 4.22089C182.027 3.94589 181.6 4.12533 181.619 4.4458C181.658 5.10587 181.614 5.7696 181.486 6.42288C181.291 7.53599 180.974 8.62672 180.538 9.67712C180.191 10.512 179.781 11.3218 179.31 12.1001C179.183 12.3103 178.876 12.2767 178.801 12.0426C178.381 10.7214 178.218 9.34032 178.319 7.96686C178.341 7.66006 177.946 7.48819 177.766 7.73726C177.33 8.3385 176.938 8.96718 176.592 9.61898C176.474 9.8414 176.15 9.83966 176.047 9.60966C175.98 9.45873 175.915 9.30744 175.853 9.15571C175.811 9.05394 175.83 8.93773 175.9 8.85254C175.995 8.73574 176.088 8.61856 176.176 8.50075C176.591 7.97324 176.938 7.4041 177.213 6.80514C177.354 6.49656 176.95 6.30408 176.733 6.56451C176.424 6.93298 176.092 7.2833 175.737 7.6133C175.58 7.75897 175.329 7.68896 175.268 7.48391C175.057 6.77535 174.894 6.055 174.78 5.3273C174.733 5.02207 174.312 4.95858 174.203 5.24754C173.689 6.60624 173.348 8.01888 173.187 9.45588C173.177 9.54577 173.127 9.62685 173.051 9.67579C172.558 9.99328 172.04 10.3002 171.5 10.5962C171.357 10.6748 171.177 10.6223 171.098 10.4793C170.959 10.2281 170.822 9.97647 170.69 9.72407C170.122 8.63851 169.609 7.54337 169.163 6.43995C168.863 5.72337 168.608 4.99128 168.398 4.24742C168.313 3.94773 167.885 3.94131 167.818 4.2453C167.653 4.98826 167.536 5.74021 167.466 6.49714C167.351 7.63725 167.301 8.78231 167.315 9.92748C167.318 10.1569 167.324 10.3865 167.333 10.6162C167.34 10.8181 167.12 10.9465 166.95 10.8368V10.8368C166.874 10.7877 166.831 10.7015 166.837 10.6111L166.999 8.07426C167.019 7.76765 166.62 7.63318 166.45 7.8892L165.272 9.66448C165.269 9.67003 165.261 9.67136 165.256 9.66739V9.66739C165.252 9.66493 165.251 9.66089 165.251 9.65678C165.496 7.42524 165.072 5.18466 164.046 3.18393C163.895 2.88838 163.449 3.06135 163.477 3.39237C163.583 4.6907 163.44 5.99993 163.049 7.25542C162.985 7.46211 162.727 7.52335 162.574 7.37031C162.346 7.14188 162.124 6.90765 161.909 6.66791C161.686 6.41876 161.29 6.63532 161.426 6.94106C161.69 7.53431 162.002 8.10816 162.36 8.65735C162.417 8.74518 162.426 8.85638 162.381 8.95097C162.209 9.31024 162.02 9.66666 161.811 10.0191C161.744 10.1306 161.676 10.2418 161.606 10.3525C161.454 10.5917 161.092 10.4906 161.066 10.2084C160.917 8.53751 160.599 6.8841 160.117 5.27055C160.029 4.97513 159.607 5.00201 159.539 5.30263C159.121 7.14017 158.505 8.93331 157.7 10.6538C157.653 10.7549 157.514 10.7776 157.441 10.6937V10.6937C156.329 9.49635 155.514 8.08678 155.047 6.56748C154.954 6.26597 154.525 6.25999 154.478 6.57195C154.253 8.0721 154.427 9.60859 154.994 11.04V11.04C155.084 11.2734 154.747 11.5141 154.568 11.3399L154.172 10.9554C154.113 10.8981 154.08 10.819 154.081 10.7367C154.089 8.6923 153.737 6.66373 153.043 4.73321C152.934 4.43037 152.491 4.51041 152.461 4.8309C152.36 5.93189 152.15 7.02216 151.833 8.08727C151.769 8.29965 151.504 8.3652 151.345 8.21084L149.764 6.67595C149.735 6.64745 149.712 6.61322 149.696 6.57549C149.579 6.29827 149.452 6.02542 149.314 5.75752C149.166 5.4708 148.729 5.62214 148.734 5.94468C148.754 7.31687 148.462 8.68106 147.873 9.94342C147.78 10.1424 147.512 10.1641 147.385 9.9845C146.913 9.31201 146.503 8.60245 146.161 7.864C146.025 7.56932 145.586 7.64104 145.599 7.96547C145.659 9.37277 145.988 10.7622 146.575 12.0656C146.583 12.0838 146.581 12.1049 146.569 12.1209V12.1209C146.549 12.1472 146.511 12.1506 146.487 12.1283C146.416 12.0618 146.344 11.9954 146.275 11.9278C145.192 10.8995 144.348 9.66962 143.798 8.317C143.777 8.26455 143.703 8.26243 143.68 8.31402V8.31402C143.652 8.3752 143.56 8.36041 143.553 8.29367C143.377 6.67119 143.018 5.07216 142.484 3.52351C142.378 3.21687 141.93 3.29168 141.902 3.61487C141.722 5.70426 141.235 7.75951 140.456 9.72158C140.332 10.034 139.858 9.91377 139.859 9.5776C139.864 8.54358 139.77 7.5108 139.579 6.49183C139.523 6.19438 139.112 6.1769 139.007 6.46071C138.62 7.50534 138.142 8.51827 137.579 9.4891C137.452 9.70619 137.137 9.67151 137.065 9.43102C136.747 8.3714 136.578 7.27821 136.56 6.17924C136.555 5.85822 136.12 5.73377 135.984 6.02484C135.538 6.9836 135.205 7.98621 134.992 9.01436C134.93 9.3173 134.485 9.37181 134.368 9.08565L133.798 7.69791C133.7 7.46004 133.368 7.44733 133.252 7.67704L131.409 11.3397C131.332 11.4923 130.977 11.3618 131.004 11.193V11.193C131.24 9.64179 131.13 8.06655 130.687 6.56683C130.596 6.25508 130.148 6.33034 130.107 6.65286C129.917 8.17578 129.406 9.65261 128.6 10.9949C128.596 11.0009 128.593 11.0069 128.589 11.0128C128.558 11.0641 128.484 11.0672 128.447 11.0197V11.0197C128.43 10.9975 128.425 10.9684 128.434 10.9419C128.782 9.88686 128.958 8.78793 128.956 7.68281C128.932 6.01376 128.521 4.3741 127.755 2.8783C127.62 2.61363 127.227 2.71106 127.192 3.00629C127.022 4.42472 126.561 5.80032 125.831 7.05476C125.728 7.23096 125.483 7.24662 125.35 7.09247C125.229 6.95285 125.106 6.8149 124.981 6.67868C124.772 6.4513 124.4 6.66642 124.462 6.96861C124.566 7.46492 124.641 7.96638 124.687 8.47083C124.692 8.51138 124.695 8.55202 124.699 8.59266C124.707 8.67026 124.685 8.74808 124.636 8.80915C124.502 8.9785 124.362 9.14637 124.218 9.31281C124.043 9.51495 123.713 9.39292 123.693 9.1262C123.588 7.76036 123.297 6.41402 122.827 5.12057C122.716 4.81394 122.265 4.90787 122.243 5.23339C122.216 5.65462 122.169 6.07456 122.103 6.49205C122.053 6.80551 121.612 6.81101 121.517 6.5083C121.05 5.02431 120.331 3.62237 119.388 2.35728C119.189 2.09069 118.766 2.33246 118.843 2.65603C119.292 4.5561 119.203 6.54463 118.57 8.41742C118.486 8.6716 118.393 8.92313 118.291 9.17165C118.187 9.42875 117.818 9.39999 117.726 9.1383C117.446 8.34832 117.071 7.59231 116.608 6.88512C116.426 6.60802 115.99 6.83182 116.039 7.15933C116.153 7.92424 116.154 8.70088 116.039 9.46616C115.992 9.78293 115.569 9.74924 115.511 9.4343V9.4343C115.459 9.15153 115.073 9.12752 114.96 9.39203C114.467 10.5472 113.831 11.6438 113.063 12.6586C112.979 12.7703 112.827 12.8066 112.701 12.7449C112.661 12.7249 112.62 12.7047 112.579 12.6843C112.444 12.6162 112.384 12.4561 112.438 12.3143L114.924 5.7973C115.037 5.50056 114.672 5.25439 114.44 5.47065L109.539 10.0268C109.417 10.1406 109.224 10.1329 109.119 10.0032C108.621 9.3912 108.262 8.68901 108.064 7.94047C108.034 7.82607 107.882 7.79599 107.819 7.89561V7.89561C107.744 8.01127 107.557 7.9655 107.553 7.82816C107.517 6.41659 107.634 5.00604 107.9 3.61832C107.962 3.2996 107.546 3.1004 107.357 3.3638C105.636 5.75344 104.335 8.3924 103.505 11.1795C103.501 11.1919 103.483 11.1927 103.478 11.1805V11.1805C102.95 9.67185 102.749 8.08437 102.878 6.51142C102.906 6.17683 102.446 6.00582 102.297 6.30632C102.041 6.81987 101.817 7.3474 101.626 7.88621C101.536 8.14098 101.182 8.17137 101.068 7.92619C100.578 6.86953 100.202 5.7693 99.945 4.64211C99.8785 4.35025 99.4739 4.3072 99.3719 4.58861C98.9946 5.62909 98.7253 6.70186 98.5679 7.79176C98.5271 8.07453 98.1477 8.16516 97.9931 7.92489L96.8401 6.13293C96.679 5.8825 96.2909 5.99446 96.2879 6.29224L96.2355 11.4999C96.2336 11.6822 96.0264 11.787 95.8769 11.6826V11.6826C95.8314 11.6507 95.7987 11.603 95.7861 11.5489L94.7966 7.30795C94.7239 6.99628 94.2789 6.99985 94.2112 7.31264L93.5929 10.1689C93.5851 10.2052 93.5445 10.2235 93.5122 10.2052V10.2052C93.4628 10.1771 93.4086 10.2334 93.4376 10.2823C93.4636 10.3261 93.4893 10.37 93.5147 10.4139C93.5265 10.4342 93.5303 10.4583 93.5253 10.4813L93.2193 11.895C93.167 12.1364 92.8626 12.2141 92.7041 12.0247C92.4844 11.7622 92.2705 11.4977 92.0624 11.2312C91.9913 11.1401 91.98 11.0163 92.0308 10.9125C92.1568 10.6552 92.2731 10.3976 92.3786 10.1396C93.1488 8.31371 93.3883 6.33404 93.0835 4.40355C93.0353 4.09815 92.6151 4.08943 92.5135 4.38146C92.0405 5.74142 91.3358 7.0214 90.4258 8.17039C90.2984 8.33127 90.0513 8.31192 89.948 8.13458C89.8866 8.02911 89.8261 7.92347 89.7666 7.81767C89.3986 7.19617 89.0943 6.54379 88.8572 5.86945C88.7585 5.58859 88.3607 5.58289 88.298 5.87394C88.2946 5.88985 88.2912 5.90577 88.2879 5.92169C88.2324 6.18765 87.8774 6.28088 87.7142 6.06366L86.4529 4.38493C86.2539 4.12001 85.8355 4.32582 85.924 4.64518L86.8317 7.92397C86.8552 8.00916 86.732 8.05979 86.6867 7.9839V7.9839C86.342 7.38139 85.9251 6.82023 85.4452 6.31105C85.2212 6.07338 84.8124 6.37436 84.8852 6.69272C84.9902 7.15169 85.0303 7.62397 85.0025 8.09716C84.9965 8.43596 84.9721 8.77573 84.9407 9.11764C84.9179 9.36585 84.6195 9.47446 84.4459 9.29559C84.1626 9.00373 83.8914 8.70159 83.6327 8.38983C82.5313 7.11095 81.752 5.61747 81.3476 4.0222C81.2758 3.73899 80.8864 3.69014 80.7834 3.96355C80.2073 5.49254 80.0439 7.13844 80.3156 8.75088V8.75088C80.3384 8.88417 80.1614 8.96688 80.0783 8.86019L77.9972 6.18759C77.7951 5.92804 77.3829 6.13602 77.4716 6.4528L78.1576 8.90236C78.2476 9.22393 77.8239 9.42992 77.6266 9.16049L72.9967 2.83805C72.8051 2.57639 72.3923 2.76269 72.4617 3.0795L73.9278 9.77223L73.7595 9.28952C73.6846 9.07491 73.3793 9.08028 73.312 9.29739V9.29739C73.2627 9.45653 73.0684 9.51558 72.9398 9.40967C72.582 9.115 72.2334 8.81717 71.8967 8.51542C71.8475 8.47128 71.8144 8.41194 71.8025 8.34689L71.5862 7.16476C71.5326 6.87193 71.1216 6.84907 71.0359 7.13416V7.13416C70.9747 7.3376 70.72 7.40367 70.5703 7.25298C69.7635 6.4411 69.0184 5.57677 68.3405 4.66648C68.1996 4.4772 67.9047 4.60966 67.9701 4.83643C68.0267 5.03284 68.0873 5.2282 68.1519 5.42239C68.2069 5.58778 67.9094 5.76151 67.7918 5.63286V5.63286C67.6951 5.52709 67.5185 5.61343 67.5337 5.75593C67.6798 7.12811 67.4089 8.51483 66.7476 9.7517V9.7517C66.708 9.82876 66.5913 9.81484 66.5652 9.73225C66.418 9.26665 66.2428 8.80955 66.0404 8.36315C65.9249 8.10841 65.5557 8.15482 65.4788 8.42373C65.2504 9.22244 64.9375 9.99774 64.5448 10.7379C64.4895 10.8421 64.3376 10.7933 64.3455 10.6757V10.6757C64.4463 9.12921 64.2623 7.58144 63.8052 6.10038C63.7105 5.79368 63.2685 5.86034 63.2244 6.17829C63.0159 7.68305 62.5416 9.1475 61.8181 10.5097V10.5097C61.7555 10.6306 61.5881 10.6484 61.4975 10.5468C61.0775 10.0758 60.6795 9.59828 60.3035 9.11429C60.2357 9.02709 60.2222 8.90955 60.2676 8.80889L62.6199 3.5927C62.7593 3.28373 62.3596 3.01693 62.1277 3.26412L59.0159 6.58112C58.8804 6.7256 58.6445 6.70137 58.5441 6.53059C58.423 6.32463 58.3057 6.11785 58.1924 5.91024C58.0531 5.65518 57.6689 5.71576 57.6354 6.00443C57.5567 6.68233 57.5201 7.36423 57.5258 8.04663C57.5265 8.12451 57.4975 8.1998 57.4442 8.2566L56.1685 9.61646C56.0051 9.79062 55.7137 9.71334 55.6583 9.48103C55.533 8.95511 55.4086 8.42877 55.2852 7.90202L54.3368 3.94716C54.1186 3.07976 53.8954 2.21178 53.6459 1.34632C53.5562 1.03523 53.1048 1.07701 53.059 1.39752C52.9366 2.25287 52.7889 3.10672 52.6365 3.96091L52.1335 6.60681C52.0786 6.89551 51.6754 6.94531 51.5419 6.68352C51.423 6.45044 51.2991 6.21975 51.1701 5.99159C50.9987 5.6884 50.5192 5.91208 50.587 6.25371C50.825 7.45473 50.8985 8.68151 50.8042 9.90362C50.7821 10.1895 50.4147 10.2613 50.2744 10.0112L49.1623 8.02891C49.0205 7.77621 48.6384 7.8514 48.6029 8.13897L48.5297 8.73257C48.4918 9.03984 48.0855 9.08911 47.9877 8.79537C47.4912 7.30414 47.1897 5.7613 47.0899 4.20129C47.0697 3.88512 46.6389 3.79105 46.5143 4.08231C45.6996 5.98588 45.1931 7.99699 45.014 10.0479C44.9127 11.2913 44.9412 12.5408 45.0987 13.7784C45.1223 13.9641 44.9752 14.1288 44.7881 14.1212C44.7294 14.1188 44.6706 14.1164 44.6119 14.1139C44.4282 14.1061 44.2949 13.9364 44.3255 13.7551C44.7357 11.3267 44.4433 8.84482 43.4886 6.56976C43.3645 6.2738 42.9272 6.38244 42.911 6.70299C42.8697 7.52283 42.7444 8.33804 42.5364 9.13712C42.5468 9.0509 42.5587 8.96458 42.5669 8.87839C42.7409 6.8084 42.2899 4.74325 41.2797 2.91782C41.126 2.64015 40.7083 2.79354 40.7183 3.11074C40.779 5.03728 40.26 6.95034 39.2077 8.62233V8.62233C39.0826 8.83208 38.7707 8.76626 38.73 8.52542L38.3622 6.34968C38.3108 6.04561 37.8892 6.00764 37.7843 6.29765L37.3522 7.49246C37.2721 7.71402 36.9803 7.76036 36.84 7.57103C36.0138 6.45551 35.3151 5.2613 34.755 4.00848C34.6256 3.71919 34.1968 3.78279 34.1895 4.0996C34.1417 6.16461 34.5277 8.22255 35.3303 10.1531C35.4981 10.5662 35.6848 10.9786 35.8905 11.3901C35.9097 11.4287 35.9125 11.4734 35.8978 11.514V11.514C35.8481 11.6514 35.6525 11.6524 35.5991 11.5164C35.1103 10.2734 34.4909 9.08019 33.7504 7.95452C33.593 7.71535 33.223 7.82359 33.1971 8.10871C33.1549 8.57457 33.0905 9.0383 33.004 9.49849C32.9436 9.82016 32.4874 9.79655 32.4198 9.47631C32.165 8.27007 31.7669 7.09455 31.2329 5.97218C31.096 5.6844 30.6656 5.8038 30.6595 6.12242C30.6326 7.52902 30.3919 8.92626 29.9434 10.271C29.8766 10.4714 29.6272 10.5342 29.4705 10.3924C28.8839 9.86189 28.3191 9.32407 27.776 8.77901C27.7134 8.71611 27.6821 8.62854 27.6904 8.54013L28.0718 4.47029C28.1007 4.1627 27.7019 4.01761 27.5263 4.27181L26.07 6.38038C25.9587 6.54155 25.7253 6.55457 25.5984 6.40531C24.5423 5.16249 23.5815 3.85058 22.7231 2.4796C22.5541 2.20968 22.1384 2.34295 22.178 2.65895C22.4 4.43418 22.8277 6.18114 23.4533 7.86842C23.5632 8.16496 23.1967 8.43358 22.9542 8.23066L19.8857 5.66375C19.6474 5.46447 19.3005 5.71415 19.4139 6.00333L21.9141 12.3825C21.9165 12.3886 21.9157 12.3955 21.9119 12.4009V12.4009C21.9054 12.4104 21.8921 12.4123 21.8832 12.405C20.2466 11.0617 18.9771 9.36844 18.179 7.46899C18.1249 7.3404 17.9392 7.35059 17.9077 7.48646V7.48646C17.8729 7.63639 17.648 7.64992 17.6023 7.50295L16.2232 3.06491C16.1324 2.7727 15.7137 2.788 15.6445 3.08605L14.1337 9.58991C14.078 9.82974 13.7742 9.90307 13.6199 9.71119C12.7186 8.59026 11.9433 7.38326 11.3069 6.1097C11.2742 6.04436 11.2796 5.96654 11.3205 5.90603C11.368 5.83577 11.4156 5.76553 11.4634 5.6953C11.569 5.54007 11.376 5.35712 11.2279 5.47255V5.47255C11.1442 5.53778 11.0218 5.50742 10.9792 5.41025C10.911 5.25474 10.8454 5.09824 10.7824 4.94081C10.6654 4.64831 10.2349 4.68794 10.2093 5.00193C10.1783 5.38323 10.1634 5.7657 10.1649 6.14842C10.1653 6.24168 10.1234 6.33025 10.0503 6.38822C9.47256 6.84665 8.90299 7.3081 8.3416 7.77255C8.19249 7.89592 7.96701 7.84875 7.88661 7.67272C7.72151 7.31125 7.57671 6.94199 7.45276 6.56647C7.35801 6.2794 6.94716 6.26888 6.87895 6.56338C6.68898 7.38356 6.60333 8.22332 6.62465 9.0648C6.62697 9.15654 6.5887 9.24481 6.51928 9.30483C6.37964 9.42557 6.24145 9.54681 6.10343 9.66813C5.9494 9.80352 5.7083 9.74744 5.63376 9.55639C4.79448 7.40541 4.37086 5.1323 4.38015 2.8451C4.38146 2.52359 3.94699 2.40265 3.80813 2.69263C2.86363 4.66492 2.24476 6.76513 1.97573 8.92006C1.92787 9.32235 1.89341 9.72561 1.87237 10.1298C1.85902 10.3862 1.55531 10.5166 1.37271 10.3362C0.468438 9.44295 -0.286898 8.42568 -0.867834 7.31939C-1.0003 7.06712 -1.37431 7.10515 -1.41577 7.38704C-1.47803 7.81034 -1.50587 8.23762 -1.49901 8.66513C-1.49487 8.92278 -1.78914 9.0908 -1.99905 8.94133L-2.42557 8.63764C-2.47022 8.60584 -2.5054 8.56245 -2.52673 8.51196C-2.92491 7.56974 -3.18873 6.58382 -3.31296 5.58007C-3.35281 5.25808 -3.80135 5.18103 -3.89631 5.49127C-4.36849 7.03384 -4.50074 8.6568 -4.27839 10.2589V10.2589C-4.23968 10.5253 -4.6129 10.6932 -4.76953 10.4742C-6.1212 8.58466 -7.37106 6.63195 -8.51436 4.62354C-8.67204 4.34655 -9.09472 4.4684 -9.07083 4.78622C-8.92296 6.75309 -8.65241 8.71007 -8.26057 10.647C-8.19963 10.9482 -8.56864 11.1365 -8.7646 10.8997C-9.69923 9.77044 -10.5088 8.55385 -11.1807 7.26904C-11.3271 6.98915 -11.7468 7.07911 -11.7342 7.39471C-11.69 8.50168 -11.5177 9.60204 -11.2196 10.676C-11.2735 10.5311 -11.3207 10.3841 -11.3613 10.2356C-11.4269 9.99526 -11.734 9.90225 -11.8912 10.0955C-12.422 10.7476 -12.8313 11.4808 -13.1012 12.2635C-13.1701 12.4633 -13.4146 12.547 -13.5794 12.4147C-13.6987 12.319 -13.8143 12.2218 -13.9249 12.1225C-14.8981 11.2514 -15.5705 10.2639 -15.8233 9.21542C-15.8884 8.94532 -16.2482 8.84194 -16.3852 9.08367C-16.6162 9.49147 -16.7857 9.92923 -16.8876 10.3843C-17.0474 11.0983 -17.0367 11.8369 -16.8562 12.5465C-16.4917 13.9835 -15.4363 15.4236 -13.7797 16.7338C-13.7787 16.7346 -13.7774 16.7348 -13.7762 16.7343V16.7343C-13.7739 16.7333 -13.7713 16.735 -13.7713 16.7376V20.7C-13.7713 20.8657 -13.637 21 -13.4713 21H198.7C198.866 21 199 20.8657 199 20.7V13.0852C199 12.9753 198.938 12.8732 198.842 12.8203C195.89 11.2003 195.636 10.6486 193.611 8.63952ZM193.099 12.8826C193.126 12.6011 193.496 12.5061 193.662 12.7354C193.945 13.1281 194.242 13.5121 194.552 13.8866C194.637 13.9888 194.583 14.1448 194.453 14.1702V14.1702C194.407 14.1792 194.359 14.1693 194.321 14.1427C193.942 13.8812 193.568 13.6176 193.202 13.3509C193.117 13.2888 193.071 13.1863 193.081 13.0814L193.099 12.8826ZM187.92 12.9091C187.993 12.7077 188.267 12.6671 188.393 12.8404V12.8404C188.449 12.918 188.459 13.0212 188.417 13.1075V13.1075C188.241 13.4678 188.072 13.816 187.881 14.14C187.76 14.3505 187.625 14.5534 187.476 14.7474C187.447 14.7857 187.402 14.8081 187.353 14.8092V14.8092C187.231 14.8118 187.151 14.6822 187.205 14.5726C187.476 14.0308 187.714 13.4754 187.92 12.9091ZM172.86 11.6984V11.6984C172.956 11.627 173.092 11.6915 173.097 11.811C173.108 12.1247 173.129 12.438 173.159 12.7505C173.189 13.0692 172.763 13.2377 172.588 12.9698C172.582 12.9604 172.576 12.951 172.57 12.9416C172.468 12.7846 172.368 12.6271 172.269 12.4692C172.184 12.3336 172.222 12.1554 172.353 12.0636C172.525 11.9428 172.695 11.8213 172.86 11.6984ZM167.765 14.733C167.768 14.7466 167.757 14.7592 167.743 14.7592L167.741 14.7592C167.717 14.7591 167.711 14.727 167.733 14.717V14.717C167.746 14.7109 167.762 14.7188 167.765 14.733V14.733ZM150.435 11.0585C150.438 11.0219 150.441 10.9854 150.444 10.9488C150.453 10.8118 150.667 10.7795 150.71 10.9099V10.9099C150.719 10.9394 150.718 10.9717 150.705 10.9998C150.704 11.0023 150.703 11.0047 150.701 11.0072C150.683 11.0457 150.664 11.0842 150.644 11.1226C150.592 11.2275 150.426 11.1755 150.435 11.0585V11.0585ZM143.522 14.4889C143.553 14.5649 143.498 14.6502 143.416 14.6499C143.409 14.6498 143.402 14.6498 143.394 14.6498C143.322 14.6494 143.269 14.5829 143.283 14.5122V14.5122C143.306 14.3964 143.477 14.3795 143.522 14.4889V14.4889ZM133.59 14.5367C133.62 14.537 133.635 14.5737 133.613 14.5954V14.5954C133.607 14.602 133.598 14.6058 133.588 14.6057L131.346 14.5956C131.334 14.5956 131.323 14.5906 131.315 14.5821V14.5821C131.291 14.5555 131.31 14.5135 131.346 14.5139L133.59 14.5367ZM70.2507 9.66496C70.2611 9.68085 70.2642 9.70074 70.2587 9.71895L70.2214 9.84305C70.209 9.88418 70.1538 9.88107 70.1439 9.83929V9.83929C70.1348 9.80161 70.1254 9.76397 70.1157 9.72638C70.0969 9.6531 70.2091 9.60174 70.2507 9.66496V9.66496ZM58.6133 13.8552C58.6883 14.0541 58.5422 14.2684 58.3296 14.2675L58.2692 14.2672C58.052 14.2662 57.9078 14.0419 57.9971 13.8439L58.0205 13.7918C58.1336 13.5412 58.5027 13.5598 58.5991 13.8172C58.6038 13.8299 58.6086 13.8425 58.6133 13.8552ZM9.78892 8.27175C9.93783 8.03087 10.312 8.11436 10.3587 8.39368C10.5255 9.39221 10.7894 10.3736 11.1467 11.3255C11.2627 11.6344 10.8781 11.9063 10.6511 11.6668C10.376 11.3767 10.1105 11.0785 9.85499 10.7726C9.5815 10.4424 9.32756 10.107 9.09051 9.76769C9.02418 9.67275 9.02005 9.54788 9.07884 9.44809C9.3101 9.05554 9.54679 8.66343 9.78892 8.27175ZM7.24828 12.7833C7.28197 12.7174 7.37827 12.7228 7.40544 12.7916C7.55818 13.1787 7.72978 13.559 7.91971 13.9313C7.68481 13.5785 7.46303 13.223 7.25089 12.8654C7.23599 12.8403 7.23499 12.8093 7.24828 12.7833V12.7833Z" fill="#66B34D"/>
<path d="M402.611 8.63952C402.548 8.57609 402.514 8.48615 402.522 8.39649L403.04 2.9069C403.071 2.57458 402.618 2.44721 402.472 2.7472L400.861 6.04755C400.765 6.24617 400.494 6.27518 400.361 6.09873C400.339 6.07052 400.318 6.04229 400.297 6.01403C400.111 5.76508 399.716 5.90982 399.768 6.216C399.842 6.65232 399.939 7.08504 400.06 7.51246C400.08 7.58434 400.074 7.66123 400.041 7.72835L398.856 10.157C398.769 10.3359 398.535 10.3818 398.388 10.2478C398.187 10.0654 397.99 9.8821 397.796 9.69771C397.729 9.63416 397.696 9.54315 397.704 9.45123C397.803 8.3406 397.753 7.2244 397.557 6.12879C397.5 5.80695 397.044 5.83052 396.972 6.14946C396.848 6.70077 396.687 7.24462 396.492 7.77785C396.417 7.98289 396.153 8.03222 396.006 7.87097C395.476 7.29045 394.97 6.69056 394.49 6.07273C394.286 5.81068 393.875 6.00693 393.977 6.32262C394.36 7.50263 394.851 8.64969 395.446 9.75052C395.495 9.84098 395.496 9.95017 395.445 10.0399C395.289 10.3194 395.126 10.5975 394.949 10.8732C394.387 11.7426 393.757 12.571 393.064 13.3515C392.995 13.4296 392.867 13.3666 392.877 13.2627V13.2627C393.033 12.111 393.051 10.9466 392.93 9.79117C392.812 8.63442 392.562 7.49305 392.185 6.38673C391.938 5.63167 391.605 4.90557 391.192 4.22089C391.027 3.94589 390.6 4.12533 390.619 4.4458C390.658 5.10587 390.614 5.7696 390.486 6.42288C390.291 7.53599 389.974 8.62672 389.538 9.67712C389.191 10.512 388.781 11.3218 388.31 12.1001C388.183 12.3103 387.876 12.2767 387.801 12.0426C387.381 10.7214 387.218 9.34032 387.319 7.96686C387.341 7.66005 386.946 7.48819 386.766 7.73725C386.33 8.33849 385.938 8.96718 385.592 9.61898C385.474 9.8414 385.15 9.83966 385.047 9.60966C384.98 9.45873 384.915 9.30744 384.853 9.15571C384.811 9.05394 384.83 8.93773 384.9 8.85254C384.995 8.73574 385.088 8.61856 385.176 8.50075C385.591 7.97324 385.938 7.4041 386.213 6.80514C386.354 6.49656 385.95 6.30409 385.733 6.56451C385.424 6.93298 385.092 7.2833 384.737 7.6133C384.58 7.75897 384.329 7.68896 384.268 7.48391C384.057 6.77535 383.894 6.055 383.78 5.3273C383.733 5.02207 383.312 4.95858 383.203 5.24754C382.689 6.60624 382.348 8.01888 382.187 9.45588C382.177 9.54577 382.127 9.62685 382.051 9.67579C381.558 9.99328 381.04 10.3002 380.5 10.5962C380.357 10.6748 380.177 10.6223 380.098 10.4793C379.959 10.2281 379.822 9.97647 379.69 9.72407C379.122 8.63851 378.609 7.54337 378.163 6.43995C377.863 5.72337 377.608 4.99128 377.398 4.24742C377.313 3.94773 376.885 3.94131 376.818 4.2453C376.653 4.98826 376.536 5.74021 376.466 6.49714C376.351 7.63725 376.301 8.78231 376.315 9.92748C376.318 10.1569 376.324 10.3865 376.333 10.6162C376.34 10.8181 376.12 10.9465 375.95 10.8368V10.8368C375.874 10.7877 375.831 10.7015 375.837 10.6111L376 8.07427C376.019 7.76766 375.62 7.63318 375.45 7.88921L374.272 9.66448C374.269 9.67003 374.261 9.67136 374.256 9.6674V9.6674C374.252 9.66493 374.251 9.66088 374.251 9.65676C374.496 7.42523 374.072 5.18465 373.046 3.18393C372.895 2.88838 372.449 3.06135 372.477 3.39237C372.583 4.6907 372.44 5.99993 372.049 7.25542C371.985 7.46211 371.727 7.52335 371.574 7.37031C371.346 7.14188 371.124 6.90765 370.909 6.66791C370.686 6.41876 370.29 6.63532 370.426 6.94105C370.69 7.53431 371.002 8.10816 371.36 8.65735C371.417 8.74518 371.426 8.85638 371.381 8.95097C371.209 9.31024 371.02 9.66666 370.811 10.0191C370.745 10.1306 370.676 10.2418 370.606 10.3525C370.454 10.5917 370.092 10.4906 370.066 10.2084C369.917 8.53751 369.599 6.8841 369.117 5.27055C369.029 4.97513 368.607 5.00201 368.539 5.30263C368.121 7.14017 367.505 8.93331 366.7 10.6538C366.653 10.7549 366.514 10.7776 366.441 10.6937V10.6937C365.329 9.49635 364.514 8.08678 364.047 6.56748C363.954 6.26597 363.525 6.25999 363.478 6.57195C363.253 8.0721 363.427 9.60859 363.994 11.04V11.04C364.084 11.2734 363.747 11.5141 363.568 11.3399L363.172 10.9554C363.113 10.8981 363.08 10.819 363.081 10.7367C363.089 8.69231 362.737 6.66373 362.043 4.73321C361.934 4.43037 361.491 4.51041 361.461 4.8309C361.36 5.93189 361.15 7.02216 360.833 8.08727C360.769 8.29965 360.504 8.3652 360.345 8.21084L358.764 6.67595C358.735 6.64745 358.712 6.61322 358.696 6.57549C358.579 6.29827 358.452 6.02542 358.314 5.75752C358.166 5.4708 357.729 5.62214 357.734 5.94468C357.754 7.31687 357.462 8.68106 356.873 9.94342C356.78 10.1424 356.512 10.1641 356.385 9.9845C355.913 9.31201 355.503 8.60245 355.161 7.86399C355.025 7.56932 354.586 7.64104 354.599 7.96547C354.659 9.37277 354.988 10.7622 355.575 12.0656C355.583 12.0838 355.581 12.1049 355.569 12.1209V12.1209C355.549 12.1472 355.511 12.1506 355.487 12.1283C355.416 12.0618 355.344 11.9954 355.275 11.9278C354.192 10.8995 353.348 9.66962 352.798 8.317C352.777 8.26456 352.703 8.26243 352.68 8.31402V8.31402C352.652 8.3752 352.56 8.36041 352.553 8.29366C352.377 6.67119 352.018 5.07216 351.484 3.52351C351.378 3.21687 350.93 3.29168 350.902 3.61487C350.722 5.70426 350.235 7.75951 349.456 9.72158C349.332 10.034 348.858 9.91377 348.859 9.57759C348.864 8.54358 348.77 7.5108 348.579 6.49183C348.523 6.19438 348.112 6.1769 348.007 6.46071C347.62 7.50534 347.142 8.51827 346.579 9.4891C346.452 9.70619 346.137 9.67151 346.065 9.43102C345.747 8.3714 345.578 7.27821 345.56 6.17924C345.555 5.85822 345.12 5.73377 344.984 6.02484C344.538 6.9836 344.205 7.98621 343.992 9.01436C343.93 9.3173 343.485 9.37181 343.368 9.08565L342.798 7.69791C342.7 7.46004 342.368 7.44733 342.252 7.67704L340.409 11.3397C340.332 11.4923 339.977 11.3618 340.004 11.193V11.193C340.24 9.64179 340.13 8.06655 339.687 6.56683C339.596 6.25508 339.148 6.33034 339.107 6.65286C338.917 8.17578 338.406 9.65261 337.6 10.9949C337.596 11.0009 337.593 11.0069 337.589 11.0129C337.558 11.0641 337.484 11.0673 337.447 11.0197V11.0197C337.43 10.9975 337.425 10.9684 337.434 10.9419C337.782 9.88686 337.958 8.78794 337.956 7.68281C337.932 6.01376 337.521 4.3741 336.755 2.8783C336.62 2.61363 336.227 2.71106 336.192 3.00629C336.022 4.42472 335.561 5.80032 334.831 7.05476C334.728 7.23096 334.483 7.24662 334.35 7.09247C334.229 6.95284 334.106 6.8149 333.981 6.67867C333.772 6.45129 333.399 6.66642 333.462 6.96861C333.566 7.46492 333.641 7.96638 333.687 8.47083C333.692 8.51138 333.695 8.55202 333.699 8.59266C333.707 8.67026 333.685 8.74808 333.636 8.80915C333.502 8.9785 333.362 9.14637 333.218 9.31282C333.043 9.51496 332.713 9.39292 332.693 9.1262C332.588 7.76036 332.297 6.41402 331.827 5.12057C331.716 4.81394 331.265 4.90787 331.243 5.23339C331.216 5.65462 331.169 6.07456 331.103 6.49205C331.053 6.80551 330.612 6.81101 330.517 6.5083C330.05 5.02431 329.331 3.62237 328.388 2.35728C328.189 2.09069 327.766 2.33246 327.843 2.65603C328.292 4.5561 328.203 6.54463 327.57 8.41742C327.486 8.6716 327.393 8.92313 327.291 9.17165C327.187 9.42875 326.818 9.39999 326.726 9.1383C326.446 8.34832 326.071 7.59231 325.608 6.88512C325.426 6.60802 324.99 6.83182 325.039 7.15933C325.154 7.92424 325.154 8.70088 325.039 9.46616C324.992 9.78293 324.569 9.74924 324.511 9.4343V9.4343C324.459 9.15153 324.073 9.12752 323.96 9.39203C323.467 10.5472 322.831 11.6438 322.063 12.6586C321.979 12.7703 321.827 12.8066 321.701 12.7449C321.661 12.7249 321.62 12.7047 321.579 12.6843C321.444 12.6162 321.384 12.4561 321.438 12.3143L323.924 5.7973C324.037 5.50056 323.672 5.25439 323.44 5.47065L318.539 10.0268C318.417 10.1406 318.224 10.1329 318.119 10.0032C317.621 9.3912 317.262 8.68901 317.064 7.94047C317.034 7.82607 316.882 7.79599 316.819 7.89561V7.89561C316.744 8.01127 316.557 7.9655 316.553 7.82815C316.517 6.41658 316.634 5.00604 316.9 3.61832C316.962 3.2996 316.546 3.1004 316.357 3.3638C314.636 5.75345 313.335 8.3924 312.505 11.1795C312.501 11.1919 312.483 11.1927 312.478 11.1805V11.1805C311.95 9.67185 311.749 8.08437 311.878 6.51142C311.906 6.17684 311.446 6.00582 311.297 6.30632C311.041 6.81987 310.817 7.3474 310.626 7.88621C310.536 8.14098 310.182 8.17137 310.068 7.92619C309.578 6.86953 309.202 5.7693 308.945 4.64211C308.879 4.35025 308.474 4.3072 308.372 4.58861C307.995 5.62909 307.725 6.70186 307.568 7.79176C307.527 8.07453 307.148 8.16517 306.993 7.9249L305.84 6.13293C305.679 5.8825 305.291 5.99446 305.288 6.29223L305.236 11.4998C305.234 11.6822 305.026 11.787 304.877 11.6826V11.6826C304.831 11.6507 304.799 11.603 304.786 11.5489L303.797 7.30795C303.724 6.99628 303.279 6.99985 303.211 7.31265L302.593 10.1689C302.585 10.2052 302.544 10.2235 302.512 10.2052V10.2052C302.463 10.1771 302.409 10.2334 302.438 10.2823C302.464 10.3261 302.489 10.37 302.515 10.4139C302.527 10.4342 302.53 10.4583 302.525 10.4813L302.219 11.895C302.167 12.1364 301.863 12.2141 301.704 12.0247C301.484 11.7622 301.271 11.4977 301.062 11.2312C300.991 11.1401 300.98 11.0163 301.031 10.9125C301.157 10.6552 301.273 10.3976 301.379 10.1396C302.149 8.31371 302.388 6.33404 302.084 4.40355C302.035 4.09815 301.615 4.08943 301.514 4.38146C301.04 5.74142 300.336 7.0214 299.426 8.17039C299.298 8.33127 299.051 8.31191 298.948 8.13457C298.887 8.0291 298.826 7.92347 298.767 7.81767C298.399 7.19617 298.094 6.54379 297.857 5.86945C297.758 5.58859 297.361 5.58289 297.298 5.87394C297.295 5.88985 297.291 5.90577 297.288 5.9217C297.232 6.18765 296.877 6.28088 296.714 6.06367L295.453 4.38492C295.254 4.11999 294.836 4.32581 294.924 4.64517L295.832 7.92397C295.855 8.00916 295.732 8.05979 295.687 7.9839V7.9839C295.342 7.38139 294.925 6.82024 294.445 6.31105C294.221 6.07338 293.812 6.37436 293.885 6.69272C293.99 7.15169 294.03 7.62397 294.003 8.09716C293.996 8.43596 293.972 8.77573 293.941 9.11764C293.918 9.36585 293.62 9.47446 293.446 9.29559C293.163 9.00373 292.891 8.70159 292.633 8.38983C291.531 7.11095 290.752 5.61747 290.348 4.0222C290.276 3.73899 289.886 3.69014 289.783 3.96355C289.207 5.49254 289.044 7.13844 289.316 8.75088V8.75088C289.338 8.88417 289.161 8.96688 289.078 8.86019L286.997 6.18759C286.795 5.92804 286.383 6.13602 286.472 6.4528L287.158 8.90234C287.248 9.22391 286.824 9.42991 286.627 9.16048L281.997 2.83805C281.805 2.57639 281.392 2.76268 281.462 3.07949L282.928 9.77223L282.759 9.28953C282.685 9.07491 282.379 9.08028 282.312 9.29739V9.29739C282.263 9.45654 282.068 9.51558 281.94 9.40967C281.582 9.115 281.233 8.81717 280.897 8.51542C280.847 8.47128 280.814 8.41194 280.803 8.34688L280.586 7.16476C280.533 6.87194 280.122 6.84909 280.036 7.13417V7.13417C279.975 7.3376 279.72 7.40367 279.57 7.25299C278.763 6.44111 278.018 5.57677 277.341 4.66648C277.2 4.4772 276.905 4.60966 276.97 4.83643C277.027 5.03285 277.087 5.2282 277.152 5.4224C277.207 5.58779 276.909 5.76151 276.792 5.63286V5.63286C276.695 5.52709 276.519 5.61343 276.534 5.75593C276.68 7.12811 276.409 8.51483 275.748 9.7517V9.7517C275.708 9.82876 275.591 9.81484 275.565 9.73225C275.418 9.26665 275.243 8.80955 275.04 8.36315C274.925 8.10841 274.556 8.15482 274.479 8.42373C274.25 9.22244 273.938 9.99774 273.545 10.7379C273.49 10.8421 273.338 10.7933 273.346 10.6757V10.6757C273.446 9.12921 273.262 7.58144 272.805 6.10038C272.711 5.79368 272.268 5.86034 272.224 6.17829C272.016 7.68305 271.542 9.1475 270.818 10.5097V10.5097C270.755 10.6306 270.588 10.6484 270.497 10.5468C270.078 10.0758 269.68 9.59828 269.303 9.11429C269.236 9.02709 269.222 8.90955 269.268 8.80889L271.62 3.5927C271.759 3.28373 271.36 3.01693 271.128 3.26411L268.016 6.58112C267.88 6.7256 267.644 6.70137 267.544 6.53059C267.423 6.32463 267.306 6.11785 267.192 5.91025C267.053 5.65518 266.669 5.71576 266.635 6.00443C266.557 6.68233 266.52 7.36423 266.526 8.04663C266.526 8.12451 266.497 8.1998 266.444 8.2566L265.168 9.61646C265.005 9.79062 264.714 9.71334 264.658 9.48103C264.533 8.95511 264.409 8.42877 264.285 7.90202L263.337 3.94716C263.119 3.07976 262.895 2.21178 262.646 1.34632C262.556 1.03522 262.105 1.07701 262.059 1.39752C261.937 2.25287 261.789 3.10672 261.637 3.96091L261.133 6.6068C261.079 6.89551 260.675 6.94531 260.542 6.68352C260.423 6.45044 260.299 6.21975 260.17 5.99159C259.999 5.6884 259.519 5.91208 259.587 6.25371C259.825 7.45473 259.899 8.68151 259.804 9.90362C259.782 10.1895 259.415 10.2613 259.274 10.0112L258.162 8.0289C258.021 7.77621 257.638 7.8514 257.603 8.13897L257.53 8.73258C257.492 9.03985 257.086 9.08912 256.988 8.79538C256.491 7.30415 256.19 5.76131 256.09 4.20129C256.07 3.88512 255.639 3.79105 255.514 4.08231C254.7 5.98588 254.193 7.99699 254.014 10.0479C253.913 11.2913 253.941 12.5408 254.099 13.7784C254.122 13.9641 253.975 14.1288 253.788 14.1212C253.729 14.1188 253.671 14.1164 253.612 14.1139C253.428 14.1061 253.295 13.9364 253.325 13.7551C253.736 11.3267 253.443 8.84482 252.489 6.56976C252.364 6.2738 251.927 6.38244 251.911 6.70299C251.87 7.52283 251.744 8.33804 251.536 9.13712C251.547 9.0509 251.559 8.96458 251.567 8.87839C251.741 6.8084 251.29 4.74325 250.28 2.91782C250.126 2.64015 249.708 2.79354 249.718 3.11074C249.779 5.03728 249.26 6.95034 248.208 8.62233V8.62233C248.083 8.83208 247.771 8.76626 247.73 8.52542L247.362 6.34969C247.311 6.04562 246.889 6.00765 246.784 6.29766L246.352 7.49246C246.272 7.71402 245.98 7.76036 245.84 7.57103C245.014 6.45551 244.315 5.2613 243.755 4.00848C243.626 3.71919 243.197 3.78279 243.19 4.0996C243.142 6.16461 243.528 8.22255 244.33 10.1531C244.498 10.5662 244.685 10.9786 244.891 11.3901C244.91 11.4287 244.912 11.4734 244.898 11.514V11.514C244.848 11.6514 244.653 11.6524 244.599 11.5164C244.11 10.2734 243.491 9.08019 242.75 7.95452C242.593 7.71535 242.223 7.82359 242.197 8.10871C242.155 8.57457 242.09 9.03831 242.004 9.49849C241.944 9.82016 241.487 9.79655 241.42 9.47631C241.165 8.27007 240.767 7.09455 240.233 5.97218C240.096 5.6844 239.666 5.8038 239.66 6.12242C239.633 7.52902 239.392 8.92626 238.943 10.271C238.877 10.4714 238.627 10.5342 238.471 10.3924C237.884 9.86188 237.319 9.32407 236.776 8.77901C236.713 8.71611 236.682 8.62854 236.69 8.54013L237.072 4.47029C237.101 4.1627 236.702 4.0176 236.526 4.27181L235.07 6.38038C234.959 6.54155 234.725 6.55457 234.598 6.40531C233.542 5.16249 232.581 3.85058 231.723 2.4796C231.554 2.20968 231.138 2.34294 231.178 2.65895C231.4 4.43418 231.828 6.18114 232.453 7.86842C232.563 8.16496 232.197 8.43358 231.954 8.23066L228.886 5.66375C228.647 5.46447 228.301 5.71415 228.414 6.00333L230.914 12.3825C230.916 12.3886 230.916 12.3955 230.912 12.4009V12.4009C230.905 12.4104 230.892 12.4123 230.883 12.405C229.247 11.0617 227.977 9.36844 227.179 7.46899C227.125 7.3404 226.939 7.35059 226.908 7.48646V7.48646C226.873 7.63639 226.648 7.64992 226.602 7.50295L225.223 3.0649C225.132 2.7727 224.714 2.788 224.644 3.08605L223.134 9.58991C223.078 9.82974 222.774 9.90307 222.62 9.71119C221.719 8.59026 220.943 7.38326 220.307 6.1097C220.274 6.04436 220.28 5.96654 220.32 5.90603C220.368 5.83577 220.416 5.76553 220.463 5.6953C220.569 5.54007 220.376 5.35712 220.228 5.47255V5.47255C220.144 5.53778 220.022 5.50742 219.979 5.41025C219.911 5.25474 219.845 5.09824 219.782 4.94081C219.665 4.64831 219.235 4.68794 219.209 5.00193C219.178 5.38323 219.163 5.7657 219.165 6.14842C219.165 6.24168 219.123 6.33025 219.05 6.38822C218.473 6.84665 217.903 7.3081 217.342 7.77255C217.192 7.89592 216.967 7.84875 216.887 7.67272C216.722 7.31125 216.577 6.94199 216.453 6.56647C216.358 6.2794 215.947 6.26888 215.879 6.56338C215.689 7.38356 215.603 8.22332 215.625 9.0648C215.627 9.15654 215.589 9.24481 215.519 9.30483C215.38 9.42557 215.241 9.54681 215.103 9.66813C214.949 9.80352 214.708 9.74744 214.634 9.55639C213.794 7.40541 213.371 5.1323 213.38 2.8451C213.381 2.52359 212.947 2.40265 212.808 2.69263C211.864 4.66492 211.245 6.76513 210.976 8.92006C210.928 9.32235 210.893 9.72561 210.872 10.1298C210.859 10.3862 210.555 10.5166 210.373 10.3362C209.468 9.44295 208.713 8.42568 208.132 7.31939C208 7.06712 207.626 7.10515 207.584 7.38704C207.522 7.81034 207.494 8.23762 207.501 8.66513C207.505 8.92278 207.211 9.0908 207.001 8.94134L206.574 8.63764C206.53 8.60584 206.495 8.56245 206.473 8.51196C206.075 7.56974 205.811 6.58382 205.687 5.58007C205.647 5.25808 205.199 5.18103 205.104 5.49127C204.632 7.03384 204.499 8.6568 204.722 10.2589V10.2589C204.76 10.5253 204.387 10.6932 204.23 10.4742C202.879 8.58466 201.629 6.63195 200.486 4.62354C200.328 4.34655 199.905 4.4684 199.929 4.78622C200.077 6.75309 200.348 8.71007 200.739 10.647C200.8 10.9482 200.431 11.1365 200.235 10.8997C199.301 9.77044 198.491 8.55385 197.819 7.26904C197.673 6.98915 197.253 7.07911 197.266 7.39471C197.31 8.50168 197.482 9.60204 197.78 10.676C197.727 10.5311 197.679 10.3841 197.639 10.2356C197.573 9.99526 197.266 9.90225 197.109 10.0955C196.578 10.7476 196.169 11.4808 195.899 12.2635C195.83 12.4633 195.585 12.547 195.421 12.4147C195.301 12.319 195.186 12.2218 195.075 12.1225C194.102 11.2514 193.429 10.2639 193.177 9.21542C193.112 8.94532 192.752 8.84194 192.615 9.08367C192.384 9.49147 192.214 9.92923 192.112 10.3843C191.953 11.0983 191.963 11.8369 192.144 12.5465C192.508 13.9835 193.564 15.4236 195.22 16.7338C195.221 16.7346 195.223 16.7348 195.224 16.7343V16.7343C195.226 16.7333 195.229 16.735 195.229 16.7375V20.7C195.229 20.8657 195.363 21 195.529 21H407.7C407.866 21 408 20.8657 408 20.7V13.0852C408 12.9753 407.938 12.8732 407.842 12.8203C404.89 11.2003 404.636 10.6486 402.611 8.63952ZM402.099 12.8826C402.126 12.6011 402.496 12.5062 402.662 12.7354C402.945 13.1281 403.242 13.5121 403.552 13.8866C403.637 13.9888 403.583 14.1448 403.453 14.1702V14.1702C403.407 14.1792 403.359 14.1693 403.321 14.1427C402.942 13.8812 402.568 13.6176 402.202 13.3509C402.117 13.2888 402.071 13.1863 402.081 13.0814L402.099 12.8826ZM396.92 12.9091C396.993 12.7077 397.267 12.6671 397.393 12.8404V12.8404C397.449 12.918 397.459 13.0212 397.417 13.1075V13.1075C397.241 13.4678 397.072 13.816 396.881 14.14C396.76 14.3505 396.625 14.5534 396.476 14.7474C396.447 14.7857 396.402 14.8081 396.353 14.8092V14.8092C396.231 14.8118 396.151 14.6822 396.205 14.5726C396.476 14.0308 396.714 13.4754 396.92 12.9091ZM381.86 11.6984V11.6984C381.956 11.627 382.092 11.6915 382.097 11.811C382.108 12.1247 382.129 12.438 382.159 12.7505C382.189 13.0692 381.763 13.2377 381.588 12.9698C381.582 12.9604 381.576 12.951 381.57 12.9416C381.468 12.7846 381.368 12.6271 381.269 12.4692C381.184 12.3336 381.222 12.1554 381.353 12.0636C381.525 11.9429 381.695 11.8213 381.86 11.6984ZM376.765 14.733C376.768 14.7466 376.757 14.7592 376.743 14.7592L376.741 14.7592C376.717 14.7591 376.711 14.727 376.733 14.717V14.717C376.746 14.7109 376.762 14.7188 376.765 14.733V14.733ZM359.435 11.0585C359.438 11.0219 359.441 10.9854 359.444 10.9488C359.453 10.8118 359.667 10.7795 359.71 10.9099V10.9099C359.719 10.9394 359.718 10.9717 359.705 10.9998C359.704 11.0023 359.703 11.0047 359.701 11.0072C359.683 11.0457 359.664 11.0842 359.644 11.1226C359.592 11.2275 359.426 11.1755 359.435 11.0585V11.0585ZM352.522 14.4889C352.553 14.5649 352.498 14.6502 352.416 14.6499C352.409 14.6498 352.402 14.6498 352.394 14.6498C352.322 14.6494 352.269 14.5829 352.283 14.5122V14.5122C352.306 14.3964 352.477 14.3795 352.522 14.4889V14.4889ZM342.59 14.5367C342.62 14.537 342.635 14.5737 342.613 14.5954V14.5954C342.607 14.602 342.598 14.6058 342.588 14.6057L340.346 14.5956C340.334 14.5956 340.323 14.5906 340.315 14.5821V14.5821C340.291 14.5555 340.31 14.5135 340.346 14.5139L342.59 14.5367ZM279.251 9.66496C279.261 9.68085 279.264 9.70074 279.259 9.71895L279.221 9.84305C279.209 9.88418 279.154 9.88107 279.144 9.83929V9.83929C279.135 9.80161 279.125 9.76397 279.116 9.72638C279.097 9.6531 279.209 9.60174 279.251 9.66496V9.66496ZM267.613 13.8552C267.688 14.0541 267.542 14.2684 267.33 14.2675L267.269 14.2672C267.052 14.2662 266.908 14.0419 266.997 13.8439L267.021 13.7918C267.134 13.5412 267.503 13.5598 267.599 13.8172C267.604 13.8299 267.609 13.8425 267.613 13.8552ZM218.789 8.27175C218.938 8.03087 219.312 8.11436 219.359 8.39368C219.525 9.39221 219.789 10.3736 220.147 11.3255C220.263 11.6344 219.878 11.9063 219.651 11.6668C219.376 11.3767 219.111 11.0785 218.855 10.7726C218.581 10.4424 218.328 10.107 218.09 9.76769C218.024 9.67275 218.02 9.54788 218.079 9.44809C218.31 9.05554 218.547 8.66343 218.789 8.27175ZM216.248 12.7833C216.282 12.7174 216.378 12.7228 216.405 12.7916C216.558 13.1787 216.73 13.559 216.92 13.9313C216.685 13.5785 216.463 13.223 216.251 12.8654C216.236 12.8403 216.235 12.8093 216.248 12.7833V12.7833Z" fill="#66B34D"/>
</svg>
