<svg width="64" height="64" viewBox="0 0 64 64" fill="none" xmlns="http://www.w3.org/2000/svg">
<rect width="64" height="64" rx="19" fill="white" fill-opacity="0.3"/>
<g clip-path="url(#clip0_104_3016)">
<path d="M18.6143 30.3875H45.5525V49.2218H18.6143V30.3875Z" fill="#FFDD09"/>
<path d="M44.7071 31.1356C44.729 31.1356 44.7499 31.1443 44.7654 31.1598C44.7808 31.1752 44.7895 31.1961 44.7895 31.218V48.421C44.7895 48.4428 44.7808 48.4638 44.7654 48.4792C44.7499 48.4946 44.729 48.5033 44.7071 48.5033H19.4451C19.4233 48.5033 19.4023 48.4946 19.3869 48.4792C19.3715 48.4638 19.3628 48.4428 19.3628 48.421V31.2105C19.3628 31.1886 19.3715 31.1677 19.3869 31.1523C19.4023 31.1368 19.4233 31.1282 19.4451 31.1282H44.7071M44.7071 29.6316H19.4451C19.0263 29.6316 18.6248 29.7979 18.3287 30.094C18.0326 30.3901 17.8662 30.7917 17.8662 31.2105V48.421C17.8662 48.8397 18.0326 49.2413 18.3287 49.5374C18.6248 49.8335 19.0263 49.9999 19.4451 49.9999H44.7071C44.9157 50.0019 45.1227 49.9625 45.316 49.884C45.5092 49.8056 45.6851 49.6896 45.8333 49.5428C45.9815 49.3959 46.0991 49.2212 46.1794 49.0287C46.2597 48.8361 46.301 48.6296 46.301 48.421V31.2105C46.3 31.0025 46.258 30.7968 46.1772 30.6051C46.0965 30.4134 45.9787 30.2396 45.8306 30.0936C45.6825 29.9475 45.507 29.8322 45.3142 29.7542C45.1214 29.6762 44.9151 29.6371 44.7071 29.6391V29.6316Z" fill="black"/>
<path d="M16.2725 24.1917H47.7004V30.8065H16.2725V24.1917Z" fill="#FD9808"/>
<path d="M46.9523 24.9399V30.0582H17.021V24.9399H46.9523ZM47.1469 23.4434H16.8264C16.4811 23.4434 16.1499 23.5805 15.9058 23.8247C15.6616 24.0689 15.5244 24.4001 15.5244 24.7454V30.2453C15.5244 30.5906 15.6616 30.9217 15.9058 31.1659C16.1499 31.4101 16.4811 31.5473 16.8264 31.5473H47.1469C47.4909 31.5473 47.821 31.4111 48.0649 31.1686C48.3089 30.926 48.4469 30.5968 48.4489 30.2527V24.7454C48.4489 24.4001 48.3117 24.0689 48.0676 23.8247C47.8234 23.5805 47.4922 23.4434 47.1469 23.4434Z" fill="black"/>
<path d="M40.3667 15.4966C40.7688 15.5098 41.1643 15.6026 41.5303 15.7696C41.8964 15.9365 42.2257 16.1744 42.4993 16.4693C43.9959 17.906 43.5694 18.9761 43.4272 19.3278C42.6789 21.206 39.3041 23.2114 34.5376 23.2114C33.7162 23.2489 32.8971 23.0978 32.1431 22.7699C33.894 20.0387 37.4185 15.4966 40.3667 15.4966ZM40.3667 14C35.226 14 30.0703 23.3087 30.0703 23.3087C31.3635 24.2741 32.9471 24.7703 34.56 24.7154C42.3721 24.7154 47.9543 19.5972 43.5394 15.3918C43.1291 14.9612 42.6374 14.6165 42.0927 14.3775C41.5481 14.1386 40.9614 14.0103 40.3667 14Z" fill="black"/>
<path d="M31.2383 23.4434H32.7348V49.97H31.2383V23.4434Z" fill="black"/>
<path d="M23.6953 15.5489C27.5414 15.5489 29.8985 20.2556 30.9386 22.9794C22.9245 22.6726 20.4103 19.9413 20.2157 18.2876C20.0736 17.1128 20.964 16.0428 22.4606 15.706C22.8769 15.6036 23.3039 15.5508 23.7327 15.5489M23.7327 14.0523C23.1731 14.0494 22.6152 14.1148 22.0715 14.2469C16.5267 15.5863 16.4593 24.4759 32.4502 24.4759H33.0189C33.0189 24.4759 30.325 14.0523 23.6953 14.0523H23.7327Z" fill="black"/>
</g>
<defs>
<clipPath id="clip0_104_3016">
<rect width="36" height="36" fill="white" transform="translate(14 14)"/>
</clipPath>
</defs>
</svg>
