<svg width="24" height="24" viewBox="0 0 24 24" fill="none" xmlns="http://www.w3.org/2000/svg">
<g clip-path="url(#clip0_104_2952)">
<path d="M1.2002 10.8001H2.80018V9.20007H1.2002V10.8001Z" fill="#FDCC00"/>
<path d="M4.40039 10.8001H6.00038V9.20007H4.40039V10.8001Z" fill="#FDCC00"/>
<path d="M9.60059 6.8001H11.2006V5.20007H9.60059V6.8001Z" fill="#FDCC00"/>
<path d="M12.7998 6.8001H14.3998V5.20007H12.7998V6.8001Z" fill="#FDCC00"/>
<path d="M18 2.80006H19.6V1.20007H18V2.80006Z" fill="#FDCC00"/>
<path d="M21.2002 2.80006H22.8002V1.20007H21.2002V2.80006Z" fill="#FDCC00"/>
<path d="M0.400391 18.8001H6.80042V14.8H0.400391V18.8001Z" fill="#FFE100"/>
<path d="M0.400391 22.8H6.80042V18.8H0.400391V22.8Z" fill="#FFE100"/>
<path d="M6.80042 14.8001H0.400391V11.6001C0.400391 11.16 0.760391 10.8 1.20041 10.8H6.00041C6.44042 10.8 6.80042 11.16 6.80042 11.6001V14.8001Z" fill="#FFE100"/>
<path d="M8.80078 14.8H15.2008V10.8H8.80078V14.8Z" fill="#FFE100"/>
<path d="M8.80078 18.8001H15.2008V14.8H8.80078V18.8001Z" fill="#FFE100"/>
<path d="M8.80078 22.8H15.2008V18.8H8.80078V22.8Z" fill="#FFE100"/>
<path d="M15.2008 10.8001H8.80078V7.60006C8.80078 7.16005 9.16078 6.80005 9.6008 6.80005H14.4008C14.8408 6.80005 15.2008 7.16005 15.2008 7.60006V10.8001Z" fill="#FFE100"/>
<path d="M17.2002 10.8H23.6002V6.80005H17.2002V10.8Z" fill="#FFE100"/>
<path d="M17.2002 14.8H23.6002V10.8H17.2002V14.8Z" fill="#FFE100"/>
<path d="M17.2002 18.8001H23.6002V14.8H17.2002V18.8001Z" fill="#FFE100"/>
<path d="M17.2002 22.8H23.6002V18.8H17.2002V22.8Z" fill="#FFE100"/>
<path d="M23.6002 6.80008H17.2002V3.60006C17.2002 3.16005 17.5602 2.80005 18.0002 2.80005H22.8002C23.2402 2.80005 23.6002 3.16005 23.6002 3.60006V6.80008Z" fill="#FFE100"/>
<path d="M22.3994 10.8H23.5994V6.80005H22.3994V10.8Z" fill="#FFA800"/>
<path d="M22.3994 14.8H23.5994V10.8H22.3994V14.8Z" fill="#FFA800"/>
<path d="M22.3994 18.8001H23.5994V14.8H22.3994V18.8001Z" fill="#FFA800"/>
<path d="M22.3994 22.8H23.5994V18.8H22.3994V22.8Z" fill="#FFA800"/>
<path d="M22.7996 2.80005H21.5996C22.0396 2.80005 22.3996 3.16005 22.3996 3.60006V6.80008H23.5996V3.60006C23.5996 3.16005 23.2396 2.80005 22.7996 2.80005Z" fill="#FFA800"/>
<path d="M0.400391 18.8001H1.60039V14.8H0.400391V18.8001Z" fill="white"/>
<path d="M0.400391 22.8H1.60039V18.8H0.400391V22.8Z" fill="white"/>
<path d="M1.20041 10.8H2.40041C1.96039 10.8 1.60039 11.16 1.60039 11.6001V14.8001H0.400391V11.6001C0.400391 11.16 0.760391 10.8 1.20041 10.8Z" fill="white"/>
<path d="M6.80002 19.2H0.399984C0.159984 19.2 0 19.04 0 18.8V14.8C0 14.56 0.159984 14.4 0.399984 14.4H6.79997C7.03997 14.4 7.19995 14.56 7.19995 14.8V18.8C7.2 19.04 7.04002 19.2 6.80002 19.2ZM0.800016 18.4H6.40003V15.1999H0.800016V18.4Z" fill="black"/>
<path d="M6.80002 23.2H0.399984C0.159984 23.2 0 23.04 0 22.8V18.8C0 18.56 0.159984 18.4 0.399984 18.4H6.79997C7.03997 18.4 7.19995 18.56 7.19995 18.8V22.8C7.2 23.04 7.04002 23.2 6.80002 23.2ZM0.800016 22.4H6.40003V19.2H0.800016V22.4Z" fill="black"/>
<path d="M2.79977 11.2H1.19979C0.959789 11.2 0.799805 11.04 0.799805 10.8V9.20003C0.799805 8.96003 0.959789 8.80005 1.19979 8.80005H2.79977C3.03977 8.80005 3.19976 8.96003 3.19976 9.20003V10.8C3.1998 11.04 3.03977 11.2 2.79977 11.2ZM1.59977 10.4H2.39979V9.60002H1.59977V10.4Z" fill="black"/>
<path d="M5.99997 11.2H4.39998C4.15998 11.2 4 11.04 4 10.8V9.20003C4 8.96003 4.15998 8.80005 4.39998 8.80005H5.99997C6.23997 8.80005 6.39995 8.96003 6.39995 9.20003V10.8C6.39995 11.04 6.23997 11.2 5.99997 11.2ZM4.79997 10.4H5.59998V9.60002H4.79997V10.4Z" fill="black"/>
<path d="M6.80002 15.2H0.399984C0.159984 15.2 0 15.04 0 14.8V11.6C0 10.92 0.519984 10.4 1.2 10.4H6C6.68002 10.4 7.2 10.92 7.2 11.6V14.8C7.2 15.04 7.04002 15.2 6.80002 15.2ZM0.800016 14.4H6.40003V11.6C6.40003 11.36 6.24005 11.2 6.00005 11.2H1.2C0.96 11.2 0.800016 11.36 0.800016 11.6V14.4Z" fill="black"/>
<path d="M15.2004 15.2H8.80038C8.56038 15.2 8.40039 15.04 8.40039 14.8V10.8C8.40039 10.56 8.56038 10.4 8.80038 10.4H15.2004C15.4404 10.4 15.6003 10.56 15.6003 10.8V14.8C15.6004 15.04 15.4404 15.2 15.2004 15.2ZM9.20041 14.4H14.8004V11.2H9.20041V14.4Z" fill="black"/>
<path d="M15.2004 19.2H8.80038C8.56038 19.2 8.40039 19.04 8.40039 18.8V14.8C8.40039 14.56 8.56038 14.4 8.80038 14.4H15.2004C15.4404 14.4 15.6003 14.56 15.6003 14.8V18.8C15.6004 19.04 15.4404 19.2 15.2004 19.2ZM9.20041 18.4H14.8004V15.1999H9.20041V18.4Z" fill="black"/>
<path d="M15.2004 23.2H8.80038C8.56038 23.2 8.40039 23.04 8.40039 22.8V18.8C8.40039 18.56 8.56038 18.4 8.80038 18.4H15.2004C15.4404 18.4 15.6003 18.56 15.6003 18.8V22.8C15.6004 23.04 15.4404 23.2 15.2004 23.2ZM9.20041 22.4H14.8004V19.2H9.20041V22.4Z" fill="black"/>
<path d="M11.2002 7.2H9.60018C9.36018 7.2 9.2002 7.04002 9.2002 6.80002V5.20003C9.2002 4.96003 9.36018 4.80005 9.60018 4.80005H11.2002C11.4402 4.80005 11.6001 4.96003 11.6001 5.20003V6.80002C11.6002 7.04002 11.4402 7.2 11.2002 7.2ZM10.0002 6.39999H10.8002V5.59997H10.0002V6.39999Z" fill="black"/>
<path d="M14.4004 7.2H12.8004C12.5604 7.2 12.4004 7.04002 12.4004 6.80002V5.20003C12.4004 4.96003 12.5604 4.80005 12.8004 4.80005H14.4004C14.6404 4.80005 14.8003 4.96003 14.8003 5.20003V6.80002C14.8003 7.04002 14.6404 7.2 14.4004 7.2ZM13.2004 6.39999H14.0004V5.59997H13.2004V6.39999Z" fill="black"/>
<path d="M15.2004 11.2H8.80038C8.56038 11.2 8.40039 11.04 8.40039 10.8V7.60002C8.40039 6.92001 8.92038 6.40002 9.60039 6.40002H14.4004C15.0804 6.40002 15.6004 6.92001 15.6004 7.60002V10.8C15.6004 11.04 15.4404 11.2 15.2004 11.2ZM9.20041 10.4001H14.8004V7.60007C14.8004 7.36007 14.6404 7.20009 14.4004 7.20009H9.60039C9.36039 7.20009 9.20041 7.36007 9.20041 7.60007V10.4001Z" fill="black"/>
<path d="M23.5998 11.2H17.1998C16.9598 11.2 16.7998 11.04 16.7998 10.8V6.80001C16.7998 6.56001 16.9598 6.40002 17.1998 6.40002H23.5998C23.8398 6.40002 23.9998 6.56001 23.9998 6.80001V10.8C23.9998 11.04 23.8398 11.2 23.5998 11.2ZM17.5998 10.4H23.1998V7.19999H17.5998V10.4Z" fill="black"/>
<path d="M23.5998 15.2H17.1998C16.9598 15.2 16.7998 15.04 16.7998 14.8V10.8C16.7998 10.56 16.9598 10.4 17.1998 10.4H23.5998C23.8398 10.4 23.9998 10.56 23.9998 10.8V14.8C23.9998 15.04 23.8398 15.2 23.5998 15.2ZM17.5998 14.4H23.1998V11.2H17.5998V14.4Z" fill="black"/>
<path d="M23.5998 19.2H17.1998C16.9598 19.2 16.7998 19.04 16.7998 18.8V14.8C16.7998 14.56 16.9598 14.4 17.1998 14.4H23.5998C23.8398 14.4 23.9998 14.56 23.9998 14.8V18.8C23.9998 19.04 23.8398 19.2 23.5998 19.2ZM17.5998 18.4H23.1998V15.1999H17.5998V18.4Z" fill="black"/>
<path d="M23.5998 23.2H17.1998C16.9598 23.2 16.7998 23.04 16.7998 22.8V18.8C16.7998 18.56 16.9598 18.4 17.1998 18.4H23.5998C23.8398 18.4 23.9998 18.56 23.9998 18.8V22.8C23.9998 23.04 23.8398 23.2 23.5998 23.2ZM17.5998 22.4H23.1998V19.2H17.5998V22.4Z" fill="black"/>
<path d="M19.5996 3.20005H17.9996C17.7596 3.20005 17.5996 3.04006 17.5996 2.80006V1.20003C17.5996 0.960033 17.7596 0.800049 17.9996 0.800049H19.5996C19.8396 0.800049 19.9996 0.960033 19.9996 1.20003V2.80002C19.9996 3.04002 19.8396 3.20005 19.5996 3.20005ZM18.3996 2.40003H19.1996V1.60002H18.3996V2.40003Z" fill="black"/>
<path d="M22.7998 3.20005H21.1998C20.9598 3.20005 20.7998 3.04006 20.7998 2.80006V1.20003C20.7998 0.960033 20.9598 0.800049 21.1998 0.800049H22.7998C23.0398 0.800049 23.1998 0.960033 23.1998 1.20003V2.80002C23.1998 3.04002 23.0398 3.20005 22.7998 3.20005ZM21.5998 2.40003H22.3998V1.60002H21.5998V2.40003Z" fill="black"/>
<path d="M23.5998 7.20003H17.1998C16.9598 7.20003 16.7998 7.04004 16.7998 6.80004V3.60002C16.7998 2.92001 17.3198 2.40002 17.9998 2.40002H22.7998C23.4798 2.40002 23.9998 2.92001 23.9998 3.60002V6.80004C23.9998 7.04004 23.8398 7.20003 23.5998 7.20003ZM17.5998 6.40001H23.1998V3.60002C23.1998 3.36002 23.0399 3.20004 22.7999 3.20004H17.9998C17.7598 3.20004 17.5998 3.36002 17.5998 3.60002V6.40001Z" fill="black"/>
</g>
<defs>
<clipPath id="clip0_104_2952">
<rect width="24" height="24" fill="white"/>
</clipPath>
</defs>
</svg>
