<svg width="24" height="24" viewBox="0 0 24 24" fill="none" xmlns="http://www.w3.org/2000/svg">
<g opacity="0.5">
<path fill-rule="evenodd" clip-rule="evenodd" d="M1.9502 6C1.9502 5.17157 2.62177 4.5 3.4502 4.5H3.5502C4.37862 4.5 5.0502 5.17157 5.0502 6C5.0502 6.82843 4.37862 7.5 3.5502 7.5H3.4502C2.62177 7.5 1.9502 6.82843 1.9502 6Z" fill="white"/>
<path fill-rule="evenodd" clip-rule="evenodd" d="M1.9502 12C1.9502 11.1716 2.62177 10.5 3.4502 10.5H3.5502C4.37862 10.5 5.0502 11.1716 5.0502 12C5.0502 12.8284 4.37862 13.5 3.5502 13.5H3.4502C2.62177 13.5 1.9502 12.8284 1.9502 12Z" fill="white"/>
<path fill-rule="evenodd" clip-rule="evenodd" d="M1.9502 18C1.9502 17.1716 2.62177 16.5 3.4502 16.5H3.5502C4.37862 16.5 5.0502 17.1716 5.0502 18C5.0502 18.8284 4.37862 19.5 3.5502 19.5H3.4502C2.62177 19.5 1.9502 18.8284 1.9502 18Z" fill="white"/>
<path fill-rule="evenodd" clip-rule="evenodd" d="M8 6C8 5.44772 8.44772 5 9 5H21C21.5523 5 22 5.44772 22 6C22 6.55228 21.5523 7 21 7H9C8.44772 7 8 6.55228 8 6ZM8 12C8 11.4477 8.44772 11 9 11H21C21.5523 11 22 11.4477 22 12C22 12.5523 21.5523 13 21 13H9C8.44772 13 8 12.5523 8 12ZM8 18C8 17.4477 8.44772 17 9 17H21C21.5523 17 22 17.4477 22 18C22 18.5523 21.5523 19 21 19H9C8.44772 19 8 18.5523 8 18Z" fill="white"/>
</g>
</svg>
