<svg width="97" height="48" viewBox="0 0 97 48" fill="none" xmlns="http://www.w3.org/2000/svg">
<g opacity="0.7" clip-path="url(#clip0_101_2263)">
<path d="M16.6619 35.8171C40.1649 30.2131 41.523 29.884 44.6399 29.9542C50.1558 29.9811 55.6406 30.7815 60.9341 32.3318C63.4754 33.2043 66.5099 34.5246 71.0131 34.5925C73.7431 34.6337 76.6731 34.636 79.0197 32.6144C81.4623 30.5102 83.1522 26.3172 81.4369 23.6321C79.7255 20.9533 75.4871 21.125 74.9755 21.1526C71.9223 21.317 69.6511 23.0665 69.4441 22.7897C69.2512 22.5319 71.663 21.5432 72.413 19.4573C73.2882 17.0235 71.6875 13.7663 69.5583 12.0946C66.7443 9.8853 62.3509 9.9299 58.6417 12.2919C58.8124 10.1359 58.3684 7.97567 57.3613 6.0617C55.8822 3.41597 53.4393 1.44287 50.5416 0.553398C45.008 -1.2146 40.2599 1.764 39.2627 2.3895C37.1574 3.75319 35.4047 5.59577 34.1479 7.7666C33.033 9.58168 32.2461 11.5788 31.8232 13.6665C29.2571 12.2454 26.2699 11.7814 23.3936 12.3569C20.7883 12.966 18.4452 14.3902 16.705 16.4225C15.0412 18.2414 13.8674 20.4537 13.2939 22.8512C12.2516 22.0647 11.0562 21.505 9.78458 21.2082C8.51299 20.9113 7.19335 20.8839 5.91051 21.1276C4.15953 21.5044 2.59012 22.4688 1.46291 23.8607C1.11983 24.3057 0.837672 24.7945 0.623914 25.3141C0.325485 26.1156 0.165047 26.962 0.149414 27.8171C0.234169 29.3515 0.631267 30.8525 1.31639 32.2281C2.0015 33.6037 2.96022 34.825 4.13382 35.8171C7.14651 38.0261 11.0758 37.149 16.6619 35.8171Z" fill="white"/>
<path d="M51.9989 10.9271C54.3499 11.6058 56.4696 12.9166 58.127 14.7169C59.6139 13.932 61.288 13.5708 62.9663 13.6728C63.9908 13.6833 65.002 13.9061 65.9361 14.3271C66.8702 14.748 67.7069 15.358 68.3935 16.1185C69.0991 16.9989 69.5476 18.0573 69.6893 19.1766C69.8787 20.8768 69.1622 21.8384 69.5954 22.2106C70.1885 22.7201 71.619 20.9558 73.8735 20.5219C76.5497 20.0068 80.4629 21.1318 81.7353 24.1329C82.0409 24.998 82.165 25.9167 82.0997 26.8319C82.0345 27.747 81.7813 28.6389 81.3561 29.4518C82.4567 29.1511 83.6199 29.1668 84.7121 29.4972C85.8042 29.8276 86.7811 30.4592 87.5305 31.3196C88.8726 32.914 89.4965 35.4603 88.47 37.1537C87.0357 39.5201 82.7488 39.3497 81.0049 39.2804C78.0897 39.1645 76.9777 38.265 74.6466 39.0205C73.5777 39.4063 72.5559 39.9116 71.6004 40.5266C70.6393 41.1477 69.7247 41.8378 68.8638 42.5916C65.0349 45.5273 59.2202 44.3663 58.3169 44.1859C56.4994 43.823 57.0676 43.5936 54.6179 42.9967C51.7457 42.1423 48.699 42.0602 45.785 42.7587C45.01 42.9772 44.2568 43.2668 43.5352 43.6239C39.0503 45.7498 27.4288 46.7027 15.4083 41.993C9.80677 39.7983 5.58847 38.5713 2.67937 34.4159C1.90927 33.3159 -1.34573 28.669 0.623773 25.3141C1.93717 23.0769 5.01537 22.3656 7.26207 22.5865C8.45224 22.7375 9.59574 23.1437 10.6144 23.7775C11.633 24.4113 12.5026 25.2577 13.1639 26.2587C14.0966 23.7229 15.8455 21.5689 18.1356 20.1351C19.6802 19.1809 21.4328 18.6148 23.2438 18.4854C24.8878 18.4632 26.5187 18.7811 28.034 19.4192C29.5493 20.0572 30.9164 21.0016 32.0494 22.1931C32.8975 20.3612 35.85 14.6022 42.3421 11.9281C45.3477 10.4854 48.7612 10.1316 51.9989 10.9271Z" fill="#E9F4F6"/>
<path d="M95.4405 34.9806C94.9344 34.5173 94.3216 34.1863 93.6567 34.0169C92.9918 33.8475 92.2953 33.845 91.6292 34.0097C90.5597 34.3367 90.3784 35.0191 89.7619 34.9163C88.7774 34.7521 88.9999 33.0181 87.5302 31.3196C86.4203 30.0864 84.8788 29.3272 83.2246 29.199C82.5918 29.1754 81.9596 29.2609 81.3558 29.4518C81.1913 31.2445 80.4004 32.9218 79.1221 34.1893C78.2065 34.9639 77.1345 35.5317 75.9794 35.8542C74.8243 36.1767 73.6132 36.2462 72.4288 36.058C69.0637 35.539 68.1355 33.1091 66.0213 33.6675C64.2735 34.1292 64.2394 35.9665 62.4803 36.3558C60.8793 36.7102 60.0956 35.3681 57.7741 34.2567C52.5458 31.7538 46.1426 33.5933 43.5252 35.6034C43.2428 35.7936 42.9752 36.0049 42.7246 36.2354C41.5449 37.3781 40.5311 39.2533 38.2012 39.7553C36.9278 39.9926 35.6125 39.8387 34.4283 39.3138C33.2365 40.886 31.6513 42.1161 29.8325 42.8803C28.623 43.3354 27.3506 43.6017 26.0601 43.6697C22.2892 43.8375 16.8286 41.1041 11.7028 36.0796C10.1055 36.3207 8.47478 36.2077 6.92599 35.7487C4.48282 34.9866 2.36659 33.4257 0.916992 31.3165C2.18745 34.2369 3.99381 36.8935 6.24259 39.1486C14.9048 47.7411 30.4385 50.1014 40.1763 45.4948C42.1415 44.5651 43.9584 43.333 47.0918 43.0477C51.3479 42.6603 52.3327 44.5908 58.9013 45.4948C63.025 46.0623 66.3054 46.4676 68.716 44.5374C70.5239 43.0899 70.331 41.539 72.0782 41.0343C74.1829 40.4263 75.6066 42.3466 78.6145 41.9116C79.5161 41.7723 80.4049 41.5598 81.2721 41.2762C83.8827 40.3613 84.0538 39.898 85.2666 39.7476C86.591 39.5835 86.9461 40.0667 88.7303 40.3685C89.2374 40.4542 94.0772 41.2729 95.799 39.2108C96.2775 38.588 96.506 37.8089 96.4397 37.0262C96.3733 36.2436 96.017 35.514 95.4405 34.9806Z" fill="#CEEAF0"/>
</g>
<defs>
<clipPath id="clip0_101_2263">
<rect width="96.4525" height="47.8065" fill="white"/>
</clipPath>
</defs>
</svg>
