<svg width="217" height="70" viewBox="0 0 217 70" fill="none" xmlns="http://www.w3.org/2000/svg">
<g clip-path="url(#clip0_101_2269)">
<path d="M169.743 45.1363C173.355 49.2102 186.977 35.9546 203.285 38.1878C205.217 38.4524 214.435 39.7149 216.173 45.4497C217.143 48.6532 215.47 52.6766 212.959 54.8084C211.228 56.2785 208.583 56.2957 203.577 56.6994C201.524 56.8649 199.568 56.8915 198.431 58.3044C197.699 59.2154 198.109 59.9001 197.461 60.9095C196.118 63.0023 193.054 63.8869 190.014 64.2159C184.28 64.8365 174.846 65.8573 166.998 61.5879C165.772 60.9207 163.393 59.4766 160.514 59.9222C158.783 60.1903 158.797 60.8441 156.165 61.721C153.723 62.4757 151.173 62.8191 148.619 62.7372C142.274 62.7839 140.726 60.7763 136.418 60.7452C131.437 60.7093 128.983 63.7957 124.305 65.4651C107.811 71.35 84.0274 70.0952 76.8609 62.5754C75.8981 61.565 75.7103 60.7739 74.5044 59.8557C70.6541 56.9239 66.5796 57.6135 55.8366 57.1962C48.6654 56.9176 46.8926 56.4035 45.2915 55.1161C43.1949 53.2812 41.8483 50.7377 41.5094 47.9722C40.6271 40.8197 47.1695 34.9951 49.704 32.7387C54.5589 28.4163 59.9677 26.133 69.3164 23.7885C77.497 21.7369 99.0477 16.5539 119.575 21.1132C125.153 22.3522 129.514 23.3693 134.041 26.7486C138.713 30.2352 139.031 32.8549 143.073 34.2575C148.79 36.2413 150.653 31.7661 157.231 33.4496C159.808 34.1609 162.2 35.4222 164.243 37.1468C166.285 38.8714 167.93 41.0182 169.063 43.4394C169.617 44.7281 169.395 44.7436 169.743 45.1363Z" fill="#E9F4F6"/>
<path d="M5.23886 51.2186C17.1083 60.3894 62.4629 54.7268 62.2123 52.1301C62.0679 50.6341 47.0386 52.8383 44.2411 46.2912C43.8532 45.1268 43.7055 43.8958 43.8068 42.6727C43.9081 41.4495 44.2563 40.2596 44.8303 39.1748C46.0645 36.9804 48.0042 35.2677 50.3344 34.3146C53.3359 32.8511 56.6682 32.1991 59.9999 32.4235C65.5382 32.745 67.2982 35.0623 69.5861 33.7928C71.8156 32.5556 70.5421 29.8984 72.9885 26.6531C76.853 21.5267 84.4578 21.5947 84.995 21.607C88.2275 21.7957 91.3689 22.7493 94.1609 24.3893C95.0383 24.8596 96.3556 25.9216 98.8303 27.4015C99.9165 28.1338 101.068 28.7637 102.271 29.2833C105.338 30.1183 107.705 27.5424 111.457 25.7293C115.073 24.1515 119.006 23.43 122.947 23.621C131.099 24.113 136.715 29.456 138.338 31.0002C141.007 33.549 143.155 36.5922 144.663 39.9607C146.042 38.0884 147.892 36.6149 150.025 35.6903C153.473 34.3638 157.301 34.4279 160.703 35.8691C166.646 38.1264 168.813 43.4077 169.46 42.9972C170.168 42.5487 168.184 35.9416 162.991 30.7888C159.288 27.1577 154.568 24.7377 149.457 23.8494C145.135 23.1454 140.703 23.5764 136.597 25.1003C136.035 23.5532 131.841 12.5386 121.435 9.34591C118.363 8.43445 115.129 8.20275 111.958 8.66691C108.187 9.2994 104.662 10.9545 101.767 13.4519C100.896 12.6655 99.8629 12.0788 98.741 11.7328C97.6192 11.3867 96.4353 11.2896 95.272 11.4482C94.2225 11.6296 93.22 12.0197 92.3238 12.5953C91.4277 13.171 90.6561 13.9206 90.0547 14.7997C88.4598 11.8088 86.3462 9.12501 83.8122 6.87361C81.6263 4.93781 76.5363 0.560114 68.7809 0.0485139C62.8455 -0.245 57.0092 1.65296 52.3818 5.38151C43.6314 12.3618 43.0312 22.7839 42.9634 24.437C41.3256 22.5233 39.1934 21.0963 36.7998 20.3119C33.776 19.3072 30.4905 19.4334 27.5527 20.667C24.4947 22.1169 22.0871 24.6548 20.8003 27.7849C19.4053 31.4301 20.7891 33.3214 19.2693 34.4948C17.2391 36.0623 14.3935 32.908 9.24765 34.0262C7.40285 34.3813 5.6823 35.2106 4.25536 36.4326C3.90716 36.7391 0.21226 40.0951 0.79306 44.6348C1.23929 48.124 4.10036 50.3389 5.23886 51.2186Z" fill="white"/>
<path d="M47.2487 45.4557C54.1233 43.1188 53.4598 41.3371 58.9033 39.7551C72.8056 35.7147 82.1816 48.42 94.9082 44.153C98.0689 43.0446 100.908 41.1758 103.177 38.7112C104.334 40.1872 112.832 50.6667 126.376 50.5302C131.257 50.4443 136.027 49.0653 140.201 46.5339C144.377 52.5735 151.731 55.2472 158.176 53.263C165.895 50.8868 168.367 43.0452 168.559 42.3979C168.74 42.7402 168.911 43.0864 169.063 43.4393C169.617 44.728 169.395 44.7435 169.743 45.1362C173.355 49.2101 186.977 35.9544 203.285 38.1877C205.217 38.4523 214.435 39.7147 216.173 45.4496C217.143 48.6531 215.47 52.6765 212.959 54.8083C211.228 56.2784 208.583 56.2956 203.577 56.6993C201.524 56.8648 199.568 56.8913 198.431 58.3043C197.699 59.2153 198.109 59.9001 197.461 60.9094C196.118 63.0022 193.055 63.8868 190.014 64.2158C184.28 64.8364 174.847 65.8572 166.998 61.5878C165.772 60.9206 163.393 59.4764 160.514 59.9221C158.783 60.1902 158.797 60.8439 156.165 61.7209C153.723 62.4756 151.173 62.819 148.62 62.7371C142.274 62.7838 140.726 60.7762 136.418 60.7451C131.437 60.7092 128.983 63.7956 124.305 65.465C107.811 71.3499 84.0275 70.0951 76.8609 62.5753C75.898 61.5649 75.7103 60.7738 74.5044 59.8556C68.7231 55.4538 60.7592 56.4893 55.8366 57.1961C46.0703 58.5983 31.3024 60.6163 17.1692 57.6286C17.1692 57.6286 3.80232 54.8964 1.19942 48.5254C0.397996 46.619 0.17131 44.5198 0.547226 42.4862C0.75589 41.653 1.09118 40.8568 1.54141 40.1253C1.76621 40.6361 4.61532 46.8193 11.3755 47.9898C14.8356 48.5294 18.3698 47.7 21.2287 45.6776C27.6662 47.4122 37.2078 48.8689 47.2487 45.4557Z" fill="#CEEAF0"/>
<path d="M65.0513 43.6422C60.5724 42.3564 56.1684 43.7854 54.8994 44.1972C49.5995 45.9169 46.3729 49.6453 45.1006 48.6216C44.5818 48.2041 44.9295 47.4343 44.7797 45.8291C44.437 43.4071 43.3774 41.143 41.7372 39.3282C38.7847 36.1298 33.4519 35.2114 29.1866 36.7648C24.3867 38.5128 22.4039 42.8572 21.7843 44.2149C17.9737 52.5643 23.3308 60.762 23.6701 61.2615C25.5292 63.9218 28.0284 66.0709 30.9371 67.5105C32.9126 68.5052 35.978 69.6466 57.3623 67.9274C63.592 67.4266 66.7068 67.1762 69.02 66.8478C72.8929 66.2978 74.3202 65.8975 77.2583 65.9173C81.9274 65.9487 82.492 66.9878 86.0111 66.9627C87.2849 66.9537 95.8316 66.8803 97.7797 61.8815C99.0577 58.602 97.0599 54.3197 94.1995 52.2134C92.3556 50.9869 90.1795 50.3565 87.9655 50.4075C82.2945 50.1041 81.2544 52.8254 77.5287 52.4878C72.0307 51.9897 71.9252 45.6156 65.0513 43.6422Z" fill="white"/>
<path d="M156.961 49.5171C157.331 51.7489 161.374 52.5595 161.753 52.6322C164.63 53.1843 166.127 52.0971 170.2 51.0951C177.449 49.3113 179.088 49.486 180.334 49.9851C181.954 50.6339 181.882 51.2646 183.785 51.8938C186 52.6678 188.423 52.6016 190.592 51.7076C191.502 51.3091 194.28 50.0925 194.909 47.3459C195.161 46.0908 194.963 44.7874 194.352 43.663C193.614 42.3806 192.468 41.3821 191.097 40.8268C189.936 40.2189 188.643 39.9099 187.333 39.9279C186.339 39.9501 185.359 40.1649 184.447 40.5603C184.121 39.3836 183.545 38.2912 182.758 37.3577C179.882 33.997 173.8 32.6342 169.615 35.6232C166.044 38.1744 165.724 42.5613 165.685 43.2389C163.467 43.3588 161.338 44.1539 159.584 45.5177C158.63 46.282 156.684 47.8412 156.961 49.5171Z" fill="white"/>
<path d="M159.019 45.9456C162.974 47.607 167.674 47.4417 170.875 44.4848C172.818 45.2841 174.918 45.6282 177.014 45.4907C179.11 45.3532 181.147 44.7378 182.969 43.6917C183.56 44.6822 184.378 45.5187 185.354 46.1326C187.031 47.1562 189.045 47.472 190.954 47.0107C192.44 46.618 193.766 45.7671 194.742 44.5786C195.042 45.4699 195.1 46.425 194.909 47.3459C194.308 50.0686 191.525 51.2992 190.593 51.7076C188.423 52.6016 186 52.6679 183.785 51.8938C181.882 51.2646 181.954 50.6339 180.334 49.9851C179.088 49.486 177.449 49.3113 170.2 51.0951C166.127 52.0971 164.63 53.1843 161.753 52.6322C161.374 52.5595 157.331 51.7489 156.961 49.517C156.72 48.0559 158.159 46.6456 159.019 45.9456Z" fill="#E9F4F6"/>
<path d="M21.2283 45.6777C21.6061 46.63 25.5082 55.9915 35.7754 58.5642C38.6489 59.234 41.6284 59.3137 44.5336 58.7987C47.4388 58.2836 50.2093 57.1845 52.6774 55.5677C57.9053 61.0533 69.9127 63.3796 75.8981 58.5254C76.6535 58.9866 82.2111 62.2528 88.5907 59.952C91.647 58.8148 94.2373 56.6917 95.9522 53.918C96.9127 54.579 97.6638 55.5013 98.1165 56.5757C98.4257 57.4363 98.5553 58.351 98.4973 59.2636C98.4392 60.1761 98.1949 61.0671 97.7792 61.8815C95.3546 66.7009 87.5099 66.9314 86.5144 66.9553C86.2953 66.9606 86.1241 66.9619 86.0106 66.9627C82.4915 66.9878 81.9269 65.9487 77.2578 65.9173C74.3197 65.8975 72.8924 66.2979 69.0195 66.8478C66.7062 67.1762 63.5915 67.4266 57.3618 67.9274C35.9775 69.6466 32.9121 68.5052 30.9366 67.5104C28.0485 66.04 25.5561 63.8968 23.6696 61.2615C21.1427 57.5515 20.0341 53.0566 20.5461 48.5971C20.6844 47.6053 20.9128 46.6281 21.2283 45.6777Z" fill="#CEEAF0"/>
</g>
<defs>
<clipPath id="clip0_101_2269">
<rect width="216.081" height="69.1668" fill="white" transform="matrix(-1 0 0 1 216.452 0)"/>
</clipPath>
</defs>
</svg>
