<svg width="74" height="37" viewBox="0 0 74 37" fill="none" xmlns="http://www.w3.org/2000/svg">
<g opacity="0.6" clip-path="url(#clip0_101_2251)">
<path d="M61.2171 27.7208C43.1852 23.3835 42.1432 23.1288 39.7519 23.1831C35.52 23.204 31.312 23.8234 27.2506 25.0233C25.3009 25.6986 22.9728 26.7204 19.5179 26.773C17.4234 26.8049 15.1754 26.8066 13.3751 25.242C11.5011 23.6135 10.2045 20.3683 11.5205 18.2901C12.8336 16.2169 16.0853 16.3498 16.4778 16.3711C18.8203 16.4984 20.5628 17.8524 20.7216 17.6382C20.8696 17.4386 19.0192 16.6734 18.4438 15.059C17.7724 13.1754 19.0005 10.6545 20.634 9.36065C22.793 7.65076 26.1636 7.68527 29.0094 9.51335C28.8785 7.8447 29.2191 6.17279 29.9918 4.69147C31.1266 2.6438 33.0008 1.11672 35.224 0.428304C39.4694 -0.940045 43.1123 1.36525 43.8773 1.84936C45.4926 2.90479 46.8373 4.33086 47.8015 6.01098C48.6569 7.41577 49.2606 8.96141 49.5851 10.5772C51.5538 9.4774 53.8456 9.11822 56.0524 9.56366C58.0512 10.035 59.8489 11.1373 61.184 12.7102C62.4605 14.118 63.3611 15.8302 63.8011 17.6858C64.6008 17.077 65.5179 16.6439 66.4935 16.4141C67.4691 16.1844 68.4815 16.1631 69.4657 16.3518C70.8091 16.6434 72.0132 17.3898 72.878 18.4671C73.1412 18.8115 73.3577 19.1897 73.5217 19.5919C73.7507 20.2123 73.8737 20.8673 73.8857 21.5291C73.8207 22.7167 73.5161 23.8784 72.9904 24.943C72.4648 26.0077 71.7292 26.9529 70.8288 27.7208C68.5174 29.4304 65.5028 28.7516 61.2171 27.7208Z" fill="white"/>
<path d="M34.1056 8.45709C32.3018 8.98234 30.6756 9.99689 29.404 11.3902C28.2632 10.7827 26.9788 10.5032 25.6912 10.5821C24.9052 10.5903 24.1293 10.7627 23.4127 11.0885C22.696 11.4143 22.0541 11.8864 21.5273 12.475C20.986 13.1564 20.6419 13.9755 20.5332 14.8418C20.3879 16.1577 20.9376 16.9019 20.6052 17.19C20.1502 17.5843 19.0527 16.2188 17.323 15.883C15.2698 15.4843 12.2675 16.355 11.2913 18.6778C11.0568 19.3473 10.9616 20.0583 11.0117 20.7666C11.0617 21.4749 11.2559 22.1651 11.5822 22.7943C10.7378 22.5616 9.84535 22.5737 9.00744 22.8294C8.16953 23.0851 7.42007 23.574 6.8451 24.2399C5.81542 25.4739 5.33676 27.4446 6.1243 28.7552C7.22472 30.5867 10.5137 30.4548 11.8517 30.4012C14.0882 30.3115 14.9414 29.6153 16.7299 30.2001C17.5499 30.4987 18.3339 30.8897 19.067 31.3657C19.8043 31.8464 20.506 32.3805 21.1665 32.9639C24.1041 35.236 28.5653 34.3375 29.2583 34.1978C30.6527 33.917 30.2168 33.7394 32.0962 33.2774C34.2998 32.6162 36.6373 32.5526 38.873 33.0932C39.4676 33.2623 40.0454 33.4865 40.5991 33.7629C44.04 35.4082 52.9562 36.1457 62.1785 32.5006C66.4761 30.802 69.7124 29.8524 71.9443 26.6363C72.5352 25.785 75.0325 22.1885 73.5214 19.5919C72.5138 17.8605 70.1521 17.3099 68.4284 17.4809C67.5153 17.5977 66.638 17.9122 65.8565 18.4027C65.075 18.8932 64.4078 19.5483 63.9004 20.323C63.1848 18.3604 61.8431 16.6933 60.0861 15.5836C58.901 14.8451 57.5564 14.407 56.167 14.3069C54.9056 14.2897 53.6544 14.5357 52.4918 15.0296C51.3293 15.5234 50.2804 16.2543 49.4112 17.1764C48.7605 15.7586 46.4953 11.3014 41.5144 9.23181C39.2084 8.11523 36.5896 7.84138 34.1056 8.45709Z" fill="#E9F4F6"/>
<path d="M0.775826 27.0734C1.16413 26.7148 1.63426 26.4586 2.1444 26.3275C2.65454 26.1964 3.18888 26.1945 3.69992 26.3219C4.52046 26.575 4.65955 27.1032 5.13255 27.0236C5.88787 26.8965 5.71717 25.5545 6.84475 24.2399C7.69626 23.2855 8.87898 22.6978 10.1481 22.5987C10.6336 22.5804 11.1186 22.6466 11.5819 22.7943C11.7081 24.1818 12.3148 25.48 13.2956 26.4609C13.9981 27.0604 14.8205 27.4999 15.7067 27.7495C16.5929 27.9991 17.5221 28.0529 18.4308 27.9072C21.0126 27.5055 21.7247 25.6249 23.3467 26.0571C24.6877 26.4144 24.7138 27.8364 26.0635 28.1377C27.2918 28.412 27.8931 27.3733 29.6741 26.5131C33.6854 24.576 38.598 25.9997 40.6061 27.5554C40.8228 27.7026 41.0281 27.8661 41.2204 28.0445C42.1255 28.9289 42.9033 30.3802 44.6908 30.7688C45.6678 30.9524 46.6769 30.8333 47.5854 30.4271C48.4998 31.6438 49.716 32.5959 51.1114 33.1874C52.0394 33.5396 53.0156 33.7457 54.0057 33.7983C56.8988 33.9282 61.0882 31.8127 65.0208 27.9239C66.2463 28.1105 67.4974 28.0231 68.6857 27.6678C70.5601 27.078 72.1837 25.8699 73.2959 24.2375C72.3212 26.4978 70.9353 28.5538 69.21 30.2992C62.5642 36.9494 50.6465 38.7761 43.1755 35.2109C41.6677 34.4913 40.2738 33.5377 37.8698 33.3169C34.6044 33.0171 33.8489 34.5112 28.8093 35.2109C25.6456 35.6501 23.1288 35.9638 21.2793 34.4699C19.8923 33.3496 20.0403 32.1493 18.6998 31.7586C17.085 31.2881 15.9927 32.7743 13.685 32.4376C12.9933 32.3298 12.3114 32.1653 11.6461 31.9459C9.64317 31.2378 9.5119 30.8792 8.58142 30.7628C7.56532 30.6358 7.29288 31.0098 5.92401 31.2433C5.53495 31.3097 1.82177 31.9433 0.50078 30.3473C0.133671 29.8653 -0.0416388 29.2623 0.00924633 28.6566C0.0601315 28.0509 0.333537 27.4862 0.775826 27.0734Z" fill="#CEEAF0"/>
</g>
<defs>
<clipPath id="clip0_101_2251">
<rect width="74" height="37" fill="white" transform="matrix(-1 0 0 1 74 0)"/>
</clipPath>
</defs>
</svg>
