<svg width="205" height="87" viewBox="0 0 205 87" fill="none" xmlns="http://www.w3.org/2000/svg">
<g clip-path="url(#clip0_101_2240)">
<path d="M15.2321 49.0058C18.2163 49.082 21.1764 49.5626 24.0315 50.4346C23.966 48.4147 24.3591 46.4064 25.1814 44.5603C26.0036 42.7143 27.2335 41.0786 28.7787 39.7762C33.6346 35.5876 39.8437 35.6071 41.5285 35.6741C44.1361 35.7779 46.4534 36.6761 51.0908 38.4088C53.9271 39.4679 56.7067 40.6732 59.4185 42.0196C61.9472 38.8709 64.8493 36.0414 68.0609 33.5932C71.2447 31.1672 73.6598 29.327 77.3874 28.1537C83.4472 26.2462 89.7309 27.1903 93.3245 29.1792C95.5417 30.4528 97.4473 32.2044 98.9027 34.3068C99.4661 35.1297 99.9687 35.9925 100.406 36.8886C100.643 37.5043 100.941 38.0948 101.296 38.6513C101.816 38.7321 102.698 35.0918 102.973 34.0067C103.928 30.3551 105.213 26.7982 106.814 23.3804C108.559 19.9193 111.017 16.8676 114.028 14.4268C125.807 4.06965 143.773 7.03445 145.044 7.26915C150.697 8.31265 164.564 10.8725 170.066 22.9672C174.082 31.7942 171.323 40.6018 170.322 43.3855C170.342 43.3878 172.615 43.6524 172.634 43.6546C173.79 43.7892 174.946 43.9237 174.946 43.9237C177.884 43.9818 178.431 43.4788 181.387 43.3882C183.625 43.3197 186.104 43.2283 188.424 44.5176C188.963 44.817 191.487 46.2203 192.068 48.6493C192.643 51.0518 190.852 52.5171 191.87 53.5708C192.667 54.3947 193.996 53.7412 196.222 54.2497C198.507 54.7789 200.494 56.1795 201.761 58.153C203.136 60.4503 202.757 62.8743 202.234 66.2183C201.951 68.4031 201.293 70.5228 200.289 72.484C198.838 75.1686 196.763 77.4656 194.24 79.1819C188.313 83.477 178.467 86.0645 170.257 82.6388C166.823 81.2057 167.961 80.5088 159.72 75.6278C159.72 75.6278 152.292 71.334 146.919 71.876C143.702 72.2005 144.01 73.7321 140.897 73.9651C135.115 74.3979 132.47 69.5098 128.386 70.5417C125.756 71.2063 126.505 73.3624 122.996 75.2253C119.112 77.2873 114.491 76.6127 111.417 76.164C108.657 75.7794 105.98 74.9441 103.491 73.6914C100.113 71.9257 99.8403 70.6402 97.9173 69.864C93.3812 68.0332 87.7226 72.9506 83.6721 74.0223C64.3027 79.1467 36.8635 76.8721 28.9558 69.1013C28.0023 68.1643 27.765 67.1717 26.3679 66.301C20.2202 62.4692 11.461 69.6875 4.92648 66.3127C3.49107 65.4854 2.29863 64.295 1.46893 62.861C0.639233 61.427 0.201496 59.7999 0.199692 58.1432C0.152683 56.945 0.368282 55.7511 0.83139 54.6451C1.2945 53.5391 1.9939 52.5477 2.88057 51.7406C6.26268 48.7772 11.3385 48.9066 15.2321 49.0058Z" fill="#F2F7F8"/>
<path d="M133.44 76.6469C144.442 80.5796 154.998 85.5501 171.183 85.4537C189.82 85.3428 197.054 78.5495 199.472 75.8628C200.959 74.2102 205.329 69.3552 204.691 63.0388C204.567 61.8176 203.753 55.5496 198.726 53.4953C196.539 52.6855 194.134 52.6919 191.951 53.5134C192.406 52.2008 192.593 50.8105 192.501 49.4244C192.41 48.0384 192.042 46.6846 191.419 45.443C188.988 41.0799 183.289 39.8928 179.192 40.9695C177.406 41.4551 175.769 42.3765 174.428 43.651C175.647 41.5033 176.539 39.1854 177.073 36.7741C178.056 32.0854 177.726 27.2164 176.121 22.7029C172.918 13.1353 165.099 8.09791 162.192 6.22531C145.531 -4.50859 126.752 1.81141 125.659 2.19921C121.741 3.58841 109.445 7.94921 104.037 20.3914C101.998 25.1894 101.2 30.4232 101.716 35.6107C101.238 33.1771 100.161 30.9009 98.5831 28.988C94.8083 24.4915 89.3818 23.8278 86.8885 23.5229C79.6051 22.6321 73.9486 25.6202 71.2312 27.1017C65.745 30.1543 61.2653 34.7369 58.3381 40.2911C57.4631 39.3673 51.066 32.835 41.4854 33.5932C35.5849 34.0603 28.5548 37.2866 25.478 43.7252C24.5071 45.7866 23.9769 48.0279 23.921 50.3058C21.4264 47.8797 18.1629 46.4008 14.694 46.1247C9.34782 45.7954 3.82192 48.633 1.43372 53.2443C0.604373 54.7426 0.179078 56.4308 0.199615 58.1432C0.327615 62.966 4.35021 66.8045 7.90991 68.2831C13.1271 70.4502 18.6726 68.0964 20.1159 67.5301C36.7638 60.9985 92.3055 61.944 133.44 76.6469ZM52.0264 76.308C52.0264 76.308 36.0547 75.9443 29.0347 69.0421C28.7153 68.7145 28.4261 68.3587 28.1708 67.9791C27.7248 67.2757 27.1306 66.6781 26.4297 66.2281C23.2601 64.2527 19.347 65.1904 15.5627 66.097C11.919 66.9704 8.15075 67.873 4.98055 66.2356C3.55787 65.4175 2.37633 64.2383 1.55531 62.8173C0.734293 61.3963 0.302875 59.7838 0.304657 58.1426C0.593517 56.8909 1.1259 55.7082 1.87146 54.662C5.77286 49.2294 13.9958 50.0092 14.8425 50.1018C18.4369 50.5442 21.8013 52.1054 24.4598 54.5647C25.397 51.0344 27.2735 47.824 29.8897 45.275C32.5394 42.5034 36.0241 40.6761 39.8108 40.0727C45.8213 39.3165 50.7367 42.363 55.6824 45.4691C57.0534 46.3302 58.373 47.2705 59.6345 48.2853C60.1268 46.1421 62.1427 38.5782 69.1412 34.2414C78.8025 28.2546 92.0215 35.5549 96.9484 38.1682C99.2679 39.399 101.478 40.8267 103.553 42.4354C103.401 36.8945 105.456 31.5201 109.266 27.4941C110.696 26.0506 114.134 22.5788 118.934 22.2207C128.899 21.477 131.567 35.141 143.982 36.7226C150.754 37.5852 153.9 34.0223 159.363 36.7226C163.505 38.7702 165.751 42.8235 167.022 46.0843C168.637 45.5146 173.906 43.887 179.116 46.3408C180.613 47.046 183.314 48.3183 184.517 51.3102C185.12 52.8766 185.248 54.586 184.884 56.2245C188.853 57.9242 191.985 61.1302 193.592 65.138C193.89 65.927 195.546 70.3103 194.024 74.4286C191.286 81.8364 180.003 83.6816 176.757 84.2126C161.619 86.6883 155.425 79.1289 122.941 75.1488C122.941 75.1488 122.212 75.0367 121.235 74.9466C116.849 74.5418 109.053 74.8508 52.0264 76.308Z" fill="white"/>
<path d="M13.1865 65.0258C17.2781 65.2608 21.3282 64.0994 24.6734 61.7317C26.0055 60.6822 27.2099 59.4801 28.2621 58.15C30.7568 55.1569 30.6436 54.0121 32.4441 51.934C34.367 49.7811 36.8518 48.2067 39.6196 47.3872C42.6918 46.5482 45.9407 46.6121 48.9775 47.5712C52.9845 48.6571 56.6036 50.8518 59.4188 53.9029C65.0239 48.8349 72.0614 45.6276 79.5636 44.7222C87.0657 43.8168 94.6642 45.2577 101.314 48.8467C103.361 46.8942 106.005 45.6852 108.82 45.4135C113.689 45.142 116.924 48.8235 120.599 51.2639C124.612 53.9294 131.279 56.5893 142.574 55.4724C144.637 58.1841 147.222 60.4553 150.177 62.1519C153.132 63.8485 156.396 64.9362 159.778 65.3508C170.948 66.5777 178.512 59.6714 179.578 58.6641C181.671 59.0226 183.677 59.7767 185.488 60.8862C186.863 61.7324 189.13 63.0934 190.212 65.4164C192.234 69.7598 189.476 74.5629 188.794 75.752C184.482 83.2659 174.401 84.9245 171.184 85.4537C156.758 87.8271 143.466 81.932 131.175 81.4277C128.573 81.2737 125.962 81.358 123.375 81.6794C120.134 82.1001 118.982 82.6566 115.738 83.0988C113.085 83.4046 110.412 83.5078 107.742 83.4075C98.9741 83.1153 83.2441 78.6757 81.3538 78.1566C57.1546 71.5116 30.4341 83.8665 25.2813 76.3448C24.6513 75.2206 23.7646 74.2612 22.6936 73.5445C19.4095 71.4694 17.026 72.9226 12.0754 71.854C10.6962 71.5563 5.8372 70.4399 2.6727 66.4427C1.3284 64.7537 0.451193 62.7414 0.128876 60.6069C-0.0795798 59.1832 -0.0340016 57.7339 0.263489 56.3261C0.673045 57.9297 1.43034 59.4236 2.48169 60.7018C5.77519 64.6507 10.8979 64.91 13.1865 65.0258Z" fill="#CEEAF0"/>
<path d="M39.7082 78.9278C39.1075 79.3485 38.2359 78.3084 36.522 77.9263C34.9888 77.6302 33.4156 77.6038 31.8733 77.8481C30.4223 77.9824 29.01 78.3914 27.7117 79.0532C25.5511 80.3098 25.0378 82.4283 26.2477 83.9849C27.8887 86.0965 32.2963 86.9404 35.3981 87.0043C41.0302 87.1204 42.1181 84.6599 47.8428 84.5888C52.5186 84.5308 52.7301 86.0285 59.3724 86.7024C61.4971 86.918 69.4599 87.7259 74.259 85.1272C75.0389 84.7049 78.0087 82.9615 77.1095 81.2059C76.4886 79.9934 74.1737 79.0708 72.0715 78.8656C70.281 78.6907 68.9281 79.31 68.6532 78.7873C68.4439 78.3895 69.1513 77.9447 69.5602 76.7662C69.9129 75.612 69.8871 74.3754 69.4867 73.2369C69.043 71.8566 68.1666 70.6559 66.9871 69.8127C65.7038 68.9683 64.2206 68.477 62.687 68.3884C61.1534 68.2999 59.6235 68.6171 58.2515 69.3081C56.5225 70.2113 55.0504 71.5376 53.9725 73.1634C53.1994 74.425 53.0693 75.319 52.1895 75.6246C51.1042 76.0016 50.7565 74.8312 48.3037 74.4066C46.8362 74.1798 45.3378 74.2537 43.8997 74.6239C43.8354 74.641 43.7855 74.655 43.7512 74.6646C43.3528 74.7762 40.9394 75.4701 40.1563 77.2416C39.7448 78.1723 40.1206 78.639 39.7082 78.9278Z" fill="#CEEAF0"/>
<path d="M103.519 82.1985C104.401 81.9479 105.682 81.5558 107.265 80.9908C108.047 80.7117 108.664 80.4717 109.193 80.2658C111.76 79.1296 114.619 78.8252 117.367 79.3954C118.362 79.5506 119.6 79.7438 121.354 79.86C128.496 80.3331 135.804 80.8258 138.393 77.1105C139.936 74.8963 139.558 71.5402 138.282 69.3202C136.112 65.5425 130.604 63.7663 125.066 65.7834C124.626 63.7209 123.734 61.7819 122.453 60.1066C118.873 55.4846 112.032 52.9145 106.451 54.9868C104.839 55.5979 103.379 56.5504 102.17 57.779C99.7142 54.0211 96.2276 51.0508 92.1273 49.2238C84.9257 46.1049 78.2819 47.8707 74.6198 48.844C68.9158 50.3929 63.7171 53.4094 59.5418 57.5929C59.2908 57.3625 54.6307 53.234 48.5591 54.9868C46.5858 55.563 44.8022 56.6557 43.3927 58.1521C41.9832 59.6484 40.999 61.4941 40.5417 63.4983C38.1211 62.5233 35.5322 62.0346 32.9228 62.0604C29.3977 61.9533 25.9338 62.9989 23.0569 65.0388C21.4348 66.2623 19.0775 68.0403 18.9864 70.5694C18.8475 74.4263 24.0325 77.5565 26.9112 78.4462C29.3179 79.1266 31.8019 79.496 34.3025 79.5453C35.5869 79.5833 36.8719 79.494 38.1386 79.2786C39.2281 79.0784 40.3392 79.0232 41.4432 79.1144C42.7855 79.2083 44.1091 79.4826 45.3782 79.9298C46.8383 80.4463 48.3704 80.7304 49.9186 80.7718C51.5273 80.8159 53.1364 80.7021 54.7228 80.4319C56.4433 80.2031 58.1305 79.7701 59.7485 79.142C60.8415 78.6647 62.0257 78.4323 63.218 78.4611C64.4104 78.49 65.582 78.7794 66.6506 79.309C67.9536 79.9478 69.3937 80.2562 70.844 80.2071C71.7548 80.1874 72.6582 80.0389 73.5275 79.7662C74.6156 79.4383 75.7411 79.2506 76.8768 79.2079C78.6926 79.1272 80.5115 79.2689 82.293 79.6298C83.6982 79.8707 85.0603 80.3173 86.3354 80.9551C87.7148 81.6193 89.1543 82.1507 90.6344 82.5423C91.6337 82.815 92.5404 83.0624 93.4972 83.2435C94.533 83.4271 95.5821 83.5261 96.634 83.5393C98.7319 83.5581 100.327 83.1049 103.519 82.1985Z" fill="white"/>
<path d="M60.2868 61.3158C62.3319 59.5092 64.5809 57.9474 66.9881 56.6622C70.4959 54.6949 74.3526 53.4282 78.3437 52.9325C88.1638 52.1319 95.8358 59.447 97.436 61.038C102.407 57.244 108.308 57.0747 111.291 59.8267C112.818 61.2355 114.713 64.4536 113.768 66.637C113.245 67.8444 111.559 69.4181 112.075 70.2495C114.182 68.7315 116.699 67.8882 119.296 67.831C119.972 67.8286 125.75 67.8079 127.048 71.1904C127.312 72.0472 127.355 72.9572 127.171 73.8349C126.987 74.7125 126.583 75.529 125.997 76.2077C122.903 79.8966 115.213 78.3611 114.767 78.2669C112.804 77.8721 110.81 77.6505 108.808 77.6046C108.246 77.6067 107.685 77.6424 107.128 77.7117C104.609 78.0456 104.34 78.7215 99.0329 80.281C95.0711 81.4452 93.9982 81.4875 93.1692 81.4333C91.2199 81.3059 90.1369 80.6578 88.784 81.0107C87.7781 81.2731 87.8804 81.7611 86.7257 82.4039C85.457 83.0213 84.0768 83.3762 82.6677 83.4473C80.067 83.5687 77.4864 82.9382 75.2347 81.6312C72.9412 80.2556 73.0787 78.9924 70.8185 78.5512C69.913 78.3965 68.9885 78.3889 68.0806 78.5287C65.1402 78.8827 64.5354 80.1705 61.1433 81.321C59.9783 81.7135 58.7814 82.0041 57.5662 82.1897C50.8585 83.1591 47.0557 78.3305 38.3803 78.2805C33.9813 78.2552 33.7891 79.4899 29.8743 79.1297C25.2653 78.7056 20.1041 76.479 18.7607 73.0682C17.746 70.4919 19.0624 67.6288 22.4391 65.7877C25.1261 64.3518 28.1436 63.6483 31.1886 63.7476C35.1499 63.6621 39.1 64.1983 42.8952 65.3366C43.9172 63.341 45.4971 61.6855 47.4427 60.5713C53.3811 57.2671 59.9301 61.0995 60.2868 61.3158Z" fill="#F2F7F8"/>
<path d="M71.3878 69.6134C70.7871 70.0341 69.9155 68.9939 68.2017 68.6119C66.6685 68.3158 65.0953 68.2893 63.553 68.5336C62.1019 68.6679 60.6896 69.0769 59.3913 69.7388C57.2307 70.9954 56.7174 73.1139 57.9273 74.6705C59.5684 76.782 63.9759 77.626 67.0777 77.6899C72.7099 77.806 73.7977 75.3455 79.5224 75.2744C84.1982 75.2163 84.4098 76.7141 91.052 77.388C93.1767 77.6035 101.139 78.4114 105.939 75.8127C106.718 75.3904 109.688 73.6471 108.789 71.8914C108.168 70.679 105.853 69.7564 103.751 69.5511C101.961 69.3763 100.608 69.9955 100.333 69.4728C100.123 69.0751 100.831 68.6303 101.24 67.4518C101.592 66.2977 101.567 65.061 101.166 63.9225C100.723 62.5422 99.8462 61.3415 98.6667 60.4983C97.3834 59.6539 95.9002 59.1626 94.3666 59.074C92.833 58.9854 91.3031 59.3026 89.9311 59.9936C88.2021 60.8968 86.73 62.2231 85.6521 63.8489C84.8791 65.1105 84.7489 66.0045 83.8691 66.3101C82.7838 66.6871 82.4361 65.5167 79.9833 65.0922C78.5157 64.8652 77.0174 64.9392 75.5793 65.3095C75.5151 65.3266 75.4651 65.3406 75.4308 65.3502C75.0324 65.4618 72.619 66.1557 71.8359 67.9271C71.4245 68.8578 71.8002 69.3245 71.3878 69.6134Z" fill="white"/>
<path d="M79.398 76.9042C80.1285 76.5946 80.9178 76.4485 81.7107 76.4759C85.0804 76.6466 88.8696 77.5402 91.5609 77.8464C93.584 78.1718 95.6507 78.1049 97.6484 77.6494C94.8623 77.6718 92.0885 77.2763 89.4196 76.4759C86.498 75.4964 86.119 74.6301 82.9955 73.9063C81.1625 73.3591 79.228 73.2419 77.3423 73.5636C74.4098 74.1748 74.3883 75.6145 72.2212 75.8997C68.9115 76.3354 68.1206 73.0878 63.8945 72.6214C60.4742 72.244 59.8365 74.2437 56.5162 73.691C53.4392 73.1787 53.3761 71.419 49.931 69.9534C46.4469 68.4713 41.4121 68.2855 38.1977 70.6801C35.4258 72.7452 36.3827 74.9601 33.9056 76.7137C29.1548 80.0769 21.1706 74.7129 20.7077 75.6552C20.2239 76.6399 28.5279 83.2426 33.9042 81.9238C35.3969 81.5576 36.7485 80.5601 39.0645 80.7554C39.9266 80.8282 41.3504 81.1023 42.3749 80.2686C42.7995 79.9231 42.8267 79.6548 43.17 79.5077C44.2573 79.0419 45.9029 80.9107 46.9198 81.787C51.1103 85.3981 59.7785 85.214 62.7238 81.9238C63.3061 81.2733 63.7131 80.4473 64.6711 80.2686C66.2128 79.981 66.8553 81.8041 68.8577 82.2159C70.9723 82.6507 73.0666 81.1953 74.8602 79.9489C76.7405 78.6421 77.3278 77.5842 79.398 76.9042Z" fill="#CEEAF0"/>
</g>
<defs>
<clipPath id="clip0_101_2240">
<rect width="204.754" height="87.0083" fill="white" transform="matrix(-1 0 0 1 204.754 0)"/>
</clipPath>
</defs>
</svg>
