<svg width="136" height="60" viewBox="0 0 136 60" fill="none" xmlns="http://www.w3.org/2000/svg">
<g opacity="0.8" clip-path="url(#clip0_101_2257)">
<path d="M2.89801 44.8867C4.58142 46.825 6.8874 48.1163 9.41962 48.5388C12.6367 49.1043 13.4046 47.6975 17.115 48.2779C19.2264 48.6709 21.2554 49.4207 23.1149 50.4952C25.5989 51.777 26.0162 52.4749 28.4625 53.8864C30.4622 54.9871 32.5577 55.9039 34.7232 56.6255C41.1071 58.7468 50.5828 57.8274 58.489 53.9508C63.7926 51.3504 64.8005 49.1579 68.257 49.4922C71.6782 49.8231 72.8448 52.1799 77.8865 52.5636C79.9157 52.7238 81.9571 52.5134 83.9109 51.9428C84.6482 51.6845 85.3703 51.3847 86.0738 51.045C90.5208 49.4377 93.9696 53.844 99.4652 53.4769C101.54 53.3384 102.155 52.6363 104.672 51.6899C115.816 47.4998 122.411 54.2548 129.446 49.8165C132.711 47.7566 135.493 43.8395 135.001 40.2499C134.33 35.3479 127.671 31.5329 122.361 31.8686C118.28 32.1265 117.007 34.7087 114.118 33.8395C111.268 32.9819 110.919 29.9904 107.773 25.8334C105.387 22.6586 102.348 20.0317 98.861 18.1295C88.8168 13.0823 78.9399 22.786 73.1812 17.8274C70.3084 15.3538 72.3946 12.6191 68.5416 8.04462C65.5492 4.65049 61.3963 2.49726 56.898 2.00752C56.4394 1.97562 49.2661 1.58282 44.3232 6.60812C42.5247 8.52932 41.1492 10.8065 40.2857 13.2925C37.9299 19.2234 39.6244 21.5215 37.8536 23.1047C34.4723 26.1276 27.8672 18.1312 17.7672 19.7135C9.82811 20.9573 4.87162 27.3139 4.19702 28.2048C2.71898 30.0775 1.66581 32.2492 1.11052 34.5693C0.818119 35.9373 -0.26789 41.0186 2.89801 44.8867Z" fill="#E9F4F6"/>
<path d="M43.9319 19.3434C41.8275 21.8663 40.1691 24.7297 39.0279 27.8103C35.0381 25.6595 30.7539 24.1069 26.3126 23.2022C20.9647 22.1228 16.0251 21.1258 10.7984 23.4203C7.51103 24.9245 4.72374 27.3395 2.76675 30.3791C3.29755 28.6503 5.72667 21.4219 12.9054 17.6602C16.1192 16.0305 19.6901 15.2321 23.292 15.3379C25.8546 15.3821 28.3933 15.8395 30.8103 16.6924C32.801 17.458 34.6596 18.5307 36.3184 19.8714C37.0174 15.546 38.8585 11.4855 41.6514 8.10943C43.1174 6.35563 47.153 1.49533 54.2017 0.30543C58.1672 -0.440024 62.2679 0.145887 65.866 1.97203C69.7737 4.17224 72.9001 7.53367 74.8119 11.5903C80.0248 8.39746 86.1561 7.04047 92.2295 7.73543C93.8294 7.93323 104.388 9.41563 110.732 18.8582C113.042 22.3357 114.465 26.3265 114.875 30.4813C116.975 29.3192 119.323 28.6807 121.722 28.62C122.671 28.6003 128.163 28.486 131.844 32.4671C132.983 33.7675 133.848 35.2837 134.389 36.9255C134.929 38.5673 135.134 40.3011 134.991 42.0236C134.682 40.2075 133.948 38.4901 132.849 37.0117C131.571 35.4324 129.878 34.2405 127.961 33.5696C125.336 32.6871 122.49 32.7148 119.883 33.6482C117.372 34.4733 115.146 35.9911 113.461 38.0266C112.289 35.3417 110.82 32.7961 109.083 30.4373C106.087 26.3737 100.831 19.2419 93.0299 18.5575C89.2153 18.2228 85.7784 19.5163 82.7544 20.6545C80.3182 21.5727 77.996 22.769 75.8341 24.2195C72.682 19.608 68.3119 15.9617 63.2103 13.6866C60.5435 12.5406 57.9244 11.454 54.6003 11.9354C49.5136 12.6721 46.2457 16.5779 43.9319 19.3434Z" fill="white"/>
<path d="M27.1693 54.3832C24.1033 52.3302 24.6995 52.3006 22.5634 50.7726C17.1179 46.8774 8.86988 52.1787 3.50758 47.7005C1.45261 45.8759 0.199404 43.3151 0.019577 40.5729C-0.0725543 38.9578 0.21957 37.3438 0.871979 35.8634C1.2253 38.6074 2.6308 41.1069 4.79189 42.8343C6.95297 44.5618 9.70063 45.3822 12.4551 45.1224C14.7285 44.8248 16.8407 43.787 18.4657 42.1694C21.4007 44.4827 24.9922 45.8083 28.7263 45.9564C32.1689 46.0231 34.7555 44.8931 37.6975 43.6941C40.859 42.4049 43.8028 40.636 46.4253 38.4497C47.9986 40.1526 49.8949 41.5256 52.0037 42.4889C54.1125 43.4522 56.3918 43.9865 58.7091 44.0609C67.5614 44.1897 72.6342 37.0919 73.0426 36.4991C74.1943 40.2729 77.568 42.29 80.2437 41.6344C82.6302 41.0497 83.7284 38.5185 83.8834 38.1464C86.4393 44.1991 92.136 47.997 97.9871 47.7005C103.858 47.4031 107.483 43.1045 108.134 42.3042C108.803 43.3759 109.792 44.2105 110.961 44.6905C112.13 45.1705 113.42 45.2717 114.649 44.9798C115.572 44.6884 116.415 44.1866 117.111 43.514C117.807 42.8414 118.337 42.0164 118.659 41.1039C118.84 41.4546 121.259 46.4276 126.649 47.0939C129.25 47.3696 131.857 46.645 133.942 45.0675C133.39 46.6976 132.444 48.1666 131.189 49.3444C124.718 55.2621 110.089 51.9934 105.995 53.2852C104.803 53.6466 103.587 53.9211 102.355 54.1064C101.905 54.1745 101.452 54.219 100.997 54.2397C95.7451 54.5063 92.5196 52.4128 88.2494 53.2675C87.5224 53.413 87.3098 53.5459 86.1707 53.7397C84.2669 54.0518 82.3381 54.1853 80.4095 54.1385C75.6019 54.0319 74.5241 52.9013 71.2627 52.7945C68.0384 52.6889 65.6872 53.5499 61.869 55.1245C57.4561 56.9443 52.895 58.8253 48.3602 59.4714C37.377 61.0362 28.2594 55.1131 27.1693 54.3832Z" fill="#CEEAF0"/>
</g>
<defs>
<clipPath id="clip0_101_2257">
<rect width="135.071" height="59.7336" fill="white" transform="matrix(-1 0 0 1 135.07 0)"/>
</clipPath>
</defs>
</svg>
