<svg width="24" height="24" viewBox="0 0 24 24" fill="none" xmlns="http://www.w3.org/2000/svg">
<mask id="path-1-outside-1_104_3158" maskUnits="userSpaceOnUse" x="0" y="1" width="24" height="23" fill="black">
<rect fill="white" y="1" width="24" height="23"/>
<path d="M9.28861 12.4942C9.2885 12.6876 9.21369 12.8731 9.0806 13.0099C8.94751 13.1466 8.76704 13.2235 8.57883 13.2236C8.14153 13.2248 7.70469 13.1945 7.2715 13.1331C5.66771 12.901 4.33563 12.2252 3.30033 11.1152C0.858001 8.49711 0.996328 4.42704 1.00359 4.25504C1.01129 4.06709 1.08937 3.88947 1.22152 3.7593C1.35367 3.62912 1.52966 3.55647 1.71272 3.55651H6.13122C6.30777 3.55642 6.478 3.624 6.60865 3.74602C6.7393 3.86805 6.82097 4.03575 6.83771 4.21636C6.83997 4.23947 6.84108 4.26269 6.84101 4.28591C6.84101 4.3817 6.82266 4.47655 6.78699 4.56505C6.75132 4.65355 6.69904 4.73396 6.63313 4.80169C6.56722 4.86942 6.48897 4.92315 6.40285 4.9598C6.31673 4.99646 6.22443 5.01532 6.13122 5.01531H2.44C2.51296 6.17557 2.84904 8.52866 4.33034 10.1116C4.92491 10.7471 5.65418 11.2006 6.51087 11.4704C7.13384 11.6661 7.82315 11.7643 8.57883 11.7648C8.76706 11.7649 8.94757 11.8417 9.08067 11.9785C9.21377 12.1153 9.28857 12.3008 9.28861 12.4942Z"/>
<path d="M20.6997 11.1152C19.7225 12.1628 18.4815 12.8237 16.9972 13.0896C16.4766 13.1808 15.9493 13.2257 15.4212 13.2236C15.328 13.2236 15.2357 13.2048 15.1495 13.1681C15.0634 13.1315 14.9852 13.0777 14.9193 13.01C14.8534 12.9423 14.8011 12.8619 14.7654 12.7734C14.7297 12.6849 14.7114 12.59 14.7114 12.4942C14.7114 12.3984 14.7297 12.3036 14.7654 12.2151C14.8011 12.1266 14.8534 12.0462 14.9193 11.9785C14.9852 11.9107 15.0634 11.857 15.1495 11.8204C15.2357 11.7837 15.328 11.7648 15.4212 11.7648C16.2907 11.7648 17.0734 11.6346 17.7691 11.374C18.5056 11.0982 19.1411 10.6765 19.6697 10.1116C21.151 8.52866 21.487 6.17557 21.56 5.01531H17.8688C17.7756 5.01532 17.6833 4.99646 17.5971 4.9598C17.511 4.92315 17.4328 4.86942 17.3669 4.80169C17.301 4.73396 17.2487 4.65355 17.213 4.56505C17.1773 4.47655 17.159 4.3817 17.159 4.28591C17.1589 4.26269 17.16 4.23947 17.1623 4.21636C17.179 4.03575 17.2607 3.86805 17.3913 3.74602C17.522 3.62399 17.6922 3.55642 17.8688 3.55651H22.2873C22.4703 3.55647 22.6463 3.62913 22.7785 3.7593C22.9106 3.88947 22.9887 4.06709 22.9964 4.25504C23.0037 4.42704 23.142 8.49711 20.6997 11.1152Z"/>
<path d="M15.9847 22.2876V23H8.12754V22.2876C10.8941 21.3085 11.4566 19.2997 10.9614 16.7546C10.9248 16.5663 10.8825 16.3751 10.8346 16.1809H13.2776C13.2297 16.375 13.1875 16.5662 13.1508 16.7546C12.6556 19.2997 13.2182 21.3085 15.9847 22.2876Z"/>
<path d="M10.4418 22.2876V23H8.96112V22.2876C11.2509 21.3085 11.7167 19.2997 11.3067 16.7546C11.2763 16.5663 11.2414 16.3751 11.2017 16.1809H11.6623C11.6837 16.375 11.7028 16.5662 11.7194 16.7546C11.9426 19.2997 11.689 21.3085 10.4418 22.2876Z"/>
<path d="M15.2673 22.2618C14.9517 22.2523 14.6361 22.2449 14.3205 22.2397C12.7385 21.244 12.4513 19.259 12.7418 16.7546C12.7636 16.5663 12.7888 16.3751 12.8174 16.1809H13.0733C13.0333 16.375 12.9981 16.5662 12.9676 16.7546C12.5589 19.2777 13.0155 21.2735 15.2673 22.2618Z"/>
<path d="M13.2776 16.1809C13.2297 16.375 13.1875 16.5662 13.1508 16.7546C13.0134 16.8018 12.8695 16.8257 12.7246 16.8255H11.3876C11.2427 16.8257 11.0988 16.8018 10.9614 16.7546C10.9248 16.5663 10.8825 16.3751 10.8346 16.1809H13.2776Z"/>
<path d="M14.0699 14.6204V15.1377C14.07 15.3193 14.0352 15.4991 13.9676 15.6668C13.9 15.8346 13.8009 15.987 13.676 16.1154C13.5511 16.2438 13.4028 16.3456 13.2395 16.4151C13.0763 16.4845 12.9013 16.5202 12.7246 16.5202H11.3876C11.2109 16.5203 11.0359 16.4846 10.8727 16.4152C10.7094 16.3457 10.5611 16.2439 10.4361 16.1155C10.3112 15.9871 10.2121 15.8347 10.1445 15.6669C10.077 15.4991 10.0422 15.3193 10.0423 15.1377V14.6204H14.0699Z"/>
<path d="M13.9379 14.6204V15.1377C13.9379 15.2359 13.9284 15.3339 13.9095 15.4302C13.7877 16.0534 13.2839 16.5202 12.6807 16.5202H12.5932C13.1116 16.5202 13.5447 16.0534 13.6493 15.4302C13.6656 15.3336 13.6738 15.2357 13.6738 15.1377V14.6204H13.9379Z"/>
<path d="M11.5903 16.5202H11.4315C10.8033 16.5202 10.2833 16.014 10.1895 15.3521C10.1795 15.2811 10.1744 15.2095 10.1744 15.1377V14.6204H10.6531V15.1377C10.6531 15.2093 10.6568 15.2809 10.6643 15.3521C10.7343 16.014 11.1222 16.5202 11.5903 16.5202Z"/>
<path d="M18.2316 3.39095C18.2154 8.45945 16.8903 15.5364 12.1221 15.5364C7.35403 15.5364 6.02888 8.45945 6.0127 3.39095C6.01171 3.23048 6.0127 3.07205 6.01468 2.91599H18.2296C18.2316 3.07205 18.2326 3.23048 18.2316 3.39095Z"/>
<path d="M14.0699 14.6204V15.1377C14.0699 15.236 14.0598 15.3341 14.0396 15.4302C13.4727 15.7168 12.8362 15.8756 12.1221 15.8756C11.346 15.8756 10.6613 15.6883 10.0585 15.3521C10.0477 15.2812 10.0423 15.2095 10.0423 15.1377V14.6204H14.0699Z"/>
<path d="M18.2316 3.39095C18.2154 8.45945 16.8903 15.5364 12.1221 15.5364C7.35403 15.5364 6.02888 8.45945 6.0127 3.39095C6.01171 3.23048 6.0127 3.07205 6.01468 2.91599H18.2296C18.2316 3.07205 18.2326 3.23048 18.2316 3.39095Z"/>
<path d="M6.13122 5.01531H5.3016C5.27089 4.46775 5.25802 3.9738 5.25439 3.55651H6.13122C6.30777 3.55642 6.478 3.624 6.60865 3.74602C6.7393 3.86805 6.82097 4.03575 6.83771 4.21636C6.83997 4.23947 6.84108 4.26269 6.84101 4.28591C6.84101 4.3817 6.82266 4.47655 6.78699 4.56505C6.75132 4.65355 6.69904 4.73396 6.63313 4.80169C6.56722 4.86942 6.48897 4.92315 6.40285 4.9598C6.31673 4.99646 6.22443 5.01532 6.13122 5.01531Z"/>
<path d="M9.28861 12.4942C9.2885 12.6876 9.21369 12.8731 9.0806 13.0099C8.94751 13.1466 8.76704 13.2235 8.57883 13.2236C8.14153 13.2248 7.70469 13.1945 7.2715 13.1331C7.00593 12.6577 6.77476 12.1628 6.57987 11.6525C6.55643 11.5921 6.53365 11.5314 6.51087 11.4704C7.13384 11.6661 7.82315 11.7643 8.57883 11.7648C8.76706 11.7649 8.94757 11.8417 9.08067 11.9785C9.21377 12.1153 9.28857 12.3008 9.28861 12.4942Z"/>
<path d="M15.4212 11.7648C16.2907 11.7648 17.0734 11.6346 17.7691 11.374C17.7351 11.4673 17.7002 11.5601 17.6644 11.6525C17.4752 12.1471 17.2523 12.6273 16.9972 13.0896C16.4766 13.1808 15.9493 13.2257 15.4212 13.2236C15.328 13.2236 15.2357 13.2048 15.1495 13.1681C15.0634 13.1315 14.9852 13.0777 14.9193 13.01C14.8534 12.9423 14.8011 12.8619 14.7654 12.7734C14.7297 12.6849 14.7114 12.59 14.7114 12.4942C14.7114 12.3984 14.7297 12.3036 14.7654 12.2151C14.8011 12.1266 14.8534 12.0462 14.9193 11.9785C14.9852 11.9107 15.0634 11.857 15.1495 11.8204C15.2357 11.7837 15.328 11.7648 15.4212 11.7648Z"/>
<path d="M18.9899 3.55651C18.9863 3.97346 18.9734 4.46741 18.9427 5.01531H17.8688C17.7756 5.01532 17.6833 4.99646 17.5971 4.9598C17.511 4.92315 17.4328 4.86942 17.3669 4.80169C17.301 4.73396 17.2487 4.65355 17.213 4.56505C17.1773 4.47655 17.159 4.3817 17.159 4.28591C17.1589 4.26269 17.16 4.23947 17.1623 4.21636C17.179 4.03575 17.2607 3.86805 17.3913 3.74602C17.522 3.62399 17.6922 3.55642 17.8688 3.55651H18.9899Z"/>
<path d="M18.2316 3.39095C18.2154 8.45945 16.8903 15.5364 12.1221 15.5364C7.35403 15.5364 6.02888 8.45945 6.0127 3.39095C6.01171 3.23048 6.0127 3.07205 6.01468 2.91599H18.2296C18.2316 3.07205 18.2326 3.23048 18.2316 3.39095Z"/>
<path d="M16.8269 3.39095C16.814 8.45945 15.7939 15.5364 12.1221 15.5364C14.8025 15.5364 15.5473 8.45945 15.5565 3.39095C15.5572 3.23048 15.5565 3.07205 15.5555 2.91599H16.8256C16.8269 3.07205 16.8279 3.23048 16.8269 3.39095Z"/>
<path d="M12.1221 15.5364C12.0885 15.5364 12.0551 15.536 12.0218 15.535C7.80103 15.4258 6.62378 8.41976 6.60925 3.39095C6.60826 3.23048 6.60925 3.07205 6.6109 2.91599H8.68876C8.68777 3.07205 8.68711 3.23048 8.68777 3.39095C8.69702 8.45945 9.4418 15.5364 12.1221 15.5364Z"/>
<path d="M5.91564 2H18.3287C18.3987 2 18.4659 2.02859 18.5154 2.07949C18.5649 2.13039 18.5928 2.19942 18.5928 2.27141V2.64459C18.5928 2.71657 18.5649 2.7856 18.5154 2.8365C18.4659 2.8874 18.3987 2.91599 18.3287 2.91599H5.91564C5.8456 2.91599 5.77842 2.8874 5.72889 2.8365C5.67936 2.7856 5.65154 2.71657 5.65154 2.64459V2.27141C5.65154 2.19942 5.67936 2.13039 5.72889 2.07949C5.77842 2.02859 5.8456 2 5.91564 2Z"/>
<path d="M18.2316 3.39095H6.0127C6.01171 3.23048 6.0127 3.07205 6.01468 2.91599H18.2296C18.2316 3.07205 18.2326 3.23048 18.2316 3.39095Z"/>
<path d="M10.1083 22.2876H8.58972V23H10.1083V22.2876Z"/>
<path d="M12.1772 22.2876H11.3518V23H12.1772V22.2876Z"/>
<path d="M14.147 22.2876H12.8374V23H14.147V22.2876Z"/>
<path d="M15.5996 22.2876H14.9063V23H15.5996V22.2876Z"/>
<path d="M15.9847 22.2876C15.7655 22.2971 15.5463 22.3051 15.3271 22.3116C15.0177 22.3211 14.7083 22.3286 14.3987 22.334C14.2726 22.3364 14.1465 22.3386 14.0204 22.3405C13.6929 22.3469 13.3658 22.3479 13.0383 22.3517L12.0561 22.3554L11.074 22.3517C10.7465 22.3479 10.4193 22.3466 10.0918 22.3401C9.43717 22.3303 8.78219 22.3157 8.12754 22.2876C8.78219 22.2594 9.43717 22.2448 10.0918 22.235C10.4193 22.2285 10.7465 22.2272 11.074 22.2234L12.0561 22.2197L13.0383 22.2234C13.3658 22.2272 13.6929 22.2282 14.0204 22.2346C14.1204 22.236 14.2205 22.2377 14.3205 22.2397C14.6361 22.2449 14.9517 22.2523 15.2673 22.2618C15.5063 22.2689 15.7455 22.2775 15.9847 22.2876Z"/>
<path d="M17.7509 2H16.5955V2.91599H17.7509V2Z"/>
<path d="M11.8745 2H11.0657V2.91599H11.8745V2Z"/>
<path d="M15.44 2H13.6243V2.91599H15.44V2Z"/>
<path d="M9.3655 2H6.87303V2.91599H9.3655V2Z"/>
</mask>
<path d="M9.28861 12.4942C9.2885 12.6876 9.21369 12.8731 9.0806 13.0099C8.94751 13.1466 8.76704 13.2235 8.57883 13.2236C8.14153 13.2248 7.70469 13.1945 7.2715 13.1331C5.66771 12.901 4.33563 12.2252 3.30033 11.1152C0.858001 8.49711 0.996328 4.42704 1.00359 4.25504C1.01129 4.06709 1.08937 3.88947 1.22152 3.7593C1.35367 3.62912 1.52966 3.55647 1.71272 3.55651H6.13122C6.30777 3.55642 6.478 3.624 6.60865 3.74602C6.7393 3.86805 6.82097 4.03575 6.83771 4.21636C6.83997 4.23947 6.84108 4.26269 6.84101 4.28591C6.84101 4.3817 6.82266 4.47655 6.78699 4.56505C6.75132 4.65355 6.69904 4.73396 6.63313 4.80169C6.56722 4.86942 6.48897 4.92315 6.40285 4.9598C6.31673 4.99646 6.22443 5.01532 6.13122 5.01531H2.44C2.51296 6.17557 2.84904 8.52866 4.33034 10.1116C4.92491 10.7471 5.65418 11.2006 6.51087 11.4704C7.13384 11.6661 7.82315 11.7643 8.57883 11.7648C8.76706 11.7649 8.94757 11.8417 9.08067 11.9785C9.21377 12.1153 9.28857 12.3008 9.28861 12.4942Z" fill="#FFBD1E"/>
<path d="M20.6997 11.1152C19.7225 12.1628 18.4815 12.8237 16.9972 13.0896C16.4766 13.1808 15.9493 13.2257 15.4212 13.2236C15.328 13.2236 15.2357 13.2048 15.1495 13.1681C15.0634 13.1315 14.9852 13.0777 14.9193 13.01C14.8534 12.9423 14.8011 12.8619 14.7654 12.7734C14.7297 12.6849 14.7114 12.59 14.7114 12.4942C14.7114 12.3984 14.7297 12.3036 14.7654 12.2151C14.8011 12.1266 14.8534 12.0462 14.9193 11.9785C14.9852 11.9107 15.0634 11.857 15.1495 11.8204C15.2357 11.7837 15.328 11.7648 15.4212 11.7648C16.2907 11.7648 17.0734 11.6346 17.7691 11.374C18.5056 11.0982 19.1411 10.6765 19.6697 10.1116C21.151 8.52866 21.487 6.17557 21.56 5.01531H17.8688C17.7756 5.01532 17.6833 4.99646 17.5971 4.9598C17.511 4.92315 17.4328 4.86942 17.3669 4.80169C17.301 4.73396 17.2487 4.65355 17.213 4.56505C17.1773 4.47655 17.159 4.3817 17.159 4.28591C17.1589 4.26269 17.16 4.23947 17.1623 4.21636C17.179 4.03575 17.2607 3.86805 17.3913 3.74602C17.522 3.62399 17.6922 3.55642 17.8688 3.55651H22.2873C22.4703 3.55647 22.6463 3.62913 22.7785 3.7593C22.9106 3.88947 22.9887 4.06709 22.9964 4.25504C23.0037 4.42704 23.142 8.49711 20.6997 11.1152Z" fill="#FFBD1E"/>
<path d="M15.9847 22.2876V23H8.12754V22.2876C10.8941 21.3085 11.4566 19.2997 10.9614 16.7546C10.9248 16.5663 10.8825 16.3751 10.8346 16.1809H13.2776C13.2297 16.375 13.1875 16.5662 13.1508 16.7546C12.6556 19.2997 13.2182 21.3085 15.9847 22.2876Z" fill="#FFBD1E"/>
<path d="M10.4418 22.2876V23H8.96112V22.2876C11.2509 21.3085 11.7167 19.2997 11.3067 16.7546C11.2763 16.5663 11.2414 16.3751 11.2017 16.1809H11.6623C11.6837 16.375 11.7028 16.5662 11.7194 16.7546C11.9426 19.2997 11.689 21.3085 10.4418 22.2876Z" fill="#DB8200"/>
<path d="M15.2673 22.2618C14.9517 22.2523 14.6361 22.2449 14.3205 22.2397C12.7385 21.244 12.4513 19.259 12.7418 16.7546C12.7636 16.5663 12.7888 16.3751 12.8174 16.1809H13.0733C13.0333 16.375 12.9981 16.5662 12.9676 16.7546C12.5589 19.2777 13.0155 21.2735 15.2673 22.2618Z" fill="#FFE461"/>
<path d="M13.2776 16.1809C13.2297 16.375 13.1875 16.5662 13.1508 16.7546C13.0134 16.8018 12.8695 16.8257 12.7246 16.8255H11.3876C11.2427 16.8257 11.0988 16.8018 10.9614 16.7546C10.9248 16.5663 10.8825 16.3751 10.8346 16.1809H13.2776Z" fill="#DB8200"/>
<path d="M14.0699 14.6204V15.1377C14.07 15.3193 14.0352 15.4991 13.9676 15.6668C13.9 15.8346 13.8009 15.987 13.676 16.1154C13.5511 16.2438 13.4028 16.3456 13.2395 16.4151C13.0763 16.4845 12.9013 16.5202 12.7246 16.5202H11.3876C11.2109 16.5203 11.0359 16.4846 10.8727 16.4152C10.7094 16.3457 10.5611 16.2439 10.4361 16.1155C10.3112 15.9871 10.2121 15.8347 10.1445 15.6669C10.077 15.4991 10.0422 15.3193 10.0423 15.1377V14.6204H14.0699Z" fill="#FFBD1E"/>
<path d="M13.9379 14.6204V15.1377C13.9379 15.2359 13.9284 15.3339 13.9095 15.4302C13.7877 16.0534 13.2839 16.5202 12.6807 16.5202H12.5932C13.1116 16.5202 13.5447 16.0534 13.6493 15.4302C13.6656 15.3336 13.6738 15.2357 13.6738 15.1377V14.6204H13.9379Z" fill="#FFE461"/>
<path d="M11.5903 16.5202H11.4315C10.8033 16.5202 10.2833 16.014 10.1895 15.3521C10.1795 15.2811 10.1744 15.2095 10.1744 15.1377V14.6204H10.6531V15.1377C10.6531 15.2093 10.6568 15.2809 10.6643 15.3521C10.7343 16.014 11.1222 16.5202 11.5903 16.5202Z" fill="#DB8200"/>
<path d="M18.2316 3.39095C18.2154 8.45945 16.8903 15.5364 12.1221 15.5364C7.35403 15.5364 6.02888 8.45945 6.0127 3.39095C6.01171 3.23048 6.0127 3.07205 6.01468 2.91599H18.2296C18.2316 3.07205 18.2326 3.23048 18.2316 3.39095Z" fill="#FFBD1E"/>
<path d="M14.0699 14.6204V15.1377C14.0699 15.236 14.0598 15.3341 14.0396 15.4302C13.4727 15.7168 12.8362 15.8756 12.1221 15.8756C11.346 15.8756 10.6613 15.6883 10.0585 15.3521C10.0477 15.2812 10.0423 15.2095 10.0423 15.1377V14.6204H14.0699Z" fill="#DB8200"/>
<path d="M18.2316 3.39095C18.2154 8.45945 16.8903 15.5364 12.1221 15.5364C7.35403 15.5364 6.02888 8.45945 6.0127 3.39095C6.01171 3.23048 6.0127 3.07205 6.01468 2.91599H18.2296C18.2316 3.07205 18.2326 3.23048 18.2316 3.39095Z" fill="#FFBD1E"/>
<path d="M6.13122 5.01531H5.3016C5.27089 4.46775 5.25802 3.9738 5.25439 3.55651H6.13122C6.30777 3.55642 6.478 3.624 6.60865 3.74602C6.7393 3.86805 6.82097 4.03575 6.83771 4.21636C6.83997 4.23947 6.84108 4.26269 6.84101 4.28591C6.84101 4.3817 6.82266 4.47655 6.78699 4.56505C6.75132 4.65355 6.69904 4.73396 6.63313 4.80169C6.56722 4.86942 6.48897 4.92315 6.40285 4.9598C6.31673 4.99646 6.22443 5.01532 6.13122 5.01531Z" fill="#DB8200"/>
<path d="M9.28861 12.4942C9.2885 12.6876 9.21369 12.8731 9.0806 13.0099C8.94751 13.1466 8.76704 13.2235 8.57883 13.2236C8.14153 13.2248 7.70469 13.1945 7.2715 13.1331C7.00593 12.6577 6.77476 12.1628 6.57987 11.6525C6.55643 11.5921 6.53365 11.5314 6.51087 11.4704C7.13384 11.6661 7.82315 11.7643 8.57883 11.7648C8.76706 11.7649 8.94757 11.8417 9.08067 11.9785C9.21377 12.1153 9.28857 12.3008 9.28861 12.4942Z" fill="#DB8200"/>
<path d="M15.4212 11.7648C16.2907 11.7648 17.0734 11.6346 17.7691 11.374C17.7351 11.4673 17.7002 11.5601 17.6644 11.6525C17.4752 12.1471 17.2523 12.6273 16.9972 13.0896C16.4766 13.1808 15.9493 13.2257 15.4212 13.2236C15.328 13.2236 15.2357 13.2048 15.1495 13.1681C15.0634 13.1315 14.9852 13.0777 14.9193 13.01C14.8534 12.9423 14.8011 12.8619 14.7654 12.7734C14.7297 12.6849 14.7114 12.59 14.7114 12.4942C14.7114 12.3984 14.7297 12.3036 14.7654 12.2151C14.8011 12.1266 14.8534 12.0462 14.9193 11.9785C14.9852 11.9107 15.0634 11.857 15.1495 11.8204C15.2357 11.7837 15.328 11.7648 15.4212 11.7648Z" fill="#DB8200"/>
<path d="M18.9899 3.55651C18.9863 3.97346 18.9734 4.46741 18.9427 5.01531H17.8688C17.7756 5.01532 17.6833 4.99646 17.5971 4.9598C17.511 4.92315 17.4328 4.86942 17.3669 4.80169C17.301 4.73396 17.2487 4.65355 17.213 4.56505C17.1773 4.47655 17.159 4.3817 17.159 4.28591C17.1589 4.26269 17.16 4.23947 17.1623 4.21636C17.179 4.03575 17.2607 3.86805 17.3913 3.74602C17.522 3.62399 17.6922 3.55642 17.8688 3.55651H18.9899Z" fill="#DB8200"/>
<path d="M18.2316 3.39095C18.2154 8.45945 16.8903 15.5364 12.1221 15.5364C7.35403 15.5364 6.02888 8.45945 6.0127 3.39095C6.01171 3.23048 6.0127 3.07205 6.01468 2.91599H18.2296C18.2316 3.07205 18.2326 3.23048 18.2316 3.39095Z" fill="#FFBD1E"/>
<path d="M16.8269 3.39095C16.814 8.45945 15.7939 15.5364 12.1221 15.5364C14.8025 15.5364 15.5473 8.45945 15.5565 3.39095C15.5572 3.23048 15.5565 3.07205 15.5555 2.91599H16.8256C16.8269 3.07205 16.8279 3.23048 16.8269 3.39095Z" fill="#FFE461"/>
<path d="M12.1221 15.5364C12.0885 15.5364 12.0551 15.536 12.0218 15.535C7.80103 15.4258 6.62378 8.41976 6.60925 3.39095C6.60826 3.23048 6.60925 3.07205 6.6109 2.91599H8.68876C8.68777 3.07205 8.68711 3.23048 8.68777 3.39095C8.69702 8.45945 9.4418 15.5364 12.1221 15.5364Z" fill="#DB8200"/>
<path d="M5.91564 2H18.3287C18.3987 2 18.4659 2.02859 18.5154 2.07949C18.5649 2.13039 18.5928 2.19942 18.5928 2.27141V2.64459C18.5928 2.71657 18.5649 2.7856 18.5154 2.8365C18.4659 2.8874 18.3987 2.91599 18.3287 2.91599H5.91564C5.8456 2.91599 5.77842 2.8874 5.72889 2.8365C5.67936 2.7856 5.65154 2.71657 5.65154 2.64459V2.27141C5.65154 2.19942 5.67936 2.13039 5.72889 2.07949C5.77842 2.02859 5.8456 2 5.91564 2Z" fill="#FFBD1E"/>
<path d="M18.2316 3.39095H6.0127C6.01171 3.23048 6.0127 3.07205 6.01468 2.91599H18.2296C18.2316 3.07205 18.2326 3.23048 18.2316 3.39095Z" fill="#DB8200"/>
<path d="M10.1083 22.2876H8.58972V23H10.1083V22.2876Z" fill="#DB8200"/>
<path d="M12.1772 22.2876H11.3518V23H12.1772V22.2876Z" fill="#FFE461"/>
<path d="M14.147 22.2876H12.8374V23H14.147V22.2876Z" fill="#DB8200"/>
<path d="M15.5996 22.2876H14.9063V23H15.5996V22.2876Z" fill="#FFE461"/>
<path d="M15.9847 22.2876C15.7655 22.2971 15.5463 22.3051 15.3271 22.3116C15.0177 22.3211 14.7083 22.3286 14.3987 22.334C14.2726 22.3364 14.1465 22.3386 14.0204 22.3405C13.6929 22.3469 13.3658 22.3479 13.0383 22.3517L12.0561 22.3554L11.074 22.3517C10.7465 22.3479 10.4193 22.3466 10.0918 22.3401C9.43717 22.3303 8.78219 22.3157 8.12754 22.2876C8.78219 22.2594 9.43717 22.2448 10.0918 22.235C10.4193 22.2285 10.7465 22.2272 11.074 22.2234L12.0561 22.2197L13.0383 22.2234C13.3658 22.2272 13.6929 22.2282 14.0204 22.2346C14.1204 22.236 14.2205 22.2377 14.3205 22.2397C14.6361 22.2449 14.9517 22.2523 15.2673 22.2618C15.5063 22.2689 15.7455 22.2775 15.9847 22.2876Z" fill="#FFE461"/>
<path d="M17.7509 2H16.5955V2.91599H17.7509V2Z" fill="#FFE461"/>
<path d="M11.8745 2H11.0657V2.91599H11.8745V2Z" fill="#FFE461"/>
<path d="M15.44 2H13.6243V2.91599H15.44V2Z" fill="#DB8200"/>
<path d="M9.3655 2H6.87303V2.91599H9.3655V2Z" fill="#DB8200"/>
<path d="M9.28861 12.4942L9.78861 12.4945L9.78861 12.4941L9.28861 12.4942ZM8.57883 13.2236L8.57852 12.7236L8.57748 12.7236L8.57883 13.2236ZM6.83771 4.21636L6.33983 4.26249L6.3401 4.2652L6.83771 4.21636ZM6.84101 4.28591L6.34101 4.28443L6.34101 4.28594L6.84101 4.28591ZM8.57883 11.7648L8.57845 12.2648L8.5787 12.2648L8.57883 11.7648ZM9.08067 11.9785L9.43901 11.6298L9.08067 11.9785ZM15.4212 13.2236L15.4231 12.7236L15.4212 12.7236L15.4212 13.2236ZM15.4212 11.7648L15.4212 12.2648H15.4212L15.4212 11.7648ZM17.159 4.28591L17.659 4.28594L17.659 4.28441L17.159 4.28591ZM17.1623 4.21636L17.6599 4.26515L17.6602 4.26249L17.1623 4.21636ZM10.8346 16.1809V15.6809H10.1964L10.3492 16.3006L10.8346 16.1809ZM13.2776 16.1809L13.7631 16.3007L13.9159 15.6809H13.2776V16.1809ZM14.0699 14.6204H14.5699V14.1204H14.0699V14.6204ZM10.0423 14.6204V14.1204H9.54231V14.6204H10.0423ZM18.2316 3.39095L17.7316 3.38786L17.7316 3.38936L18.2316 3.39095ZM6.0127 3.39095L6.5127 3.38936L6.51269 3.38787L6.0127 3.39095ZM6.01468 2.91599V2.41599H5.52099L5.51472 2.90965L6.01468 2.91599ZM18.2296 2.91599L18.7296 2.90965L18.7233 2.41599H18.2296V2.91599ZM8.78861 12.4939C8.78858 12.5592 8.76322 12.6191 8.72226 12.6612L9.43894 13.3586C9.66416 13.1271 9.78843 12.8161 9.78861 12.4945L8.78861 12.4939ZM8.72226 12.6612C8.68175 12.7028 8.62977 12.7236 8.57852 12.7236L8.57913 13.7236C8.90431 13.7234 9.21327 13.5905 9.43894 13.3586L8.72226 12.6612ZM8.57748 12.7236C8.16416 12.7247 7.75125 12.6961 7.34177 12.638L7.20123 13.6281C7.65813 13.6929 8.1189 13.7249 8.58017 13.7236L8.57748 12.7236ZM6.13147 4.05651C6.17946 4.05649 6.22808 4.07474 6.26736 4.11143L6.94994 3.38061C6.72793 3.17325 6.43608 3.05636 6.13097 3.05651L6.13147 4.05651ZM6.26736 4.11143C6.30702 4.14847 6.33423 4.20193 6.33984 4.26249L7.33557 4.17024C7.30772 3.86958 7.17158 3.58762 6.94994 3.38061L6.26736 4.11143ZM6.3401 4.2652C6.34072 4.27158 6.34103 4.278 6.34101 4.28443L7.341 4.2874C7.34112 4.24737 7.33922 4.20736 7.33531 4.16752L6.3401 4.2652ZM6.34101 4.28594C6.34101 4.31792 6.33486 4.34929 6.32324 4.37814L7.25074 4.75196C7.31045 4.60381 7.34101 4.44548 7.34101 4.28589L6.34101 4.28594ZM6.32324 4.37814C6.31162 4.40696 6.29494 4.43228 6.27479 4.45299L6.99147 5.15039C7.10314 5.03563 7.19102 4.90013 7.25074 4.75196L6.32324 4.37814ZM6.27479 4.45299C6.25466 4.47367 6.23152 4.48932 6.20703 4.49974L6.59867 5.41986C6.74642 5.35698 6.87977 5.26518 6.99147 5.15039L6.27479 4.45299ZM6.20703 4.49974C6.18258 4.51015 6.15687 4.51532 6.13125 4.51531L6.13119 5.51531C6.29199 5.51532 6.45088 5.48276 6.59867 5.41986L6.20703 4.49974ZM6.36099 11.9474C7.03925 12.1605 7.77986 12.2642 8.57845 12.2648L8.5792 11.2648C7.86645 11.2643 7.22843 11.1717 6.66076 10.9933L6.36099 11.9474ZM8.5787 12.2648C8.6299 12.2648 8.68185 12.2856 8.72233 12.3272L9.43901 11.6298C9.21329 11.3979 8.90422 11.2649 8.57895 11.2648L8.5787 12.2648ZM8.72233 12.3272C8.76326 12.3693 8.7886 12.4292 8.78861 12.4944L9.78861 12.4941C9.78854 12.1724 9.66428 11.8613 9.43901 11.6298L8.72233 12.3272ZM16.9109 12.5971C16.4194 12.6832 15.9216 12.7256 15.4231 12.7236L15.4192 13.7236C15.977 13.7258 16.5338 13.6784 17.0835 13.5821L16.9109 12.5971ZM15.4212 12.7236C15.3955 12.7236 15.3698 12.7185 15.3454 12.7081L14.9537 13.6282C15.1015 13.6911 15.2604 13.7236 15.4212 13.7236L15.4212 12.7236ZM15.3454 12.7081C15.3209 12.6976 15.2977 12.682 15.2776 12.6613L14.5609 13.3587C14.6726 13.4735 14.806 13.5653 14.9537 13.6282L15.3454 12.7081ZM15.2776 12.6613C15.2575 12.6406 15.2408 12.6153 15.2292 12.5864L14.3017 12.9603C14.3614 13.1084 14.4493 13.2439 14.5609 13.3587L15.2776 12.6613ZM15.2292 12.5864C15.2175 12.5576 15.2114 12.5262 15.2114 12.4942H14.2114C14.2114 12.6538 14.242 12.8121 14.3017 12.9603L15.2292 12.5864ZM15.2114 12.4942C15.2114 12.4622 15.2175 12.4309 15.2292 12.402L14.3017 12.0282C14.242 12.1763 14.2114 12.3346 14.2114 12.4942H15.2114ZM15.2292 12.402C15.2408 12.3732 15.2575 12.3479 15.2776 12.3272L14.5609 11.6298C14.4493 11.7445 14.3614 11.88 14.3017 12.0282L15.2292 12.402ZM15.2776 12.3272C15.2977 12.3065 15.3209 12.2908 15.3454 12.2804L14.9537 11.3603C14.806 11.4232 14.6726 11.515 14.5609 11.6298L15.2776 12.3272ZM15.3454 12.2804C15.3698 12.27 15.3955 12.2648 15.4212 12.2648L15.4212 11.2648C15.2604 11.2648 15.1015 11.2974 14.9537 11.3603L15.3454 12.2804ZM15.4212 12.2648C16.3406 12.2648 17.184 12.127 17.9444 11.8422L17.5937 10.9058C16.9628 11.1421 16.2409 11.2648 15.4212 11.2648L15.4212 12.2648ZM17.8688 4.51531C17.8431 4.51532 17.8174 4.51015 17.793 4.49974L17.4013 5.41986C17.5491 5.48277 17.708 5.51532 17.8688 5.51531L17.8688 4.51531ZM17.793 4.49974C17.7685 4.48932 17.7453 4.47367 17.7252 4.45299L17.0085 5.15039C17.1202 5.26518 17.2536 5.35698 17.4013 5.41986L17.793 4.49974ZM17.7252 4.45299C17.7051 4.43228 17.6884 4.40696 17.6768 4.37814L16.7493 4.75196C16.809 4.90013 16.8969 5.03563 17.0085 5.15039L17.7252 4.45299ZM17.6768 4.37814C17.6651 4.34929 17.659 4.31792 17.659 4.28594L16.659 4.28588C16.659 4.44548 16.6896 4.60381 16.7493 4.75196L17.6768 4.37814ZM17.659 4.28441C17.659 4.27797 17.6593 4.27154 17.6599 4.26515L16.6647 4.16758C16.6608 4.20741 16.6589 4.2474 16.659 4.28741L17.659 4.28441ZM17.6602 4.26249C17.6658 4.20193 17.693 4.14847 17.7326 4.11143L17.0501 3.38061C16.8284 3.58762 16.6923 3.86957 16.6644 4.17024L17.6602 4.26249ZM17.7326 4.11143C17.7719 4.07474 17.8205 4.05649 17.8685 4.05651L17.869 3.05651C17.5639 3.05636 17.2721 3.17325 17.0501 3.38061L17.7326 4.11143ZM11.4522 16.6591C11.4139 16.4624 11.3699 16.2631 11.3201 16.0613L10.3492 16.3006C10.3951 16.4871 10.4356 16.6703 10.4706 16.8501L11.4522 16.6591ZM10.8346 16.6809H13.2776V15.6809H10.8346V16.6809ZM12.7922 16.0612C12.7424 16.263 12.6983 16.4623 12.66 16.6592L13.6416 16.8501C13.6766 16.6701 13.7171 16.487 13.7631 16.3007L12.7922 16.0612ZM15.2824 21.762C14.9645 21.7524 14.6466 21.745 14.3287 21.7398L14.3123 22.7397C14.6256 22.7448 14.9389 22.7521 15.2523 22.7616L15.2824 21.762ZM13.5699 14.6204V15.1377H14.5699V14.6204H13.5699ZM10.5423 15.1377V14.6204H9.54231V15.1377H10.5423ZM10.0423 15.1204H14.0699V14.1204H10.0423V15.1204ZM17.7316 3.38936C17.7236 5.8934 17.3909 8.8613 16.4925 11.184C15.5892 13.5196 14.1918 15.0364 12.1221 15.0364V16.0364C14.8206 16.0364 16.4699 14.0147 17.4252 11.5447C18.3855 9.0618 18.7234 5.957 18.7316 3.39255L17.7316 3.38936ZM12.1221 15.0364C10.0525 15.0364 8.65512 13.5196 7.75178 11.184C6.85345 8.8613 6.52069 5.8934 6.5127 3.38936L5.5127 3.39255C5.52089 5.957 5.8588 9.0618 6.81911 11.5447C7.77442 14.0147 9.4237 16.0364 12.1221 16.0364V15.0364ZM6.51269 3.38787C6.51173 3.23142 6.51269 3.07628 6.51464 2.92234L5.51472 2.90965C5.51272 3.06782 5.5117 3.22954 5.51271 3.39404L6.51269 3.38787ZM6.01468 3.41599H18.2296V2.41599H6.01468V3.41599ZM17.7297 2.92234C17.7316 3.07628 17.7326 3.23142 17.7316 3.38786L18.7316 3.39405C18.7326 3.22954 18.7316 3.06782 18.7296 2.90965L17.7297 2.92234ZM7.2715 13.1331L7.1283 14.1227L9.13177 14.4126L8.14451 12.6454L7.2715 13.1331ZM3.30033 11.1152L4.03163 10.4331L4.03155 10.433L3.30033 11.1152ZM1.00359 4.25504L2.0027 4.29723L2.00275 4.29598L1.00359 4.25504ZM1.71272 3.55651L1.71249 4.55651H1.71272V3.55651ZM2.44 5.01531V4.01531H1.37514L1.44197 5.07807L2.44 5.01531ZM4.33034 10.1116L5.06053 9.42839L5.06051 9.42836L4.33034 10.1116ZM6.51087 11.4704L7.44782 11.1209L7.2771 10.6632L6.81117 10.5165L6.51087 11.4704ZM20.6997 11.1152L19.9685 10.433L19.9684 10.4331L20.6997 11.1152ZM16.9972 13.0896L16.1216 12.6066L15.1078 14.4441L17.1736 14.0739L16.9972 13.0896ZM17.7691 11.374L17.4184 10.4375L16.9872 10.599L16.8295 11.0316L17.7691 11.374ZM19.6697 10.1116L18.9395 9.42836L18.9395 9.42839L19.6697 10.1116ZM21.56 5.01531L22.558 5.07807L22.6249 4.01531H21.56V5.01531ZM22.2873 3.55651L22.2873 4.55651L22.2875 4.55651L22.2873 3.55651ZM22.9964 4.25504L21.9972 4.29598L21.9973 4.29722L22.9964 4.25504ZM15.9847 22.2876H16.9847V21.5807L16.3183 21.3449L15.9847 22.2876ZM15.9847 23V24H16.9847V23H15.9847ZM8.12754 23H7.12754V24H8.12754V23ZM8.12754 22.2876L7.7939 21.3449L7.12754 21.5807V22.2876H8.12754ZM10.9614 16.7546L11.2861 15.8088L9.64929 15.2469L9.97981 16.9456L10.9614 16.7546ZM13.1508 16.7546L14.1324 16.9456L14.4629 15.2469L12.8262 15.8088L13.1508 16.7546ZM10.4418 22.2876L9.82429 21.501L9.44177 21.8013V22.2876H10.4418ZM10.4418 23V24H11.4418V23H10.4418ZM8.96112 23H7.96112V24H8.96112V23ZM8.96112 22.2876L8.56797 21.3681L7.96112 21.6276V22.2876H8.96112ZM11.3067 16.7546L12.294 16.5956L12.294 16.5954L11.3067 16.7546ZM11.2017 16.1809V15.1809H9.9771L10.2219 16.3809L11.2017 16.1809ZM11.6623 16.1809L12.6562 16.071L12.5578 15.1809H11.6623V16.1809ZM11.7194 16.7546L12.7156 16.6673L12.7155 16.6668L11.7194 16.7546ZM15.2673 22.2618L14.8655 23.1775L15.0434 23.2555L15.2375 23.2613L15.2673 22.2618ZM14.3205 22.2397L14.3002 23.2395L17.9028 23.3128L14.8532 21.3934L14.3205 22.2397ZM12.7418 16.7546L13.7351 16.8699L13.7352 16.8696L12.7418 16.7546ZM12.8174 16.1809V15.1809H11.954L11.8281 16.0352L12.8174 16.1809ZM13.0733 16.1809L14.0527 16.3826L14.3001 15.1809H13.0733V16.1809ZM12.9676 16.7546L13.9548 16.9145L13.9548 16.9143L12.9676 16.7546ZM12.7246 16.8255L12.7261 15.8255H12.7246V16.8255ZM11.3876 16.8255L11.3876 15.8255L11.3862 15.8255L11.3876 16.8255ZM14.0699 15.1377L15.0699 15.1375L13.0699 15.1378L14.0699 15.1377ZM12.7246 16.5202L12.7249 15.5202H12.7246V16.5202ZM11.3876 16.5202L11.3876 15.5202L11.3871 15.5202L11.3876 16.5202ZM10.0423 15.1377L11.0423 15.1375L9.04231 15.1372L10.0423 15.1377ZM13.9379 14.6204H14.9379V13.6204H13.9379V14.6204ZM13.9379 15.1377L12.9379 15.1377L12.9379 15.1378L13.9379 15.1377ZM13.9095 15.4302L12.9282 15.2376L12.9281 15.2383L13.9095 15.4302ZM13.6493 15.4302L12.6632 15.2643L12.6632 15.2646L13.6493 15.4302ZM13.6738 15.1377L14.6738 15.1378V15.1377H13.6738ZM13.6738 14.6204V13.6204H12.6738V14.6204H13.6738ZM10.1895 15.3521L11.1797 15.2119L11.1796 15.2114L10.1895 15.3521ZM10.1744 15.1377L9.17436 15.1377L9.17436 15.138L10.1744 15.1377ZM10.1744 14.6204V13.6204H9.17436V14.6204H10.1744ZM10.6531 14.6204H11.6531V13.6204H10.6531V14.6204ZM10.6531 15.1377L9.65305 15.1377L9.65305 15.1383L10.6531 15.1377ZM10.6643 15.3521L9.66969 15.4561L9.66982 15.4573L10.6643 15.3521ZM14.0396 15.4302L14.4909 16.3225L14.9194 16.1058L15.0182 15.6359L14.0396 15.4302ZM10.0585 15.3521L9.06977 15.502L9.14323 15.9867L9.5714 16.2255L10.0585 15.3521ZM5.3016 5.01531L4.30316 5.0713L4.3561 6.01531H5.3016V5.01531ZM5.25439 3.55651V2.55651H4.24564L4.25442 3.56521L5.25439 3.55651ZM6.57987 11.6525L7.51407 11.2957L7.5121 11.2907L6.57987 11.6525ZM17.6644 11.6525L16.7319 11.2915L16.7304 11.2952L17.6644 11.6525ZM18.9899 3.55651L19.9899 3.56523L19.9987 2.55651H18.9899V3.55651ZM18.9427 5.01531V6.01531H19.8882L19.9411 5.07127L18.9427 5.01531ZM16.8269 3.39095L15.8269 3.38479L15.8269 3.38841L16.8269 3.39095ZM15.5565 3.39095L14.5565 3.38684L14.5565 3.38913L15.5565 3.39095ZM15.5555 2.91599V1.91599H14.5492L14.5556 2.92234L15.5555 2.91599ZM16.8256 2.91599L17.8255 2.90753L17.8171 1.91599H16.8256V2.91599ZM12.0218 15.535L12.0523 14.5354L12.0477 14.5353L12.0218 15.535ZM6.60925 3.39095L7.60925 3.38807L7.60923 3.38477L6.60925 3.39095ZM6.6109 2.91599V1.91599H5.62142L5.61096 2.90542L6.6109 2.91599ZM8.68876 2.91599L9.68874 2.92235L9.69514 1.91599H8.68876V2.91599ZM8.68777 3.39095L9.68777 3.38913L9.68776 3.38685L8.68777 3.39095ZM5.91564 2L5.91564 1L5.91564 2ZM18.5928 2.27141L19.5928 2.27141L18.5928 2.27141ZM18.5928 2.64459L17.5928 2.64459L18.5928 2.64459ZM18.3287 2.91599V3.91599V2.91599ZM5.65154 2.64459H6.65154H5.65154ZM8.58972 22.2876V21.2876H7.58972V22.2876H8.58972ZM10.1083 22.2876H11.1083V21.2876H10.1083V22.2876ZM10.1083 23V24H11.1083V23H10.1083ZM8.58972 23H7.58972V24H8.58972V23ZM11.3518 22.2876V21.2876H10.3518V22.2876H11.3518ZM12.1772 22.2876H13.1772V21.2876H12.1772V22.2876ZM12.1772 23V24H13.1772V23H12.1772ZM11.3518 23H10.3518V24H11.3518V23ZM12.8374 22.2876V21.2876H11.8374V22.2876H12.8374ZM14.147 22.2876H15.147V21.2876H14.147V22.2876ZM14.147 23V24H15.147V23H14.147ZM12.8374 23H11.8374V24H12.8374V23ZM14.9063 22.2876V21.2876H13.9063V22.2876H14.9063ZM15.5996 22.2876H16.5996V21.2876H15.5996V22.2876ZM15.5996 23V24H16.5996V23H15.5996ZM14.9063 23H13.9063V24H14.9063V23ZM15.3271 22.3116L15.2972 21.3121L15.2964 21.3121L15.3271 22.3116ZM14.3987 22.334L14.3812 21.3342L14.3799 21.3342L14.3987 22.334ZM14.0204 22.3405L14.0052 21.3406L14.0007 21.3407L14.0204 22.3405ZM13.0383 22.3517L13.0421 23.3517L13.0497 23.3516L13.0383 22.3517ZM12.0561 22.3554L12.0523 23.3554L12.0599 23.3554L12.0561 22.3554ZM11.074 22.3517L11.0626 23.3516L11.0702 23.3517L11.074 22.3517ZM10.0918 22.3401L10.1115 21.3403L10.1069 21.3403L10.0918 22.3401ZM10.0918 22.235L10.1069 23.2349L10.1115 23.2348L10.0918 22.235ZM11.074 22.2234L11.0702 21.2234L11.0626 21.2235L11.074 22.2234ZM12.0561 22.2197L12.0599 21.2197L12.0523 21.2197L12.0561 22.2197ZM13.0383 22.2234L13.0497 21.2235L13.0421 21.2234L13.0383 22.2234ZM14.0204 22.2346L14.0007 23.2345L14.0069 23.2345L14.0204 22.2346ZM16.5955 2V1H15.5955V2H16.5955ZM17.7509 2H18.7509V1H17.7509V2ZM17.7509 2.91599V3.91599H18.7509V2.91599H17.7509ZM16.5955 2.91599H15.5955V3.91599H16.5955V2.91599ZM11.0657 2V1H10.0657V2H11.0657ZM11.8745 2H12.8745V1H11.8745V2ZM11.8745 2.91599V3.91599H12.8745V2.91599H11.8745ZM11.0657 2.91599H10.0657V3.91599H11.0657V2.91599ZM13.6243 2V1H12.6243V2H13.6243ZM15.44 2H16.44V1H15.44V2ZM15.44 2.91599V3.91599H16.44V2.91599H15.44ZM13.6243 2.91599H12.6243V3.91599H13.6243V2.91599ZM6.87303 2V1H5.87303V2H6.87303ZM9.3655 2H10.3655V1H9.3655V2ZM9.3655 2.91599V3.91599H10.3655V2.91599H9.3655ZM6.87303 2.91599H5.87303V3.91599H6.87303V2.91599ZM7.4147 12.1434C6.0192 11.9414 4.90027 11.3645 4.03163 10.4331L2.56903 11.7972C3.77098 13.0859 5.31623 13.8606 7.1283 14.1227L7.4147 12.1434ZM4.03155 10.433C2.98763 9.31399 2.46561 7.84612 2.21442 6.5741C1.96521 5.31212 2.00103 4.33689 2.0027 4.29723L0.0044819 4.21285C-0.00110682 4.34519 -0.0380873 5.491 0.252309 6.96156C0.540723 8.42209 1.1707 10.2983 2.56911 11.7973L4.03155 10.433ZM2.00275 4.29598C2.00023 4.35751 1.97465 4.42111 1.92329 4.47171L0.519759 3.04689C0.204098 3.35783 0.022352 3.77668 0.00442972 4.2141L2.00275 4.29598ZM1.92329 4.47171C1.87109 4.52313 1.79602 4.55653 1.71249 4.55651L1.71295 2.55651C1.26331 2.55641 0.836255 2.73512 0.519759 3.04689L1.92329 4.47171ZM1.71272 4.55651H6.13122V2.55651H1.71272V4.55651ZM6.13122 4.01531H2.44V6.01531H6.13122V4.01531ZM1.44197 5.07807C1.51741 6.27784 1.86565 8.94133 3.60018 10.7949L5.06051 9.42836C3.83242 8.11599 3.5085 6.0733 3.43803 4.95256L1.44197 5.07807ZM3.60015 10.7949C4.31679 11.5608 5.196 12.1048 6.21058 12.4242L6.81117 10.5165C6.11235 10.2965 5.53304 9.93336 5.06053 9.42839L3.60015 10.7949ZM19.9684 10.4331C19.1471 11.3135 18.1049 11.8752 16.8208 12.1053L17.1736 14.0739C18.8581 13.7721 20.2978 13.012 21.4309 11.7973L19.9684 10.4331ZM18.1198 12.3105C18.9977 11.9817 19.7639 11.4745 20.3998 10.7949L18.9395 9.42839C18.5183 9.87846 18.0135 10.2147 17.4184 10.4375L18.1198 12.3105ZM20.3998 10.7949C22.1343 8.94133 22.4826 6.27784 22.558 5.07807L20.562 4.95255C20.4915 6.0733 20.1676 8.11599 18.9395 9.42836L20.3998 10.7949ZM21.56 4.01531H17.8688V6.01531H21.56V4.01531ZM17.8688 4.55651H22.2873V2.55651H17.8688V4.55651ZM22.2875 4.55651C22.204 4.55653 22.1289 4.52313 22.0767 4.47171L23.4802 3.04689C23.1637 2.73512 22.7367 2.55641 22.2871 2.55651L22.2875 4.55651ZM22.0767 4.47171C22.0253 4.42111 21.9998 4.35751 21.9972 4.29598L23.9956 4.21409C23.9776 3.77667 23.7959 3.35783 23.4802 3.04689L22.0767 4.47171ZM21.9973 4.29722C21.999 4.33689 22.0348 5.31212 21.7856 6.5741C21.5344 7.84612 21.0124 9.31399 19.9685 10.433L21.4309 11.7973C22.8293 10.2983 23.4593 8.42209 23.7477 6.96156C24.0381 5.491 24.0011 4.34519 23.9955 4.21286L21.9973 4.29722ZM14.9847 22.2876V23H16.9847V22.2876H14.9847ZM15.9847 22H8.12754V24H15.9847V22ZM9.12754 23V22.2876H7.12754V23H9.12754ZM8.46117 23.2303C10.039 22.6719 11.1182 21.7652 11.6794 20.519C12.224 19.3097 12.2098 17.9348 11.943 16.5636L9.97981 16.9456C10.2082 18.1196 10.1603 19.0215 9.85581 19.6977C9.56797 20.3369 8.98261 20.9242 7.7939 21.3449L8.46117 23.2303ZM12.1692 16.5636C11.9025 17.9348 11.8882 19.3097 12.4328 20.519C12.9941 21.7652 14.0733 22.6719 15.6511 23.2303L16.3183 21.3449C15.1296 20.9242 14.5443 20.3369 14.2564 19.6977C13.9519 19.0215 13.904 18.1196 14.1324 16.9456L12.1692 16.5636ZM9.44177 22.2876V23H11.4418V22.2876H9.44177ZM10.4418 22H8.96112V24H10.4418V22ZM9.96112 23V22.2876H7.96112V23H9.96112ZM9.35428 23.207C10.731 22.6184 11.629 21.6764 12.0834 20.4576C12.5208 19.2842 12.512 17.9485 12.294 16.5956L10.3194 16.9137C10.5115 18.1058 10.4748 19.047 10.2093 19.759C9.96083 20.4257 9.48106 20.9777 8.56797 21.3681L9.35428 23.207ZM12.294 16.5954C12.2613 16.393 12.2238 16.1882 12.1815 15.981L10.2219 16.3809C10.2589 16.562 10.2914 16.7397 10.3195 16.9139L12.294 16.5954ZM11.2017 17.1809H11.6623V15.1809H11.2017V17.1809ZM10.6683 16.2908C10.689 16.4778 10.7073 16.6617 10.7233 16.8425L12.7155 16.6668C12.6982 16.4708 12.6785 16.2722 12.6562 16.071L10.6683 16.2908ZM10.7232 16.842C10.8311 18.0719 10.816 19.1017 10.652 19.9094C10.489 20.7122 10.1981 21.2075 9.82429 21.501L11.0592 23.0741C11.9326 22.3885 12.3922 21.3899 12.612 20.3073C12.8308 19.2295 12.8309 17.9824 12.7156 16.6673L10.7232 16.842ZM14.8532 21.3934C13.8216 20.7441 13.4467 19.3564 13.7351 16.8699L11.7485 16.6394C11.4559 19.1617 11.6554 21.7439 13.7878 23.086L14.8532 21.3934ZM13.7352 16.8696C13.7557 16.6919 13.7796 16.511 13.8067 16.3267L11.8281 16.0352C11.798 16.2392 11.7715 16.4407 11.7484 16.6397L13.7352 16.8696ZM12.8174 17.1809H13.0733V15.1809H12.8174V17.1809ZM12.0938 15.9793C12.0511 16.1868 12.0133 16.392 11.9805 16.5949L13.9548 16.9143C13.9829 16.7405 14.0155 16.5632 14.0527 16.3826L12.0938 15.9793ZM11.9805 16.5947C11.7631 17.9367 11.7525 19.2618 12.1811 20.4286C12.6261 21.6399 13.5085 22.582 14.8655 23.1775L15.6692 21.3461C14.7743 20.9533 14.3025 20.4034 14.0584 19.7389C13.798 19.03 13.7634 18.0956 13.9548 16.9145L11.9805 16.5947ZM12.8262 15.8088C12.7934 15.82 12.7597 15.8256 12.7261 15.8255L12.7232 17.8255C12.9793 17.8259 13.2335 17.7835 13.4755 17.7004L12.8262 15.8088ZM12.7246 15.8255H11.3876V17.8255H12.7246V15.8255ZM11.3862 15.8255C11.3526 15.8256 11.3188 15.82 11.2861 15.8088L10.6367 17.7004C10.8788 17.7835 11.1329 17.8259 11.389 17.8255L11.3862 15.8255ZM13.0699 15.138C13.0699 15.1919 13.0596 15.2447 13.0401 15.2931L14.8952 16.0406C15.0108 15.7535 15.07 15.4467 15.0699 15.1375L13.0699 15.138ZM13.0401 15.2931C13.0206 15.3415 12.9927 15.3837 12.9593 15.418L14.3927 16.8128C14.6092 16.5903 14.7795 16.3277 14.8952 16.0406L13.0401 15.2931ZM12.9593 15.418C12.926 15.4522 12.8879 15.4779 12.848 15.4949L13.631 17.3352C13.9176 17.2133 14.1762 17.0353 14.3927 16.8128L12.9593 15.418ZM12.848 15.4949C12.8081 15.5119 12.7664 15.5202 12.7249 15.5202L12.7244 17.5202C13.0363 17.5203 13.3444 17.4572 13.631 17.3352L12.848 15.4949ZM12.7246 15.5202H11.3876V17.5202H12.7246V15.5202ZM11.3871 15.5202C11.3456 15.5202 11.3039 15.5119 11.2641 15.4949L10.4813 17.3354C10.7679 17.4573 11.0762 17.5204 11.3881 17.5202L11.3871 15.5202ZM11.2641 15.4949C11.2242 15.478 11.1861 15.4523 11.1528 15.4181L9.71945 16.8129C9.93602 17.0354 10.1946 17.2135 10.4813 17.3354L11.2641 15.4949ZM11.1528 15.4181C11.1194 15.3838 11.0916 15.3416 11.0721 15.2933L9.21694 16.0405C9.33262 16.3277 9.50294 16.5904 9.71945 16.8129L11.1528 15.4181ZM11.0721 15.2933C11.0526 15.2449 11.0423 15.1921 11.0423 15.1382L9.04231 15.1372C9.04215 15.4465 9.10128 15.7533 9.21694 16.0405L11.0721 15.2933ZM12.9379 14.6204V15.1377H14.9379V14.6204H12.9379ZM12.9379 15.1378C12.9379 15.1714 12.9346 15.2049 12.9282 15.2376L14.8908 15.6227C14.9221 15.4629 14.9379 15.3004 14.9379 15.1376L12.9379 15.1378ZM12.9281 15.2383C12.9077 15.3427 12.8579 15.4196 12.8072 15.4651C12.7591 15.5083 12.7159 15.5202 12.6807 15.5202V17.5202C13.8348 17.5202 14.692 16.6396 14.8909 15.622L12.9281 15.2383ZM12.6807 15.5202H12.5932V17.5202H12.6807V15.5202ZM12.5932 17.5202C13.7722 17.5202 14.4823 16.5081 14.6355 15.5958L12.6632 15.2646C12.6404 15.3998 12.5872 15.4827 12.5538 15.5176C12.5239 15.5489 12.5359 15.5202 12.5932 15.5202V17.5202ZM14.6355 15.596C14.661 15.4446 14.6738 15.2913 14.6738 15.1378L12.6738 15.1376C12.6738 15.1801 12.6702 15.2225 12.6632 15.2643L14.6355 15.596ZM14.6738 15.1377V14.6204H12.6738V15.1377H14.6738ZM13.6738 15.6204H13.9379V13.6204H13.6738V15.6204ZM11.5903 15.5202H11.4315V17.5202H11.5903V15.5202ZM11.4315 15.5202C11.3952 15.5202 11.3495 15.5075 11.2989 15.4595C11.246 15.4092 11.1957 15.3248 11.1797 15.2119L9.19943 15.4924C9.35166 16.567 10.228 17.5202 11.4315 17.5202V15.5202ZM11.1796 15.2114C11.1761 15.187 11.1744 15.1622 11.1744 15.1374L9.17436 15.138C9.1744 15.2567 9.18279 15.3753 9.1995 15.4928L11.1796 15.2114ZM11.1744 15.1377V14.6204H9.17436V15.1377H11.1744ZM10.1744 15.6204H10.6531V13.6204H10.1744V15.6204ZM9.65305 14.6204V15.1377H11.6531V14.6204H9.65305ZM9.65305 15.1383C9.65311 15.2444 9.65866 15.3505 9.66969 15.4561L11.6589 15.2482C11.655 15.2114 11.6531 15.1743 11.6531 15.1372L9.65305 15.1383ZM9.66982 15.4573C9.72133 15.9444 9.89336 16.4221 10.1913 16.8017C10.4895 17.1817 10.9691 17.5202 11.5903 17.5202V15.5202C11.659 15.5202 11.7138 15.5399 11.7463 15.5581C11.7755 15.5744 11.7783 15.5843 11.7647 15.567C11.7341 15.5281 11.6772 15.4218 11.6587 15.247L9.66982 15.4573ZM13.0699 15.1378C13.0699 15.1671 13.0669 15.1961 13.061 15.2244L15.0182 15.6359C15.0526 15.472 15.07 15.305 15.0699 15.1376L13.0699 15.1378ZM13.5883 14.5378C13.1635 14.7526 12.6819 14.8756 12.1221 14.8756V16.8756C12.9905 16.8756 13.7819 16.6811 14.4909 16.3225L13.5883 14.5378ZM12.1221 14.8756C11.5147 14.8756 10.9979 14.7311 10.5456 14.4788L9.5714 16.2255C10.3247 16.6456 11.1773 16.8756 12.1221 16.8756V14.8756ZM11.0472 15.2023C11.044 15.1809 11.0423 15.1592 11.0423 15.1375L9.04231 15.138C9.04234 15.2598 9.05152 15.3815 9.06977 15.502L11.0472 15.2023ZM6.13122 4.01531H5.3016V6.01531H6.13122V4.01531ZM6.30003 4.95933C6.27032 4.42957 6.25786 3.95153 6.25435 3.54781L4.25442 3.56521C4.25817 3.99607 4.27146 4.50594 4.30316 5.0713L6.30003 4.95933ZM5.25439 4.55651H6.13122V2.55651H5.25439V4.55651ZM8.14451 12.6454C7.90253 12.2122 7.69179 11.7611 7.51406 11.2957L5.64569 12.0093C5.85773 12.5645 6.10932 13.1031 6.39849 13.6207L8.14451 12.6454ZM7.5121 11.2907C7.49121 11.2368 7.47037 11.1813 7.44782 11.1209L5.57393 11.8198C5.59693 11.8815 5.62165 11.9475 5.64765 12.0144L7.5121 11.2907ZM16.8295 11.0316C16.7978 11.1187 16.7652 11.2053 16.7319 11.2915L18.597 12.0135C18.6352 11.915 18.6724 11.8159 18.7086 11.7164L16.8295 11.0316ZM16.7304 11.2952C16.5577 11.7467 16.3543 12.1849 16.1216 12.6066L17.8728 13.5727C18.1503 13.0698 18.3927 12.5475 18.5984 12.0098L16.7304 11.2952ZM17.99 3.54779C17.9864 3.95117 17.974 4.42924 17.9443 4.95936L19.9411 5.07127C19.9728 4.50559 19.9861 3.99574 19.9899 3.56523L17.99 3.54779ZM18.9427 4.01531H17.8688V6.01531H18.9427V4.01531ZM17.8688 4.55651H18.9899V2.55651H17.8688V4.55651ZM15.8269 3.38841C15.8206 5.878 15.5649 8.80664 14.8882 11.0789C14.5487 12.2188 14.1247 13.1187 13.6328 13.7153C13.1597 14.2893 12.6697 14.5364 12.1221 14.5364V16.5364C13.4105 16.5364 14.4249 15.8988 15.1761 14.9875C15.9086 14.0988 16.4289 12.9126 16.805 11.6498C17.5595 9.11647 17.8203 5.9724 17.8269 3.39349L15.8269 3.38841ZM12.1221 16.5364C13.3057 16.5364 14.121 15.738 14.6451 14.867C15.175 13.9863 15.5481 12.8191 15.8182 11.5768C16.3621 9.07487 16.5518 5.95869 16.5565 3.39278L14.5565 3.38913C14.552 5.89171 14.3647 8.84823 13.8638 11.1519C13.6115 12.3123 13.2952 13.2312 12.9314 13.8358C12.5617 14.4501 12.2787 14.5364 12.1221 14.5364V16.5364ZM16.5565 3.39507C16.5572 3.22941 16.5565 3.06692 16.5555 2.90965L14.5556 2.92234C14.5565 3.07718 14.5572 3.23156 14.5565 3.38684L16.5565 3.39507ZM15.5555 3.91599H16.8256V1.91599H15.5555V3.91599ZM15.8256 2.92446C15.8269 3.07953 15.8278 3.23195 15.8269 3.38479L17.8269 3.39712C17.8279 3.22901 17.8269 3.06457 17.8255 2.90753L15.8256 2.92446ZM12.1221 14.5364C12.0949 14.5364 12.0723 14.5361 12.0523 14.5355L11.9913 16.5345C12.0379 16.536 12.082 16.5364 12.1221 16.5364V14.5364ZM12.0477 14.5353C10.6129 14.4982 9.48167 13.3012 8.68377 10.9824C7.91031 8.73474 7.61636 5.84876 7.60925 3.38807L5.60926 3.39384C5.61668 5.96195 5.91862 9.09337 6.7926 11.6332C7.64214 14.102 9.20996 16.4626 11.9959 16.5347L12.0477 14.5353ZM7.60923 3.38477C7.60829 3.23221 7.60923 3.07999 7.61085 2.92657L5.61096 2.90542C5.60928 3.06411 5.60823 3.22876 5.60927 3.39714L7.60923 3.38477ZM6.6109 3.91599H8.68876V1.91599H6.6109V3.91599ZM7.68878 2.90963C7.68778 3.06693 7.6871 3.22941 7.68778 3.39505L9.68776 3.38685C9.68713 3.23156 9.68776 3.07717 9.68874 2.92235L7.68878 2.90963ZM7.68777 3.39278C7.69245 5.95869 7.88218 9.07487 8.42612 11.5768C8.69622 12.8191 9.06927 13.9863 9.59922 14.867C10.1233 15.738 10.9386 16.5364 12.1221 16.5364V14.5364C11.9656 14.5364 11.6826 14.4501 11.3129 13.8358C10.9491 13.2312 10.6328 12.3123 10.3805 11.1519C9.87962 8.84823 9.69233 5.89171 9.68777 3.38913L7.68777 3.39278ZM5.91564 3H18.3287V1H5.91564V3ZM18.3287 3C18.1246 3 17.9345 2.91643 17.7987 2.7769L19.2321 1.38209C18.9972 1.14076 18.6728 1 18.3287 1V3ZM17.7987 2.7769C17.6639 2.6383 17.5928 2.45599 17.5928 2.27141L19.5928 2.27141C19.5928 1.94286 19.466 1.62248 19.2321 1.38209L17.7987 2.7769ZM17.5928 2.27141V2.64459H19.5928V2.27141H17.5928ZM17.5928 2.64459C17.5928 2.46 17.6639 2.27769 17.7987 2.1391L19.2321 3.53391C19.466 3.29352 19.5928 2.97314 19.5928 2.64459L17.5928 2.64459ZM17.7987 2.1391C17.9345 1.99957 18.1246 1.91599 18.3287 1.91599V3.91599C18.6728 3.91599 18.9972 3.77523 19.2321 3.53391L17.7987 2.1391ZM18.3287 1.91599H5.91564V3.91599H18.3287V1.91599ZM5.91564 1.91599C6.11975 1.91599 6.30979 1.99957 6.44557 2.1391L5.01221 3.53391C5.24705 3.77523 5.57145 3.91599 5.91564 3.91599V1.91599ZM6.44557 2.1391C6.58044 2.2777 6.65154 2.46002 6.65154 2.64459L4.65154 2.64459C4.65154 2.97312 4.77828 3.29351 5.01221 3.53391L6.44557 2.1391ZM6.65154 2.64459V2.27141H4.65154V2.64459H6.65154ZM6.65154 2.27141C6.65154 2.45598 6.58044 2.6383 6.44557 2.7769L5.01221 1.38209C4.77828 1.62249 4.65154 1.94287 4.65154 2.27141H6.65154ZM6.44557 2.7769C6.30979 2.91643 6.11975 3 5.91564 3L5.91564 1C5.57145 1 5.24705 1.14076 5.01221 1.38209L6.44557 2.7769ZM18.2316 2.39095H6.0127V4.39095H18.2316V2.39095ZM8.58972 23.2876H10.1083V21.2876H8.58972V23.2876ZM9.10834 22.2876V23H11.1083V22.2876H9.10834ZM10.1083 22H8.58972V24H10.1083V22ZM9.58972 23V22.2876H7.58972V23H9.58972ZM11.3518 23.2876H12.1772V21.2876H11.3518V23.2876ZM11.1772 22.2876V23H13.1772V22.2876H11.1772ZM12.1772 22H11.3518V24H12.1772V22ZM12.3518 23V22.2876H10.3518V23H12.3518ZM12.8374 23.2876H14.147V21.2876H12.8374V23.2876ZM13.147 22.2876V23H15.147V22.2876H13.147ZM14.147 22H12.8374V24H14.147V22ZM13.8374 23V22.2876H11.8374V23H13.8374ZM14.9063 23.2876H15.5996V21.2876H14.9063V23.2876ZM14.5996 22.2876V23H16.5996V22.2876H14.5996ZM15.5996 22H14.9063V24H15.5996V22ZM15.9063 23V22.2876H13.9063V23H15.9063ZM15.9414 21.2885C15.7267 21.2978 15.5119 21.3057 15.2972 21.3121L15.357 23.3112C15.5807 23.3045 15.8043 23.2963 16.028 23.2866L15.9414 21.2885ZM15.2964 21.3121C14.9914 21.3215 14.6864 21.3288 14.3812 21.3342L14.4163 23.3339C14.7302 23.3284 15.0441 23.3208 15.3578 23.3112L15.2964 21.3121ZM14.3799 21.3342C14.255 21.3366 14.1301 21.3387 14.0052 21.3406L14.0356 23.3404C14.163 23.3384 14.2903 23.3363 14.4176 23.3339L14.3799 21.3342ZM14.0007 21.3407C13.6781 21.347 13.3661 21.3479 13.0269 21.3517L13.0497 23.3516C13.3654 23.348 13.7078 23.3468 14.0401 23.3403L14.0007 21.3407ZM13.0345 21.3517L12.0523 21.3554L12.0599 23.3554L13.0421 23.3517L13.0345 21.3517ZM12.0599 21.3554L11.0778 21.3517L11.0702 23.3517L12.0523 23.3554L12.0599 21.3554ZM11.0854 21.3517C10.7478 21.3479 10.4339 21.3467 10.1115 21.3403L10.0722 23.3399C10.4048 23.3465 10.7451 23.348 11.0626 23.3516L11.0854 21.3517ZM10.1069 21.3403C9.45649 21.3305 8.81191 21.3161 8.17051 21.2885L8.08456 23.2866C8.75248 23.3154 9.41786 23.3301 10.0768 23.34L10.1069 21.3403ZM8.17051 23.2866C8.81191 23.259 9.45649 23.2446 10.1069 23.2349L10.0768 21.2351C9.41786 21.245 8.75247 21.2598 8.08456 21.2885L8.17051 23.2866ZM10.1115 23.2348C10.4339 23.2284 10.7479 23.2272 11.0854 23.2234L11.0626 21.2235C10.7451 21.2271 10.4048 21.2286 10.0721 21.2352L10.1115 23.2348ZM11.0778 23.2234L12.0599 23.2197L12.0523 21.2197L11.0702 21.2234L11.0778 23.2234ZM12.0523 23.2197L13.0345 23.2234L13.0421 21.2234L12.0599 21.2197L12.0523 23.2197ZM13.0269 23.2234C13.3661 23.2272 13.6781 23.2281 14.0007 23.2344L14.0401 21.2348C13.7078 21.2283 13.3654 21.2271 13.0497 21.2235L13.0269 23.2234ZM14.0069 23.2345C14.1046 23.2359 14.2024 23.2375 14.3002 23.2395L14.3409 21.2399C14.2386 21.2379 14.1363 21.2361 14.034 21.2347L14.0069 23.2345ZM15.2375 23.2613C15.4725 23.2683 15.7075 23.2768 15.9427 23.2867L16.0267 21.2884C15.7834 21.2782 15.5402 21.2695 15.2971 21.2622L15.2375 23.2613ZM16.5955 3H17.7509V1H16.5955V3ZM16.7509 2V2.91599H18.7509V2H16.7509ZM17.7509 1.91599H16.5955V3.91599H17.7509V1.91599ZM17.5955 2.91599V2H15.5955V2.91599H17.5955ZM11.0657 3H11.8745V1H11.0657V3ZM10.8745 2V2.91599H12.8745V2H10.8745ZM11.8745 1.91599H11.0657V3.91599H11.8745V1.91599ZM12.0657 2.91599V2H10.0657V2.91599H12.0657ZM13.6243 3H15.44V1H13.6243V3ZM14.44 2V2.91599H16.44V2H14.44ZM15.44 1.91599H13.6243V3.91599H15.44V1.91599ZM14.6243 2.91599V2H12.6243V2.91599H14.6243ZM6.87303 3H9.3655V1H6.87303V3ZM8.3655 2V2.91599H10.3655V2H8.3655ZM9.3655 1.91599H6.87303V3.91599H9.3655V1.91599ZM7.87303 2.91599V2H5.87303V2.91599H7.87303Z" fill="black" mask="url(#path-1-outside-1_104_3158)"/>
</svg>
